%TF.GenerationSoftware,KiCad,Pcbnew,8.0.2*%
%TF.CreationDate,2024-07-28T21:03:14+03:00*%
%TF.ProjectId,hiro_samurai,6869726f-5f73-4616-9d75-7261692e6b69,rev?*%
%TF.SameCoordinates,Original*%
%TF.FileFunction,Copper,L4,Bot*%
%TF.FilePolarity,Positive*%
%FSLAX46Y46*%
G04 Gerber Fmt 4.6, Leading zero omitted, Abs format (unit mm)*
G04 Created by KiCad (PCBNEW 8.0.2) date 2024-07-28 21:03:14*
%MOMM*%
%LPD*%
G01*
G04 APERTURE LIST*
G04 Aperture macros list*
%AMRoundRect*
0 Rectangle with rounded corners*
0 $1 Rounding radius*
0 $2 $3 $4 $5 $6 $7 $8 $9 X,Y pos of 4 corners*
0 Add a 4 corners polygon primitive as box body*
4,1,4,$2,$3,$4,$5,$6,$7,$8,$9,$2,$3,0*
0 Add four circle primitives for the rounded corners*
1,1,$1+$1,$2,$3*
1,1,$1+$1,$4,$5*
1,1,$1+$1,$6,$7*
1,1,$1+$1,$8,$9*
0 Add four rect primitives between the rounded corners*
20,1,$1+$1,$2,$3,$4,$5,0*
20,1,$1+$1,$4,$5,$6,$7,0*
20,1,$1+$1,$6,$7,$8,$9,0*
20,1,$1+$1,$8,$9,$2,$3,0*%
%AMFreePoly0*
4,1,22,0.945671,0.830970,1.026777,0.776777,1.080970,0.695671,1.100000,0.600000,1.100000,-0.600000,1.080970,-0.695671,1.026777,-0.776777,0.945671,-0.830970,0.850000,-0.850000,-0.450000,-0.850000,-0.545671,-0.830970,-0.626777,-0.776777,-1.026777,-0.376777,-1.080970,-0.295671,-1.100000,-0.200000,-1.100000,0.600000,-1.080970,0.695671,-1.026777,0.776777,-0.945671,0.830970,-0.850000,0.850000,
0.850000,0.850000,0.945671,0.830970,0.945671,0.830970,$1*%
%AMFreePoly1*
4,1,22,0.945671,0.830970,1.026777,0.776777,1.080970,0.695671,1.100000,0.600000,1.100000,-0.600000,1.080970,-0.695671,1.026777,-0.776777,0.945671,-0.830970,0.850000,-0.850000,-0.850000,-0.850000,-0.945671,-0.830970,-1.026777,-0.776777,-1.080970,-0.695671,-1.100000,-0.600000,-1.100000,0.200000,-1.080970,0.295671,-1.026777,0.376777,-0.626777,0.776777,-0.545671,0.830970,-0.450000,0.850000,
0.850000,0.850000,0.945671,0.830970,0.945671,0.830970,$1*%
%AMFreePoly2*
4,1,14,0.178536,0.103536,0.180000,0.100000,0.180000,-0.050000,0.178536,-0.053536,0.128536,-0.103536,0.125000,-0.105000,-0.175000,-0.105000,-0.178536,-0.103536,-0.180000,-0.100000,-0.180000,0.100000,-0.178536,0.103536,-0.175000,0.105000,0.175000,0.105000,0.178536,0.103536,0.178536,0.103536,$1*%
%AMFreePoly3*
4,1,14,0.128536,0.103536,0.178536,0.053536,0.180000,0.050000,0.180000,-0.100000,0.178536,-0.103536,0.175000,-0.105000,-0.175000,-0.105000,-0.178536,-0.103536,-0.180000,-0.100000,-0.180000,0.100000,-0.178536,0.103536,-0.175000,0.105000,0.125000,0.105000,0.128536,0.103536,0.128536,0.103536,$1*%
%AMFreePoly4*
4,1,14,0.103536,0.178536,0.105000,0.175000,0.105000,-0.175000,0.103536,-0.178536,0.100000,-0.180000,-0.050000,-0.180000,-0.053536,-0.178536,-0.103536,-0.128536,-0.105000,-0.125000,-0.105000,0.175000,-0.103536,0.178536,-0.100000,0.180000,0.100000,0.180000,0.103536,0.178536,0.103536,0.178536,$1*%
%AMFreePoly5*
4,1,14,0.103536,0.178536,0.105000,0.175000,0.105000,-0.125000,0.103536,-0.128536,0.053536,-0.178536,0.050000,-0.180000,-0.100000,-0.180000,-0.103536,-0.178536,-0.105000,-0.175000,-0.105000,0.175000,-0.103536,0.178536,-0.100000,0.180000,0.100000,0.180000,0.103536,0.178536,0.103536,0.178536,$1*%
%AMFreePoly6*
4,1,14,0.178536,0.103536,0.180000,0.100000,0.180000,-0.100000,0.178536,-0.103536,0.175000,-0.105000,-0.175000,-0.105000,-0.178536,-0.103536,-0.180000,-0.100000,-0.180000,0.050000,-0.178536,0.053536,-0.128536,0.103536,-0.125000,0.105000,0.175000,0.105000,0.178536,0.103536,0.178536,0.103536,$1*%
%AMFreePoly7*
4,1,14,0.178536,0.103536,0.180000,0.100000,0.180000,-0.100000,0.178536,-0.103536,0.175000,-0.105000,-0.125000,-0.105000,-0.128536,-0.103536,-0.178536,-0.053536,-0.180000,-0.050000,-0.180000,0.100000,-0.178536,0.103536,-0.175000,0.105000,0.175000,0.105000,0.178536,0.103536,0.178536,0.103536,$1*%
%AMFreePoly8*
4,1,14,0.053536,0.178536,0.103536,0.128536,0.105000,0.125000,0.105000,-0.175000,0.103536,-0.178536,0.100000,-0.180000,-0.100000,-0.180000,-0.103536,-0.178536,-0.105000,-0.175000,-0.105000,0.175000,-0.103536,0.178536,-0.100000,0.180000,0.050000,0.180000,0.053536,0.178536,0.053536,0.178536,$1*%
%AMFreePoly9*
4,1,14,0.103536,0.178536,0.105000,0.175000,0.105000,-0.175000,0.103536,-0.178536,0.100000,-0.180000,-0.100000,-0.180000,-0.103536,-0.178536,-0.105000,-0.175000,-0.105000,0.125000,-0.103536,0.128536,-0.053536,0.178536,-0.050000,0.180000,0.100000,0.180000,0.103536,0.178536,0.103536,0.178536,$1*%
G04 Aperture macros list end*
%TA.AperFunction,ComponentPad*%
%ADD10RoundRect,0.250000X0.600000X-0.850000X0.600000X0.850000X-0.600000X0.850000X-0.600000X-0.850000X0*%
%TD*%
%TA.AperFunction,ComponentPad*%
%ADD11O,1.700000X2.200000*%
%TD*%
%TA.AperFunction,ComponentPad*%
%ADD12C,1.100000*%
%TD*%
%TA.AperFunction,ComponentPad*%
%ADD13FreePoly0,180.000000*%
%TD*%
%TA.AperFunction,ComponentPad*%
%ADD14O,2.200000X1.700000*%
%TD*%
%TA.AperFunction,ComponentPad*%
%ADD15RoundRect,0.250000X-0.600000X0.850000X-0.600000X-0.850000X0.600000X-0.850000X0.600000X0.850000X0*%
%TD*%
%TA.AperFunction,SMDPad,CuDef*%
%ADD16RoundRect,0.160000X-0.197500X-0.160000X0.197500X-0.160000X0.197500X0.160000X-0.197500X0.160000X0*%
%TD*%
%TA.AperFunction,SMDPad,CuDef*%
%ADD17RoundRect,0.160000X0.160000X-0.197500X0.160000X0.197500X-0.160000X0.197500X-0.160000X-0.197500X0*%
%TD*%
%TA.AperFunction,SMDPad,CuDef*%
%ADD18RoundRect,0.225000X-0.225000X-0.250000X0.225000X-0.250000X0.225000X0.250000X-0.225000X0.250000X0*%
%TD*%
%TA.AperFunction,SMDPad,CuDef*%
%ADD19RoundRect,0.075000X0.662500X0.075000X-0.662500X0.075000X-0.662500X-0.075000X0.662500X-0.075000X0*%
%TD*%
%TA.AperFunction,SMDPad,CuDef*%
%ADD20RoundRect,0.075000X0.075000X0.662500X-0.075000X0.662500X-0.075000X-0.662500X0.075000X-0.662500X0*%
%TD*%
%TA.AperFunction,SMDPad,CuDef*%
%ADD21RoundRect,0.237500X-0.300000X-0.237500X0.300000X-0.237500X0.300000X0.237500X-0.300000X0.237500X0*%
%TD*%
%TA.AperFunction,SMDPad,CuDef*%
%ADD22RoundRect,0.250000X-1.100000X0.412500X-1.100000X-0.412500X1.100000X-0.412500X1.100000X0.412500X0*%
%TD*%
%TA.AperFunction,SMDPad,CuDef*%
%ADD23RoundRect,0.155000X-0.212500X-0.155000X0.212500X-0.155000X0.212500X0.155000X-0.212500X0.155000X0*%
%TD*%
%TA.AperFunction,SMDPad,CuDef*%
%ADD24RoundRect,0.325000X-0.525000X-0.325000X0.525000X-0.325000X0.525000X0.325000X-0.525000X0.325000X0*%
%TD*%
%TA.AperFunction,SMDPad,CuDef*%
%ADD25RoundRect,0.325000X0.525000X0.325000X-0.525000X0.325000X-0.525000X-0.325000X0.525000X-0.325000X0*%
%TD*%
%TA.AperFunction,ComponentPad*%
%ADD26FreePoly1,180.000000*%
%TD*%
%TA.AperFunction,SMDPad,CuDef*%
%ADD27RoundRect,0.237500X0.250000X0.237500X-0.250000X0.237500X-0.250000X-0.237500X0.250000X-0.237500X0*%
%TD*%
%TA.AperFunction,SMDPad,CuDef*%
%ADD28RoundRect,0.237500X0.237500X-0.300000X0.237500X0.300000X-0.237500X0.300000X-0.237500X-0.300000X0*%
%TD*%
%TA.AperFunction,SMDPad,CuDef*%
%ADD29RoundRect,0.237500X-0.237500X0.300000X-0.237500X-0.300000X0.237500X-0.300000X0.237500X0.300000X0*%
%TD*%
%TA.AperFunction,SMDPad,CuDef*%
%ADD30RoundRect,0.160000X0.197500X0.160000X-0.197500X0.160000X-0.197500X-0.160000X0.197500X-0.160000X0*%
%TD*%
%TA.AperFunction,SMDPad,CuDef*%
%ADD31R,2.400000X0.740000*%
%TD*%
%TA.AperFunction,SMDPad,CuDef*%
%ADD32RoundRect,0.160000X-0.160000X0.197500X-0.160000X-0.197500X0.160000X-0.197500X0.160000X0.197500X0*%
%TD*%
%TA.AperFunction,SMDPad,CuDef*%
%ADD33RoundRect,0.155000X0.155000X-0.212500X0.155000X0.212500X-0.155000X0.212500X-0.155000X-0.212500X0*%
%TD*%
%TA.AperFunction,SMDPad,CuDef*%
%ADD34RoundRect,0.050000X0.285000X0.100000X-0.285000X0.100000X-0.285000X-0.100000X0.285000X-0.100000X0*%
%TD*%
%TA.AperFunction,SMDPad,CuDef*%
%ADD35RoundRect,0.100000X0.225000X0.100000X-0.225000X0.100000X-0.225000X-0.100000X0.225000X-0.100000X0*%
%TD*%
%TA.AperFunction,SMDPad,CuDef*%
%ADD36R,0.400000X0.900000*%
%TD*%
%TA.AperFunction,SMDPad,CuDef*%
%ADD37RoundRect,0.100000X-0.225000X-0.100000X0.225000X-0.100000X0.225000X0.100000X-0.225000X0.100000X0*%
%TD*%
%TA.AperFunction,SMDPad,CuDef*%
%ADD38RoundRect,0.155000X-0.155000X0.212500X-0.155000X-0.212500X0.155000X-0.212500X0.155000X0.212500X0*%
%TD*%
%TA.AperFunction,SMDPad,CuDef*%
%ADD39RoundRect,0.237500X0.300000X0.237500X-0.300000X0.237500X-0.300000X-0.237500X0.300000X-0.237500X0*%
%TD*%
%TA.AperFunction,SMDPad,CuDef*%
%ADD40RoundRect,0.250000X0.337500X0.475000X-0.337500X0.475000X-0.337500X-0.475000X0.337500X-0.475000X0*%
%TD*%
%TA.AperFunction,SMDPad,CuDef*%
%ADD41RoundRect,0.225000X0.225000X0.250000X-0.225000X0.250000X-0.225000X-0.250000X0.225000X-0.250000X0*%
%TD*%
%TA.AperFunction,SMDPad,CuDef*%
%ADD42RoundRect,0.150000X-0.512500X-0.150000X0.512500X-0.150000X0.512500X0.150000X-0.512500X0.150000X0*%
%TD*%
%TA.AperFunction,SMDPad,CuDef*%
%ADD43R,0.650000X3.000000*%
%TD*%
%TA.AperFunction,SMDPad,CuDef*%
%ADD44R,3.550000X3.500000*%
%TD*%
%TA.AperFunction,SMDPad,CuDef*%
%ADD45RoundRect,0.100000X0.100000X-0.225000X0.100000X0.225000X-0.100000X0.225000X-0.100000X-0.225000X0*%
%TD*%
%TA.AperFunction,SMDPad,CuDef*%
%ADD46R,0.200000X0.350000*%
%TD*%
%TA.AperFunction,SMDPad,CuDef*%
%ADD47R,0.350000X0.200000*%
%TD*%
%TA.AperFunction,SMDPad,CuDef*%
%ADD48FreePoly2,90.000000*%
%TD*%
%TA.AperFunction,SMDPad,CuDef*%
%ADD49FreePoly3,90.000000*%
%TD*%
%TA.AperFunction,SMDPad,CuDef*%
%ADD50FreePoly4,90.000000*%
%TD*%
%TA.AperFunction,SMDPad,CuDef*%
%ADD51FreePoly5,90.000000*%
%TD*%
%TA.AperFunction,SMDPad,CuDef*%
%ADD52FreePoly6,90.000000*%
%TD*%
%TA.AperFunction,SMDPad,CuDef*%
%ADD53FreePoly7,90.000000*%
%TD*%
%TA.AperFunction,SMDPad,CuDef*%
%ADD54FreePoly8,90.000000*%
%TD*%
%TA.AperFunction,SMDPad,CuDef*%
%ADD55FreePoly9,90.000000*%
%TD*%
%TA.AperFunction,ComponentPad*%
%ADD56R,3.800000X3.800000*%
%TD*%
%TA.AperFunction,ComponentPad*%
%ADD57C,3.800000*%
%TD*%
%TA.AperFunction,SMDPad,CuDef*%
%ADD58RoundRect,0.137500X-0.662500X-0.137500X0.662500X-0.137500X0.662500X0.137500X-0.662500X0.137500X0*%
%TD*%
%TA.AperFunction,SMDPad,CuDef*%
%ADD59RoundRect,0.150000X-0.587500X-0.150000X0.587500X-0.150000X0.587500X0.150000X-0.587500X0.150000X0*%
%TD*%
%TA.AperFunction,SMDPad,CuDef*%
%ADD60R,0.900000X0.800000*%
%TD*%
%TA.AperFunction,SMDPad,CuDef*%
%ADD61RoundRect,0.135000X0.185000X-0.135000X0.185000X0.135000X-0.185000X0.135000X-0.185000X-0.135000X0*%
%TD*%
%TA.AperFunction,SMDPad,CuDef*%
%ADD62RoundRect,0.250000X1.050000X0.550000X-1.050000X0.550000X-1.050000X-0.550000X1.050000X-0.550000X0*%
%TD*%
%TA.AperFunction,SMDPad,CuDef*%
%ADD63RoundRect,0.237500X-0.237500X0.250000X-0.237500X-0.250000X0.237500X-0.250000X0.237500X0.250000X0*%
%TD*%
%TA.AperFunction,SMDPad,CuDef*%
%ADD64RoundRect,0.237500X0.237500X-0.287500X0.237500X0.287500X-0.237500X0.287500X-0.237500X-0.287500X0*%
%TD*%
%TA.AperFunction,SMDPad,CuDef*%
%ADD65RoundRect,0.150000X0.512500X0.150000X-0.512500X0.150000X-0.512500X-0.150000X0.512500X-0.150000X0*%
%TD*%
%TA.AperFunction,SMDPad,CuDef*%
%ADD66RoundRect,0.250000X-0.412500X-1.100000X0.412500X-1.100000X0.412500X1.100000X-0.412500X1.100000X0*%
%TD*%
%TA.AperFunction,SMDPad,CuDef*%
%ADD67RoundRect,0.237500X0.287500X0.237500X-0.287500X0.237500X-0.287500X-0.237500X0.287500X-0.237500X0*%
%TD*%
%TA.AperFunction,SMDPad,CuDef*%
%ADD68RoundRect,0.062500X0.350000X0.062500X-0.350000X0.062500X-0.350000X-0.062500X0.350000X-0.062500X0*%
%TD*%
%TA.AperFunction,SMDPad,CuDef*%
%ADD69RoundRect,0.062500X0.062500X0.350000X-0.062500X0.350000X-0.062500X-0.350000X0.062500X-0.350000X0*%
%TD*%
%TA.AperFunction,HeatsinkPad*%
%ADD70R,2.700000X2.700000*%
%TD*%
%TA.AperFunction,SMDPad,CuDef*%
%ADD71R,0.625000X0.250000*%
%TD*%
%TA.AperFunction,SMDPad,CuDef*%
%ADD72R,0.700000X0.450000*%
%TD*%
%TA.AperFunction,SMDPad,CuDef*%
%ADD73R,0.575000X0.450000*%
%TD*%
%TA.AperFunction,SMDPad,CuDef*%
%ADD74RoundRect,0.225000X-0.375000X0.225000X-0.375000X-0.225000X0.375000X-0.225000X0.375000X0.225000X0*%
%TD*%
%TA.AperFunction,SMDPad,CuDef*%
%ADD75R,1.500000X0.900000*%
%TD*%
%TA.AperFunction,SMDPad,CuDef*%
%ADD76R,0.900000X1.500000*%
%TD*%
%TA.AperFunction,SMDPad,CuDef*%
%ADD77R,1.000000X1.000000*%
%TD*%
%TA.AperFunction,ComponentPad*%
%ADD78C,0.600000*%
%TD*%
%TA.AperFunction,SMDPad,CuDef*%
%ADD79RoundRect,0.100000X0.100000X-0.637500X0.100000X0.637500X-0.100000X0.637500X-0.100000X-0.637500X0*%
%TD*%
%TA.AperFunction,SMDPad,CuDef*%
%ADD80RoundRect,0.150000X-0.825000X-0.150000X0.825000X-0.150000X0.825000X0.150000X-0.825000X0.150000X0*%
%TD*%
%TA.AperFunction,SMDPad,CuDef*%
%ADD81RoundRect,0.135000X-0.185000X0.135000X-0.185000X-0.135000X0.185000X-0.135000X0.185000X0.135000X0*%
%TD*%
%TA.AperFunction,SMDPad,CuDef*%
%ADD82RoundRect,0.237500X0.237500X-0.250000X0.237500X0.250000X-0.237500X0.250000X-0.237500X-0.250000X0*%
%TD*%
%TA.AperFunction,ViaPad*%
%ADD83C,0.610000*%
%TD*%
%TA.AperFunction,ViaPad*%
%ADD84C,0.600000*%
%TD*%
%TA.AperFunction,ViaPad*%
%ADD85C,0.457200*%
%TD*%
%TA.AperFunction,ViaPad*%
%ADD86C,0.406400*%
%TD*%
%TA.AperFunction,ViaPad*%
%ADD87C,0.250000*%
%TD*%
%TA.AperFunction,Conductor*%
%ADD88C,0.152400*%
%TD*%
%TA.AperFunction,Conductor*%
%ADD89C,0.762000*%
%TD*%
%TA.AperFunction,Conductor*%
%ADD90C,0.200000*%
%TD*%
%TA.AperFunction,Conductor*%
%ADD91C,0.254000*%
%TD*%
%TA.AperFunction,Conductor*%
%ADD92C,0.508000*%
%TD*%
%TA.AperFunction,Conductor*%
%ADD93C,0.203200*%
%TD*%
%TA.AperFunction,Conductor*%
%ADD94C,0.101600*%
%TD*%
%TA.AperFunction,Conductor*%
%ADD95C,0.304800*%
%TD*%
%TA.AperFunction,Conductor*%
%ADD96C,0.400000*%
%TD*%
%TA.AperFunction,Conductor*%
%ADD97C,0.127000*%
%TD*%
G04 APERTURE END LIST*
D10*
%TO.P,J14,1,Pin_1*%
%TO.N,GND_MOTOR*%
X88450242Y23727945D03*
D11*
%TO.P,J14,2,Pin_2*%
%TO.N,OPTO2*%
X90950242Y23727945D03*
%TO.P,J14,3,Pin_3*%
%TO.N,Net-(J14-Pin_3)*%
X93450242Y23727945D03*
%TO.P,J14,4,Pin_4*%
%TO.N,V_MOTOR*%
X95950242Y23727945D03*
%TD*%
D12*
%TO.P,J8,S1,SHIELD*%
%TO.N,GND*%
X87451700Y30605000D03*
X91751700Y30605000D03*
X87451700Y35405000D03*
X91751700Y35405000D03*
%TD*%
D13*
%TO.P,J3,1,Pin_1*%
%TO.N,CAN_H*%
X94763507Y27552931D03*
D14*
%TO.P,J3,2,Pin_2*%
%TO.N,CAN_L*%
X94763507Y30052931D03*
%TD*%
D15*
%TO.P,J2,1,Pin_1*%
%TO.N,+3V3*%
X96245000Y41495000D03*
D11*
%TO.P,J2,2,Pin_2*%
%TO.N,GND*%
X93745000Y41495000D03*
%TO.P,J2,3,Pin_3*%
%TO.N,SIG_RUN*%
X91245000Y41495000D03*
%TO.P,J2,4,Pin_4*%
%TO.N,SIG_KILL*%
X88745000Y41495000D03*
%TD*%
D16*
%TO.P,R10,1*%
%TO.N,Net-(J14-Pin_3)*%
X93906700Y22005000D03*
%TO.P,R10,2*%
%TO.N,V_MOTOR*%
X95101700Y22005000D03*
%TD*%
D17*
%TO.P,R53,1*%
%TO.N,Net-(R53-Pad1)*%
X55166200Y17157500D03*
%TO.P,R53,2*%
%TO.N,GND*%
X55166200Y18352500D03*
%TD*%
D18*
%TO.P,C1,1*%
%TO.N,+3V3*%
X96826700Y45005000D03*
%TO.P,C1,2*%
%TO.N,GND*%
X98376700Y45005000D03*
%TD*%
D19*
%TO.P,U1,1,VBAT*%
%TO.N,+3V3*%
X18014200Y34092500D03*
%TO.P,U1,2,PC13*%
%TO.N,LIFT1*%
X18014200Y33592500D03*
%TO.P,U1,3,PC14*%
%TO.N,LIFT2*%
X18014200Y33092500D03*
%TO.P,U1,4,PC15*%
%TO.N,LIFT3*%
X18014200Y32592500D03*
%TO.P,U1,5,PH0*%
%TO.N,HSE_OSC_IN*%
X18014200Y32092500D03*
%TO.P,U1,6,PH1*%
%TO.N,HSE_OSC_OUT*%
X18014200Y31592500D03*
%TO.P,U1,7,NRST*%
%TO.N,~{STM_NRST}*%
X18014200Y31092500D03*
%TO.P,U1,8,VSSA*%
%TO.N,GND*%
X18014200Y30592500D03*
%TO.P,U1,9,VDDA*%
%TO.N,+3.3VA*%
X18014200Y30092500D03*
%TO.P,U1,10,PA0*%
%TO.N,PWM1_OUT*%
X18014200Y29592500D03*
%TO.P,U1,11,PA1*%
%TO.N,PWM2_OUT*%
X18014200Y29092500D03*
%TO.P,U1,12,PA2*%
%TO.N,STM_USART2_TX*%
X18014200Y28592500D03*
D20*
%TO.P,U1,13,PA3*%
%TO.N,STM_USART2_RX*%
X16601700Y27180000D03*
%TO.P,U1,14,PA4*%
%TO.N,COL4*%
X16101700Y27180000D03*
%TO.P,U1,15,PA5*%
%TO.N,LIFT4*%
X15601700Y27180000D03*
%TO.P,U1,16,PA6*%
%TO.N,RGB_LED*%
X15101700Y27180000D03*
%TO.P,U1,17,PA7*%
%TO.N,ADC_V_IN*%
X14601700Y27180000D03*
%TO.P,U1,18,PB0*%
%TO.N,SEN3_3V3*%
X14101700Y27180000D03*
%TO.P,U1,19,PB1*%
%TO.N,SEN2_3V3*%
X13601700Y27180000D03*
%TO.P,U1,20,PB2*%
%TO.N,SEN1_3V3*%
X13101700Y27180000D03*
%TO.P,U1,21,PB10*%
%TO.N,SEN11_3V3*%
X12601700Y27180000D03*
%TO.P,U1,22,VCAP*%
%TO.N,Net-(U1-VCAP)*%
X12101700Y27180000D03*
%TO.P,U1,23,VSS*%
%TO.N,GND*%
X11601700Y27180000D03*
%TO.P,U1,24,VDD*%
%TO.N,+3V3*%
X11101700Y27180000D03*
D19*
%TO.P,U1,25,PB12*%
%TO.N,SEN12_3V3*%
X9689200Y28592500D03*
%TO.P,U1,26,PB13*%
%TO.N,COL1*%
X9689200Y29092500D03*
%TO.P,U1,27,PB14*%
%TO.N,COL2*%
X9689200Y29592500D03*
%TO.P,U1,28,PB15*%
%TO.N,COL3*%
X9689200Y30092500D03*
%TO.P,U1,29,PA8*%
%TO.N,STM_ESP_INT*%
X9689200Y30592500D03*
%TO.P,U1,30,PA9*%
%TO.N,STM_USART1_TX*%
X9689200Y31092500D03*
%TO.P,U1,31,PA10*%
%TO.N,STM_USART1_RX*%
X9689200Y31592500D03*
%TO.P,U1,32,PA11*%
%TO.N,unconnected-(U1-PA11-Pad32)*%
X9689200Y32092500D03*
%TO.P,U1,33,PA12*%
%TO.N,unconnected-(U1-PA12-Pad33)*%
X9689200Y32592500D03*
%TO.P,U1,34,PA13*%
%TO.N,STM_SWDIO_PROT*%
X9689200Y33092500D03*
%TO.P,U1,35,VSS*%
%TO.N,GND*%
X9689200Y33592500D03*
%TO.P,U1,36,VDD*%
%TO.N,+3V3*%
X9689200Y34092500D03*
D20*
%TO.P,U1,37,PA14*%
%TO.N,STM_SWDCLK_PROT*%
X11101700Y35505000D03*
%TO.P,U1,38,PA15*%
%TO.N,unconnected-(U1-PA15-Pad38)*%
X11601700Y35505000D03*
%TO.P,U1,39,PB3*%
%TO.N,SEN10_3V3*%
X12101700Y35505000D03*
%TO.P,U1,40,PB4*%
%TO.N,SEN9_3V3*%
X12601700Y35505000D03*
%TO.P,U1,41,PB5*%
%TO.N,SEN8_3V3*%
X13101700Y35505000D03*
%TO.P,U1,42,PB6*%
%TO.N,SEN7_3V3*%
X13601700Y35505000D03*
%TO.P,U1,43,PB7*%
%TO.N,SEN6_3V3*%
X14101700Y35505000D03*
%TO.P,U1,44,PH3*%
%TO.N,STM_BOOT*%
X14601700Y35505000D03*
%TO.P,U1,45,PB8*%
%TO.N,SEN5_3V3*%
X15101700Y35505000D03*
%TO.P,U1,46,PB9*%
%TO.N,SEN4_3V3*%
X15601700Y35505000D03*
%TO.P,U1,47,VSS*%
%TO.N,GND*%
X16101700Y35505000D03*
%TO.P,U1,48,VDD*%
%TO.N,+3V3*%
X16601700Y35505000D03*
%TD*%
D21*
%TO.P,C52,1*%
%TO.N,+5V*%
X43101700Y46755000D03*
%TO.P,C52,2*%
%TO.N,GND*%
X44826700Y46755000D03*
%TD*%
D22*
%TO.P,C4,1*%
%TO.N,VBAT*%
X28665213Y46365567D03*
%TO.P,C4,2*%
%TO.N,GND*%
X28665213Y43240567D03*
%TD*%
D23*
%TO.P,C71,1*%
%TO.N,+1V8*%
X53795500Y32005000D03*
%TO.P,C71,2*%
%TO.N,GND*%
X54930500Y32005000D03*
%TD*%
D21*
%TO.P,C41,1*%
%TO.N,VBAT*%
X41700368Y38394182D03*
%TO.P,C41,2*%
%TO.N,GND*%
X43425368Y38394182D03*
%TD*%
D24*
%TO.P,SW_RESET2,1,1*%
%TO.N,Net-(R53-Pad1)*%
X19047400Y18480600D03*
D25*
%TO.P,SW_RESET2,2,2*%
%TO.N,~{STM_NRST}*%
X19047400Y22480600D03*
%TD*%
D16*
%TO.P,R62,1*%
%TO.N,GND*%
X28004638Y35716348D03*
%TO.P,R62,2*%
%TO.N,Net-(U5-MODE)*%
X29199638Y35716348D03*
%TD*%
D26*
%TO.P,J9,1,Pin_1*%
%TO.N,VBAT*%
X32601700Y47255000D03*
D14*
%TO.P,J9,2,Pin_2*%
%TO.N,GND*%
X32601700Y44755000D03*
%TD*%
D23*
%TO.P,C17,1*%
%TO.N,~{STM_NRST}*%
X19784200Y31505000D03*
%TO.P,C17,2*%
%TO.N,GND*%
X20919200Y31505000D03*
%TD*%
D27*
%TO.P,R3,1*%
%TO.N,Net-(D1-K)*%
X89708300Y38768600D03*
%TO.P,R3,2*%
%TO.N,GND*%
X87883300Y38768600D03*
%TD*%
D28*
%TO.P,C18,1*%
%TO.N,+3V3*%
X17849077Y36107073D03*
%TO.P,C18,2*%
%TO.N,GND*%
X17849077Y37832073D03*
%TD*%
D23*
%TO.P,C36,1*%
%TO.N,Net-(C36-Pad1)*%
X28034638Y32711864D03*
%TO.P,C36,2*%
%TO.N,Net-(U5-SW)*%
X29169638Y32711864D03*
%TD*%
D29*
%TO.P,C45,1*%
%TO.N,+3V3*%
X41601700Y24867500D03*
%TO.P,C45,2*%
%TO.N,GND*%
X41601700Y23142500D03*
%TD*%
D30*
%TO.P,R58,1*%
%TO.N,Net-(D4-A)*%
X53460500Y46432400D03*
%TO.P,R58,2*%
%TO.N,+3V3*%
X52265500Y46432400D03*
%TD*%
D18*
%TO.P,C3,1*%
%TO.N,+3V3*%
X35900000Y7679000D03*
%TO.P,C3,2*%
%TO.N,GND*%
X37450000Y7679000D03*
%TD*%
D31*
%TO.P,J11,1,VTref*%
%TO.N,+1V8*%
X23213000Y17425000D03*
%TO.P,J11,2,SWDIO/TMS*%
%TO.N,BHI_SWDIO*%
X27113000Y17425000D03*
%TO.P,J11,3,GND*%
%TO.N,GND*%
X23213000Y18695000D03*
%TO.P,J11,4,SWCLK/TCK*%
%TO.N,BHI_SWDCLK*%
X27113000Y18695000D03*
%TO.P,J11,5,GND*%
%TO.N,GND*%
X23213000Y19965000D03*
%TO.P,J11,6,SWO/TDO*%
%TO.N,unconnected-(J11-SWO{slash}TDO-Pad6)*%
X27113000Y19965000D03*
%TO.P,J11,7,KEY*%
%TO.N,unconnected-(J11-KEY-Pad7)*%
X23213000Y21235000D03*
%TO.P,J11,8,NC/TDI*%
%TO.N,unconnected-(J11-NC{slash}TDI-Pad8)*%
X27113000Y21235000D03*
%TO.P,J11,9,GNDDetect*%
%TO.N,GND*%
X23213000Y22505000D03*
%TO.P,J11,10,~{RESET}*%
%TO.N,BHI_RSTQ*%
X27113000Y22505000D03*
%TD*%
D32*
%TO.P,R13,1*%
%TO.N,SIG_KILL*%
X83969800Y41708100D03*
%TO.P,R13,2*%
%TO.N,Net-(R13-Pad2)*%
X83969800Y40513100D03*
%TD*%
D33*
%TO.P,C22,1*%
%TO.N,Net-(C22-Pad1)*%
X25101700Y32120000D03*
%TO.P,C22,2*%
%TO.N,GND*%
X25101700Y33255000D03*
%TD*%
D34*
%TO.P,U5,1,PG/SS*%
%TO.N,PG_3V3*%
X32102138Y35461864D03*
%TO.P,U5,2,VIN*%
%TO.N,VBAT*%
X32102138Y34961864D03*
%TO.P,U5,3,SW*%
%TO.N,Net-(U5-SW)*%
X32102138Y34461864D03*
%TO.P,U5,4,GND*%
%TO.N,GND*%
X32102138Y33961864D03*
%TO.P,U5,5,BOOT*%
%TO.N,Net-(U5-BOOT)*%
X30622138Y33961864D03*
%TO.P,U5,6,EN*%
%TO.N,Net-(U5-EN)*%
X30622138Y34461864D03*
%TO.P,U5,7,MODE*%
%TO.N,Net-(U5-MODE)*%
X30622138Y34961864D03*
%TO.P,U5,8,FB*%
%TO.N,Net-(U5-FB)*%
X30622138Y35461864D03*
%TD*%
D35*
%TO.P,Q4,1,E1*%
%TO.N,GND*%
X13121781Y45238585D03*
%TO.P,Q4,2,B1*%
%TO.N,SEN7*%
X13121781Y44588585D03*
%TO.P,Q4,3,C2*%
%TO.N,Net-(Q4B-C2)*%
X13121781Y43938585D03*
%TO.P,Q4,4,E2*%
%TO.N,GND*%
X11221781Y43938585D03*
%TO.P,Q4,5,B2*%
%TO.N,SEN8*%
X11221781Y44588585D03*
%TO.P,Q4,6,C1*%
%TO.N,Net-(Q4A-C1)*%
X11221781Y45238585D03*
%TD*%
D33*
%TO.P,C59,1*%
%TO.N,Net-(U9-VPP)*%
X76175000Y33317500D03*
%TO.P,C59,2*%
%TO.N,GND*%
X76175000Y34452500D03*
%TD*%
D36*
%TO.P,RN1,1,R1.1*%
%TO.N,GND*%
X6001700Y18505000D03*
%TO.P,RN1,2,R2.1*%
%TO.N,Net-(Q1A-C1)*%
X6801700Y18505000D03*
%TO.P,RN1,3,R3.1*%
%TO.N,GND*%
X7601700Y18505000D03*
%TO.P,RN1,4,R4.1*%
%TO.N,Net-(Q1B-C2)*%
X8401700Y18505000D03*
%TO.P,RN1,5,R4.2*%
%TO.N,+3V3*%
X8401700Y16805000D03*
%TO.P,RN1,6,R3.2*%
%TO.N,SEN2*%
X7601700Y16805000D03*
%TO.P,RN1,7,R2.2*%
%TO.N,+3V3*%
X6801700Y16805000D03*
%TO.P,RN1,8,R1.2*%
%TO.N,SEN1*%
X6001700Y16805000D03*
%TD*%
D37*
%TO.P,Q3,1,E1*%
%TO.N,GND*%
X14030865Y20029845D03*
%TO.P,Q3,2,B1*%
%TO.N,SEN5*%
X14030865Y20679845D03*
%TO.P,Q3,3,C2*%
%TO.N,Net-(Q3B-C2)*%
X14030865Y21329845D03*
%TO.P,Q3,4,E2*%
%TO.N,GND*%
X15930865Y21329845D03*
%TO.P,Q3,5,B2*%
%TO.N,SEN6*%
X15930865Y20679845D03*
%TO.P,Q3,6,C1*%
%TO.N,Net-(Q3A-C1)*%
X15930865Y20029845D03*
%TD*%
D23*
%TO.P,C72,1*%
%TO.N,+1V8*%
X53795500Y30755000D03*
%TO.P,C72,2*%
%TO.N,GND*%
X54930500Y30755000D03*
%TD*%
D38*
%TO.P,C74,1*%
%TO.N,Net-(U13-VREG)*%
X49945000Y28082500D03*
%TO.P,C74,2*%
%TO.N,GND*%
X49945000Y26947500D03*
%TD*%
D36*
%TO.P,RN5,1,R1.1*%
%TO.N,SEN5_3V3*%
X13362976Y40673576D03*
%TO.P,RN5,2,R2.1*%
%TO.N,SEN6_3V3*%
X12562976Y40673576D03*
%TO.P,RN5,3,R3.1*%
%TO.N,SEN7_3V3*%
X11762976Y40673576D03*
%TO.P,RN5,4,R4.1*%
%TO.N,SEN8_3V3*%
X10962976Y40673576D03*
%TO.P,RN5,5,R4.2*%
%TO.N,Net-(Q4B-C2)*%
X10962976Y42373576D03*
%TO.P,RN5,6,R3.2*%
%TO.N,Net-(Q4A-C1)*%
X11762976Y42373576D03*
%TO.P,RN5,7,R2.2*%
%TO.N,Net-(Q3B-C2)*%
X12562976Y42373576D03*
%TO.P,RN5,8,R1.2*%
%TO.N,Net-(Q3A-C1)*%
X13362976Y42373576D03*
%TD*%
D39*
%TO.P,C20,1*%
%TO.N,Net-(U1-VCAP)*%
X11651462Y25324412D03*
%TO.P,C20,2*%
%TO.N,GND*%
X9926462Y25324412D03*
%TD*%
D15*
%TO.P,J4,1,Pin_1*%
%TO.N,SEN1*%
X2077000Y2599000D03*
D11*
%TO.P,J4,2,Pin_2*%
%TO.N,SEN2*%
X4577000Y2599000D03*
%TO.P,J4,3,Pin_3*%
%TO.N,SEN3*%
X7077000Y2599000D03*
%TO.P,J4,4,Pin_4*%
%TO.N,SEN4*%
X9577000Y2599000D03*
%TO.P,J4,5,Pin_5*%
%TO.N,SEN5*%
X12077000Y2599000D03*
%TO.P,J4,6,Pin_6*%
%TO.N,SEN6*%
X14577000Y2599000D03*
%TD*%
D29*
%TO.P,C15,1*%
%TO.N,+3V3*%
X21198566Y26713507D03*
%TO.P,C15,2*%
%TO.N,GND*%
X21198566Y24988507D03*
%TD*%
D21*
%TO.P,C31,1*%
%TO.N,VBAT*%
X34739638Y35711864D03*
%TO.P,C31,2*%
%TO.N,GND*%
X36464638Y35711864D03*
%TD*%
D40*
%TO.P,C6,1*%
%TO.N,VBAT*%
X29452800Y48379957D03*
%TO.P,C6,2*%
%TO.N,GND*%
X27377800Y48379957D03*
%TD*%
D21*
%TO.P,C32,1*%
%TO.N,VBAT*%
X34751195Y34164956D03*
%TO.P,C32,2*%
%TO.N,GND*%
X36476195Y34164956D03*
%TD*%
D36*
%TO.P,RN2,1,R1.1*%
%TO.N,SEN1_3V3*%
X13201700Y24557292D03*
%TO.P,RN2,2,R2.1*%
%TO.N,SEN2_3V3*%
X14001700Y24557292D03*
%TO.P,RN2,3,R3.1*%
%TO.N,SEN3_3V3*%
X14801700Y24557292D03*
%TO.P,RN2,4,R4.1*%
%TO.N,SEN4_3V3*%
X15601700Y24557292D03*
%TO.P,RN2,5,R4.2*%
%TO.N,Net-(Q2B-C2)*%
X15601700Y22857292D03*
%TO.P,RN2,6,R3.2*%
%TO.N,Net-(Q2A-C1)*%
X14801700Y22857292D03*
%TO.P,RN2,7,R2.2*%
%TO.N,Net-(Q1B-C2)*%
X14001700Y22857292D03*
%TO.P,RN2,8,R1.2*%
%TO.N,Net-(Q1A-C1)*%
X13201700Y22857292D03*
%TD*%
D38*
%TO.P,C38,1*%
%TO.N,Net-(C38-Pad1)*%
X29520446Y37910204D03*
%TO.P,C38,2*%
%TO.N,Net-(U5-FB)*%
X29520446Y36775204D03*
%TD*%
D16*
%TO.P,R12,1*%
%TO.N,OPTO2*%
X93156700Y25755000D03*
%TO.P,R12,2*%
%TO.N,V_MOTOR*%
X94351700Y25755000D03*
%TD*%
D41*
%TO.P,C10,1*%
%TO.N,+3V3*%
X45851700Y59755000D03*
%TO.P,C10,2*%
%TO.N,GND*%
X44301700Y59755000D03*
%TD*%
D16*
%TO.P,R71,1*%
%TO.N,Net-(J8-CC2)*%
X92253139Y34033952D03*
%TO.P,R71,2*%
%TO.N,GND*%
X93448139Y34033952D03*
%TD*%
D29*
%TO.P,C63,1*%
%TO.N,+1V8*%
X43601700Y19005000D03*
%TO.P,C63,2*%
%TO.N,GND*%
X43601700Y17280000D03*
%TD*%
D25*
%TO.P,SW_RESET1,1,1*%
%TO.N,Net-(R59-Pad1)*%
X77365800Y45645400D03*
D24*
%TO.P,SW_RESET1,2,2*%
%TO.N,ESP_EN*%
X77365800Y41645400D03*
%TD*%
D10*
%TO.P,J5,1,Pin_1*%
%TO.N,SEN7*%
X14537000Y62935000D03*
D11*
%TO.P,J5,2,Pin_2*%
%TO.N,SEN8*%
X12037000Y62935000D03*
%TO.P,J5,3,Pin_3*%
%TO.N,SEN9*%
X9537000Y62935000D03*
%TO.P,J5,4,Pin_4*%
%TO.N,SEN10*%
X7037000Y62935000D03*
%TO.P,J5,5,Pin_5*%
%TO.N,SEN11*%
X4537000Y62935000D03*
%TO.P,J5,6,Pin_6*%
%TO.N,SEN12*%
X2037000Y62935000D03*
%TD*%
D32*
%TO.P,R60,1*%
%TO.N,GND*%
X32226553Y37792849D03*
%TO.P,R60,2*%
%TO.N,PG_3V3*%
X32226553Y36597849D03*
%TD*%
D21*
%TO.P,C21,1*%
%TO.N,+3V3*%
X19449490Y35293945D03*
%TO.P,C21,2*%
%TO.N,GND*%
X21174490Y35293945D03*
%TD*%
D18*
%TO.P,C9,1*%
%TO.N,+3V3*%
X47551700Y59755000D03*
%TO.P,C9,2*%
%TO.N,GND*%
X49101700Y59755000D03*
%TD*%
D37*
%TO.P,Q2,1,E1*%
%TO.N,GND*%
X10101700Y20005000D03*
%TO.P,Q2,2,B1*%
%TO.N,SEN3*%
X10101700Y20655000D03*
%TO.P,Q2,3,C2*%
%TO.N,Net-(Q2B-C2)*%
X10101700Y21305000D03*
%TO.P,Q2,4,E2*%
%TO.N,GND*%
X12001700Y21305000D03*
%TO.P,Q2,5,B2*%
%TO.N,SEN4*%
X12001700Y20655000D03*
%TO.P,Q2,6,C1*%
%TO.N,Net-(Q2A-C1)*%
X12001700Y20005000D03*
%TD*%
D28*
%TO.P,C53,1*%
%TO.N,+5V*%
X76738574Y28205255D03*
%TO.P,C53,2*%
%TO.N,GND*%
X76738574Y29930255D03*
%TD*%
D42*
%TO.P,U12,1,IN*%
%TO.N,+3V3*%
X39601700Y19255000D03*
%TO.P,U12,2,GND*%
%TO.N,GND*%
X39601700Y20205000D03*
%TO.P,U12,3,EN*%
%TO.N,+3V3*%
X39601700Y21155000D03*
%TO.P,U12,4,BP*%
%TO.N,Net-(U12-BP)*%
X41876700Y21155000D03*
%TO.P,U12,5,OUT*%
%TO.N,+1V8*%
X41876700Y19255000D03*
%TD*%
D43*
%TO.P,J15,1,Pin_1*%
%TO.N,+3V3*%
X66901000Y44798200D03*
%TO.P,J15,2,Pin_2*%
%TO.N,RGB_LED*%
X65631000Y47798200D03*
%TO.P,J15,3,Pin_3*%
%TO.N,unconnected-(J15-Pin_3-Pad3)*%
X64361000Y44798200D03*
%TO.P,J15,4,Pin_4*%
%TO.N,GND*%
X63091000Y47798200D03*
%TD*%
D38*
%TO.P,C33,1*%
%TO.N,VBAT*%
X33324849Y34920489D03*
%TO.P,C33,2*%
%TO.N,GND*%
X33324849Y33785489D03*
%TD*%
D29*
%TO.P,C29,1*%
%TO.N,+3V3*%
X53851700Y24642500D03*
%TO.P,C29,2*%
%TO.N,GND*%
X53851700Y22917500D03*
%TD*%
D39*
%TO.P,C16,1*%
%TO.N,+3V3*%
X9836376Y26835410D03*
%TO.P,C16,2*%
%TO.N,GND*%
X8111376Y26835410D03*
%TD*%
D23*
%TO.P,C58,1*%
%TO.N,VUSB*%
X80317500Y30135000D03*
%TO.P,C58,2*%
%TO.N,GND*%
X81452500Y30135000D03*
%TD*%
D36*
%TO.P,RN6,1,R1.1*%
%TO.N,GND*%
X13401700Y46755000D03*
%TO.P,RN6,2,R2.1*%
%TO.N,Net-(Q4A-C1)*%
X12601700Y46755000D03*
%TO.P,RN6,3,R3.1*%
%TO.N,GND*%
X11801700Y46755000D03*
%TO.P,RN6,4,R4.1*%
%TO.N,Net-(Q4B-C2)*%
X11001700Y46755000D03*
%TO.P,RN6,5,R4.2*%
%TO.N,+3V3*%
X11001700Y48455000D03*
%TO.P,RN6,6,R3.2*%
%TO.N,SEN8*%
X11801700Y48455000D03*
%TO.P,RN6,7,R2.2*%
%TO.N,+3V3*%
X12601700Y48455000D03*
%TO.P,RN6,8,R1.2*%
%TO.N,SEN7*%
X13401700Y48455000D03*
%TD*%
D44*
%TO.P,L1,1*%
%TO.N,Net-(U5-SW)*%
X30663000Y27919701D03*
%TO.P,L1,2*%
%TO.N,+3V3*%
X39613000Y27919701D03*
%TD*%
D30*
%TO.P,R57,1*%
%TO.N,Net-(D3-A)*%
X53460500Y48369800D03*
%TO.P,R57,2*%
%TO.N,+3V3*%
X52265500Y48369800D03*
%TD*%
D42*
%TO.P,U6,1,IN*%
%TO.N,VBAT*%
X38826700Y46855000D03*
%TO.P,U6,2,GND*%
%TO.N,GND*%
X38826700Y47805000D03*
%TO.P,U6,3,EN*%
%TO.N,VBAT*%
X38826700Y48755000D03*
%TO.P,U6,4,BP*%
%TO.N,Net-(U6-BP)*%
X41101700Y48755000D03*
%TO.P,U6,5,OUT*%
%TO.N,+5V*%
X41101700Y46855000D03*
%TD*%
D36*
%TO.P,RN8,1,R1.1*%
%TO.N,SEN9_3V3*%
X3939000Y40699800D03*
%TO.P,RN8,2,R2.1*%
%TO.N,SEN10_3V3*%
X3139000Y40699800D03*
%TO.P,RN8,3,R3.1*%
%TO.N,SEN11_3V3*%
X2339000Y40699800D03*
%TO.P,RN8,4,R4.1*%
%TO.N,SEN12_3V3*%
X1539000Y40699800D03*
%TO.P,RN8,5,R4.2*%
%TO.N,Net-(Q6B-C2)*%
X1539000Y42399800D03*
%TO.P,RN8,6,R3.2*%
%TO.N,Net-(Q6A-C1)*%
X2339000Y42399800D03*
%TO.P,RN8,7,R2.2*%
%TO.N,Net-(Q5B-C2)*%
X3139000Y42399800D03*
%TO.P,RN8,8,R1.2*%
%TO.N,Net-(Q5A-C1)*%
X3939000Y42399800D03*
%TD*%
D38*
%TO.P,C73,1*%
%TO.N,+1V8*%
X48865000Y28092500D03*
%TO.P,C73,2*%
%TO.N,GND*%
X48865000Y26957500D03*
%TD*%
D15*
%TO.P,J10,1,Pin_1*%
%TO.N,+3V3*%
X19095000Y2599000D03*
D11*
%TO.P,J10,2,Pin_2*%
%TO.N,COL1*%
X21595000Y2599000D03*
%TO.P,J10,3,Pin_3*%
%TO.N,COL2*%
X24095000Y2599000D03*
%TO.P,J10,4,Pin_4*%
%TO.N,COL3*%
X26595000Y2599000D03*
%TO.P,J10,5,Pin_5*%
%TO.N,COL4*%
X29095000Y2599000D03*
%TO.P,J10,6,Pin_6*%
%TO.N,GND*%
X31595000Y2599000D03*
%TD*%
D29*
%TO.P,C46,1*%
%TO.N,VBAT*%
X40113000Y37367500D03*
%TO.P,C46,2*%
%TO.N,GND*%
X40113000Y35642500D03*
%TD*%
D45*
%TO.P,Q13,1,E1*%
%TO.N,ESP_RTS*%
X79765000Y37485000D03*
%TO.P,Q13,2,B1*%
%TO.N,ESP_DTR*%
X79115000Y37485000D03*
%TO.P,Q13,3,C2*%
X78465000Y37485000D03*
%TO.P,Q13,4,E2*%
%TO.N,GPIO0*%
X78465000Y39385000D03*
%TO.P,Q13,5,B2*%
%TO.N,ESP_RTS*%
X79115000Y39385000D03*
%TO.P,Q13,6,C1*%
%TO.N,ESP_EN*%
X79765000Y39385000D03*
%TD*%
D27*
%TO.P,R4,1*%
%TO.N,Net-(D2-K)*%
X89708300Y26755000D03*
%TO.P,R4,2*%
%TO.N,GND*%
X87883300Y26755000D03*
%TD*%
D15*
%TO.P,J13,1,Pin_1*%
%TO.N,+3V3*%
X36191000Y2599000D03*
D11*
%TO.P,J13,2,Pin_2*%
%TO.N,LIFT1*%
X38691000Y2599000D03*
%TO.P,J13,3,Pin_3*%
%TO.N,LIFT2*%
X41191000Y2599000D03*
%TO.P,J13,4,Pin_4*%
%TO.N,LIFT3*%
X43691000Y2599000D03*
%TO.P,J13,5,Pin_5*%
%TO.N,LIFT4*%
X46191000Y2599000D03*
%TO.P,J13,6,Pin_6*%
%TO.N,GND*%
X48691000Y2599000D03*
%TD*%
D46*
%TO.P,U13,1,M3_SDA*%
%TO.N,unconnected-(U13-M3_SDA-Pad1)*%
X52125000Y29315000D03*
%TO.P,U13,2,M3_SCL*%
%TO.N,unconnected-(U13-M3_SCL-Pad2)*%
X51725000Y29315000D03*
%TO.P,U13,3,HOSTBOOT*%
%TO.N,Net-(U13-HOSTBOOT)*%
X51325000Y29315000D03*
%TO.P,U13,4,QSPI_D0*%
%TO.N,unconnected-(U13-QSPI_D0-Pad4)*%
X50925000Y29315000D03*
%TO.P,U13,5,QSPI_CLK*%
%TO.N,unconnected-(U13-QSPI_CLK-Pad5)*%
X50525000Y29315000D03*
%TO.P,U13,6,VREG*%
%TO.N,Net-(U13-VREG)*%
X50125000Y29315000D03*
%TO.P,U13,7,VDDIO*%
%TO.N,+1V8*%
X49725000Y29315000D03*
%TO.P,U13,8,QSPI_D3*%
%TO.N,unconnected-(U13-QSPI_D3-Pad8)*%
X49325000Y29315000D03*
D47*
%TO.P,U13,9,RESET*%
%TO.N,BHI_RSTQ*%
X48890000Y29900000D03*
%TO.P,U13,10,HIRQ*%
%TO.N,BHI_HIRQ*%
X48890000Y30300000D03*
%TO.P,U13,11,HSDX*%
%TO.N,BHI_MOSI*%
X48890000Y30700000D03*
%TO.P,U13,12,VDDIO*%
%TO.N,+1V8*%
X48890000Y31100000D03*
%TO.P,U13,13,M2_SCX*%
%TO.N,unconnected-(U13-M2_SCX-Pad13)*%
X48890000Y31500000D03*
%TO.P,U13,14,QSPI_CS*%
%TO.N,unconnected-(U13-QSPI_CS-Pad14)*%
X48890000Y31900000D03*
D46*
%TO.P,U13,15,QSPI_D1*%
%TO.N,unconnected-(U13-QSPI_D1-Pad15)*%
X49325000Y32485000D03*
%TO.P,U13,16,MCSB3*%
%TO.N,unconnected-(U13-MCSB3-Pad16)*%
X49725000Y32485000D03*
%TO.P,U13,17,GNDIO*%
%TO.N,GND*%
X50125000Y32485000D03*
%TO.P,U13,18,MCSB2*%
%TO.N,unconnected-(U13-MCSB2-Pad18)*%
X50525000Y32485000D03*
%TO.P,U13,19,MCSB4*%
%TO.N,unconnected-(U13-MCSB4-Pad19)*%
X50925000Y32485000D03*
%TO.P,U13,20,QSPI_D2*%
%TO.N,unconnected-(U13-QSPI_D2-Pad20)*%
X51325000Y32485000D03*
%TO.P,U13,21,OCSB*%
%TO.N,unconnected-(U13-OCSB-Pad21)*%
X51725000Y32485000D03*
%TO.P,U13,22,ASCX*%
%TO.N,unconnected-(U13-ASCX-Pad22)*%
X52125000Y32485000D03*
D47*
%TO.P,U13,23,JTAG_CLK*%
%TO.N,BHI_SWDCLK*%
X52560000Y31900000D03*
%TO.P,U13,24,JTAG_DIO*%
%TO.N,BHI_SWDIO*%
X52560000Y31500000D03*
%TO.P,U13,25,GND*%
%TO.N,GND*%
X52560000Y31100000D03*
%TO.P,U13,26,GND*%
X52560000Y30700000D03*
%TO.P,U13,27,GND*%
X52560000Y30300000D03*
%TO.P,U13,28,VDD*%
%TO.N,+1V8*%
X52560000Y29900000D03*
D48*
%TO.P,U13,29,M1_SCX*%
%TO.N,unconnected-(U13-M1_SCX-Pad29)*%
X51525000Y30115000D03*
D46*
%TO.P,U13,30,ASDX*%
%TO.N,unconnected-(U13-ASDX-Pad30)*%
X51125000Y30115000D03*
%TO.P,U13,31,RESERVED*%
%TO.N,unconnected-(U13-RESERVED-Pad31)*%
X50725000Y30115000D03*
%TO.P,U13,32,HSDO*%
%TO.N,BHI_MISO*%
X50325000Y30115000D03*
D49*
%TO.P,U13,33,HSCX*%
%TO.N,BHI_SCLK*%
X49925000Y30115000D03*
D50*
%TO.P,U13,34,HCSB*%
%TO.N,BHI_CS*%
X49540000Y30500000D03*
D47*
%TO.P,U13,35,M2_SDX*%
%TO.N,unconnected-(U13-M2_SDX-Pad35)*%
X49540000Y30900000D03*
D51*
%TO.P,U13,36,GNDIO*%
%TO.N,GND*%
X49540000Y31300000D03*
D52*
%TO.P,U13,37,M2_SDI*%
%TO.N,unconnected-(U13-M2_SDI-Pad37)*%
X49925000Y31685000D03*
D46*
%TO.P,U13,38,MCSB1*%
%TO.N,unconnected-(U13-MCSB1-Pad38)*%
X50325000Y31685000D03*
%TO.P,U13,39,OSDO*%
%TO.N,unconnected-(U13-OSDO-Pad39)*%
X50725000Y31685000D03*
%TO.P,U13,40,RESERVED*%
%TO.N,unconnected-(U13-RESERVED-Pad40)*%
X51125000Y31685000D03*
D53*
%TO.P,U13,41,RESERVED*%
%TO.N,unconnected-(U13-RESERVED-Pad41)*%
X51525000Y31685000D03*
D54*
%TO.P,U13,42,VDDIO*%
%TO.N,+1V8*%
X51910000Y31300000D03*
D47*
%TO.P,U13,43,M1_SDI*%
%TO.N,unconnected-(U13-M1_SDI-Pad43)*%
X51910000Y30900000D03*
D55*
%TO.P,U13,44,M1_SDX*%
%TO.N,unconnected-(U13-M1_SDX-Pad44)*%
X51910000Y30500000D03*
%TD*%
D56*
%TO.P,J1,1,Pin_1*%
%TO.N,GND*%
X19991000Y62035000D03*
D57*
%TO.P,J1,2,Pin_2*%
%TO.N,V_IN*%
X24991000Y62035000D03*
%TD*%
D21*
%TO.P,C75,1*%
%TO.N,Net-(D5-A)*%
X23569700Y42755000D03*
%TO.P,C75,2*%
%TO.N,GND*%
X25294700Y42755000D03*
%TD*%
D37*
%TO.P,Q1,1,E1*%
%TO.N,GND*%
X6200000Y20005000D03*
%TO.P,Q1,2,B1*%
%TO.N,SEN1*%
X6200000Y20655000D03*
%TO.P,Q1,3,C2*%
%TO.N,Net-(Q1B-C2)*%
X6200000Y21305000D03*
%TO.P,Q1,4,E2*%
%TO.N,GND*%
X8100000Y21305000D03*
%TO.P,Q1,5,B2*%
%TO.N,SEN2*%
X8100000Y20655000D03*
%TO.P,Q1,6,C1*%
%TO.N,Net-(Q1A-C1)*%
X8100000Y20005000D03*
%TD*%
D58*
%TO.P,U15,1*%
%TO.N,Net-(R13-Pad2)*%
X78351700Y17661200D03*
%TO.P,U15,2*%
%TO.N,GND*%
X78351700Y18931200D03*
%TO.P,U15,3*%
%TO.N,GND_MOTOR*%
X84851700Y18931200D03*
%TO.P,U15,4*%
%TO.N,OPTO2*%
X84851700Y17661200D03*
%TD*%
D59*
%TO.P,Q7,1,G*%
%TO.N,Net-(D5-A)*%
X23726700Y45805000D03*
%TO.P,Q7,2,S*%
%TO.N,VBAT*%
X23726700Y47705000D03*
%TO.P,Q7,3,D*%
%TO.N,V_IN*%
X25601700Y46755000D03*
%TD*%
D60*
%TO.P,Y1,1,1*%
%TO.N,HSE_OSC_OUT*%
X23825000Y32585000D03*
%TO.P,Y1,2,2*%
%TO.N,Net-(C22-Pad1)*%
X22425000Y32585000D03*
%TO.P,Y1,3,3*%
%TO.N,HSE_OSC_IN*%
X22425000Y33685000D03*
%TO.P,Y1,4,4*%
%TO.N,Net-(C19-Pad1)*%
X23825000Y33685000D03*
%TD*%
D61*
%TO.P,R65,1*%
%TO.N,Net-(R64-Pad1)*%
X30863000Y39245000D03*
%TO.P,R65,2*%
%TO.N,+3V3*%
X30863000Y40265000D03*
%TD*%
D32*
%TO.P,R5,1*%
%TO.N,SIG_RUN*%
X83969800Y45208100D03*
%TO.P,R5,2*%
%TO.N,Net-(R5-Pad2)*%
X83969800Y44013100D03*
%TD*%
D17*
%TO.P,R6,1*%
%TO.N,+1V8*%
X51407000Y26917500D03*
%TO.P,R6,2*%
%TO.N,Net-(U13-HOSTBOOT)*%
X51407000Y28112500D03*
%TD*%
D32*
%TO.P,R64,1*%
%TO.N,Net-(R64-Pad1)*%
X29520446Y40208903D03*
%TO.P,R64,2*%
%TO.N,Net-(C38-Pad1)*%
X29520446Y39013903D03*
%TD*%
D62*
%TO.P,C40,1*%
%TO.N,VBAT*%
X37201700Y40005000D03*
%TO.P,C40,2*%
%TO.N,GND*%
X33601700Y40005000D03*
%TD*%
D29*
%TO.P,C23,1*%
%TO.N,+3V3*%
X19601700Y26730000D03*
%TO.P,C23,2*%
%TO.N,GND*%
X19601700Y25005000D03*
%TD*%
%TO.P,C35,1*%
%TO.N,VBAT*%
X38601700Y38117500D03*
%TO.P,C35,2*%
%TO.N,GND*%
X38601700Y36392500D03*
%TD*%
D10*
%TO.P,J12,1,Pin_1*%
%TO.N,+3V3*%
X47601700Y62935000D03*
D11*
%TO.P,J12,2,Pin_2*%
%TO.N,Net-(J12-Pin_2)*%
X45101700Y62935000D03*
%TO.P,J12,3,Pin_3*%
%TO.N,Net-(J12-Pin_3)*%
X42601700Y62935000D03*
%TO.P,J12,4,Pin_4*%
%TO.N,Net-(J12-Pin_4)*%
X40101700Y62935000D03*
%TO.P,J12,5,Pin_5*%
%TO.N,PMW_CS1*%
X37601700Y62935000D03*
%TO.P,J12,6,Pin_6*%
%TO.N,PMW_CS2*%
X35101700Y62935000D03*
%TO.P,J12,7,Pin_7*%
%TO.N,PMW_RESET*%
X32601700Y62935000D03*
%TO.P,J12,8,Pin_8*%
%TO.N,GND*%
X30101700Y62935000D03*
%TD*%
D21*
%TO.P,R68,1*%
%TO.N,CAN_H*%
X96876700Y27005000D03*
%TO.P,R68,2*%
%TO.N,Net-(C55-Pad2)*%
X98601700Y27005000D03*
%TD*%
D30*
%TO.P,R8,1*%
%TO.N,PMW_MISO*%
X50635000Y48345000D03*
%TO.P,R8,2*%
%TO.N,Net-(J12-Pin_3)*%
X49440000Y48345000D03*
%TD*%
D28*
%TO.P,C39,1*%
%TO.N,VBAT*%
X85443000Y40293700D03*
%TO.P,C39,2*%
%TO.N,GND*%
X85443000Y42018700D03*
%TD*%
D37*
%TO.P,Q5,1,E1*%
%TO.N,GND*%
X6201700Y43947800D03*
%TO.P,Q5,2,B1*%
%TO.N,SEN9*%
X6201700Y44597800D03*
%TO.P,Q5,3,C2*%
%TO.N,Net-(Q5B-C2)*%
X6201700Y45247800D03*
%TO.P,Q5,4,E2*%
%TO.N,GND*%
X8101700Y45247800D03*
%TO.P,Q5,5,B2*%
%TO.N,SEN10*%
X8101700Y44597800D03*
%TO.P,Q5,6,C1*%
%TO.N,Net-(Q5A-C1)*%
X8101700Y43947800D03*
%TD*%
D17*
%TO.P,R16,1*%
%TO.N,STM_BOOT*%
X14613000Y37060000D03*
%TO.P,R16,2*%
%TO.N,GND*%
X14613000Y38255000D03*
%TD*%
D63*
%TO.P,R14,1*%
%TO.N,VBAT*%
X17601700Y47667500D03*
%TO.P,R14,2*%
%TO.N,ADC_V_IN*%
X17601700Y45842500D03*
%TD*%
D64*
%TO.P,FB1,1*%
%TO.N,+3V3*%
X23314600Y24928200D03*
%TO.P,FB1,2*%
%TO.N,+3.3VA*%
X23314600Y26678200D03*
%TD*%
D33*
%TO.P,C12,1*%
%TO.N,+3V3*%
X38101700Y20687500D03*
%TO.P,C12,2*%
%TO.N,GND*%
X38101700Y21822500D03*
%TD*%
D65*
%TO.P,U8,1,I/O1*%
%TO.N,USB_CONN_D+*%
X85560000Y34985000D03*
%TO.P,U8,2,GND*%
%TO.N,GND*%
X85560000Y34035000D03*
%TO.P,U8,3,I/O2*%
%TO.N,USB_CONN_D-*%
X85560000Y33085000D03*
%TO.P,U8,4,I/O2*%
%TO.N,DEBUG_USB-*%
X83285000Y33085000D03*
%TO.P,U8,5,VBUS*%
%TO.N,VUSB*%
X83285000Y34035000D03*
%TO.P,U8,6,I/O1*%
%TO.N,DEBUG_USB+*%
X83285000Y34985000D03*
%TD*%
D17*
%TO.P,R59,1*%
%TO.N,Net-(R59-Pad1)*%
X53394700Y17157500D03*
%TO.P,R59,2*%
%TO.N,GND*%
X53394700Y18352500D03*
%TD*%
D33*
%TO.P,C13,1*%
%TO.N,+1V8*%
X54219982Y36989210D03*
%TO.P,C13,2*%
%TO.N,GND*%
X54219982Y38124210D03*
%TD*%
D41*
%TO.P,C2,1*%
%TO.N,+3V3*%
X95351700Y45005000D03*
%TO.P,C2,2*%
%TO.N,GND*%
X93801700Y45005000D03*
%TD*%
D27*
%TO.P,R11,1*%
%TO.N,GND*%
X25351700Y44255000D03*
%TO.P,R11,2*%
%TO.N,Net-(D5-A)*%
X23526700Y44255000D03*
%TD*%
D29*
%TO.P,C34,1*%
%TO.N,VBAT*%
X19101700Y47617500D03*
%TO.P,C34,2*%
%TO.N,GND*%
X19101700Y45892500D03*
%TD*%
D66*
%TO.P,C44,1*%
%TO.N,VBAT*%
X38789200Y44255000D03*
%TO.P,C44,2*%
%TO.N,GND*%
X41914200Y44255000D03*
%TD*%
D41*
%TO.P,C50,1*%
%TO.N,+3V3*%
X17601700Y7679000D03*
%TO.P,C50,2*%
%TO.N,GND*%
X16051700Y7679000D03*
%TD*%
D66*
%TO.P,C42,1*%
%TO.N,VBAT*%
X39789200Y40755000D03*
%TO.P,C42,2*%
%TO.N,GND*%
X42914200Y40755000D03*
%TD*%
D17*
%TO.P,R56,1*%
%TO.N,+3V3*%
X53540600Y25889600D03*
%TO.P,R56,2*%
%TO.N,ESP_EN*%
X53540600Y27084600D03*
%TD*%
D38*
%TO.P,C54,1*%
%TO.N,+5V*%
X76851700Y26822500D03*
%TO.P,C54,2*%
%TO.N,GND*%
X76851700Y25687500D03*
%TD*%
D67*
%TO.P,D4,1,K*%
%TO.N,Net-(D4-K)*%
X58163400Y45728200D03*
%TO.P,D4,2,A*%
%TO.N,Net-(D4-A)*%
X56413400Y45728200D03*
%TD*%
D58*
%TO.P,U14,1*%
%TO.N,Net-(R5-Pad2)*%
X78045000Y21610000D03*
%TO.P,U14,2*%
%TO.N,GND*%
X78045000Y22880000D03*
%TO.P,U14,3*%
%TO.N,GND_MOTOR*%
X84545000Y22880000D03*
%TO.P,U14,4*%
%TO.N,Net-(J14-Pin_3)*%
X84545000Y21610000D03*
%TD*%
D16*
%TO.P,R72,1*%
%TO.N,CP2105_VIO*%
X78057500Y30145000D03*
%TO.P,R72,2*%
%TO.N,Net-(U9-RST)*%
X79252500Y30145000D03*
%TD*%
%TO.P,R2,1*%
%TO.N,STM_USART2_TX*%
X33113000Y17255000D03*
%TO.P,R2,2*%
%TO.N,ESP_U1RXD*%
X34308000Y17255000D03*
%TD*%
D36*
%TO.P,RN4,1,R1.1*%
%TO.N,GND*%
X13815000Y18509730D03*
%TO.P,RN4,2,R2.1*%
%TO.N,Net-(Q3A-C1)*%
X14615000Y18509730D03*
%TO.P,RN4,3,R3.1*%
%TO.N,GND*%
X15415000Y18509730D03*
%TO.P,RN4,4,R4.1*%
%TO.N,Net-(Q3B-C2)*%
X16215000Y18509730D03*
%TO.P,RN4,5,R4.2*%
%TO.N,+3V3*%
X16215000Y16809730D03*
%TO.P,RN4,6,R3.2*%
%TO.N,SEN6*%
X15415000Y16809730D03*
%TO.P,RN4,7,R2.2*%
%TO.N,+3V3*%
X14615000Y16809730D03*
%TO.P,RN4,8,R1.2*%
%TO.N,SEN5*%
X13815000Y16809730D03*
%TD*%
D30*
%TO.P,R1,1*%
%TO.N,ESP_U1TXD*%
X34308000Y18505000D03*
%TO.P,R1,2*%
%TO.N,STM_USART2_RX*%
X33113000Y18505000D03*
%TD*%
D38*
%TO.P,C55,1*%
%TO.N,GND*%
X98601700Y33255000D03*
%TO.P,C55,2*%
%TO.N,Net-(C55-Pad2)*%
X98601700Y32120000D03*
%TD*%
D67*
%TO.P,D3,1,K*%
%TO.N,Net-(D3-K)*%
X58163400Y48318200D03*
%TO.P,D3,2,A*%
%TO.N,Net-(D3-A)*%
X56413400Y48318200D03*
%TD*%
D16*
%TO.P,R70,1*%
%TO.N,Net-(J8-CC1)*%
X92254200Y33005000D03*
%TO.P,R70,2*%
%TO.N,GND*%
X93449200Y33005000D03*
%TD*%
D61*
%TO.P,R66,1*%
%TO.N,Net-(U5-FB)*%
X30867530Y37266913D03*
%TO.P,R66,2*%
%TO.N,Net-(R64-Pad1)*%
X30867530Y38286913D03*
%TD*%
D23*
%TO.P,C19,1*%
%TO.N,Net-(C19-Pad1)*%
X22950300Y34958600D03*
%TO.P,C19,2*%
%TO.N,GND*%
X24085300Y34958600D03*
%TD*%
%TO.P,C56,1*%
%TO.N,CP2105_VIO*%
X82611332Y30755000D03*
%TO.P,C56,2*%
%TO.N,GND*%
X83746332Y30755000D03*
%TD*%
D68*
%TO.P,U9,1,SUSPEND*%
%TO.N,unconnected-(U9-SUSPEND-Pad1)*%
X81314200Y34792500D03*
%TO.P,U9,2,GND*%
%TO.N,GND*%
X81314200Y34292500D03*
%TO.P,U9,3,D+*%
%TO.N,DEBUG_USB+*%
X81314200Y33792500D03*
%TO.P,U9,4,D-*%
%TO.N,DEBUG_USB-*%
X81314200Y33292500D03*
%TO.P,U9,5,VIO*%
%TO.N,CP2105_VIO*%
X81314200Y32792500D03*
%TO.P,U9,6,VDD*%
X81314200Y32292500D03*
D69*
%TO.P,U9,7,REGIN*%
%TO.N,VUSB*%
X80601700Y31580000D03*
%TO.P,U9,8,VBUS*%
X80101700Y31580000D03*
%TO.P,U9,9,RST*%
%TO.N,Net-(U9-RST)*%
X79601700Y31580000D03*
%TO.P,U9,10,CTS_ECI*%
%TO.N,unconnected-(U9-CTS_ECI-Pad10)*%
X79101700Y31580000D03*
%TO.P,U9,11,RTS_ECI*%
%TO.N,STM_RTS*%
X78601700Y31580000D03*
%TO.P,U9,12,RXD_ECI*%
%TO.N,STM_USART1_TX*%
X78101700Y31580000D03*
D68*
%TO.P,U9,13,TXD_ECI*%
%TO.N,STM_USART1_RX*%
X77389200Y32292500D03*
%TO.P,U9,14,DSR_ECI*%
%TO.N,unconnected-(U9-DSR_ECI-Pad14)*%
X77389200Y32792500D03*
%TO.P,U9,15,DTR_ECI*%
%TO.N,STM_DTR*%
X77389200Y33292500D03*
%TO.P,U9,16,VPP*%
%TO.N,Net-(U9-VPP)*%
X77389200Y33792500D03*
%TO.P,U9,17,SUSPEND*%
%TO.N,unconnected-(U9-SUSPEND-Pad17)*%
X77389200Y34292500D03*
%TO.P,U9,18,CTS_SCI*%
%TO.N,unconnected-(U9-CTS_SCI-Pad18)*%
X77389200Y34792500D03*
D69*
%TO.P,U9,19,RTS_SCI*%
%TO.N,ESP_RTS*%
X78101700Y35505000D03*
%TO.P,U9,20,RXD_SCI*%
%TO.N,ESP_UART_DEBUG_TX*%
X78601700Y35505000D03*
%TO.P,U9,21,TXD_SCI*%
%TO.N,ESP_UART_DEBUG_RX*%
X79101700Y35505000D03*
%TO.P,U9,22,DSR_SCI*%
%TO.N,unconnected-(U9-DSR_SCI-Pad22)*%
X79601700Y35505000D03*
%TO.P,U9,23,DTR_SCI*%
%TO.N,ESP_DTR*%
X80101700Y35505000D03*
%TO.P,U9,24,DCD_SCI*%
%TO.N,unconnected-(U9-DCD_SCI-Pad24)*%
X80601700Y35505000D03*
D70*
%TO.P,U9,25*%
%TO.N,N/C*%
X79351700Y33542500D03*
%TD*%
D33*
%TO.P,C28,1*%
%TO.N,ESP_EN*%
X53540600Y28253000D03*
%TO.P,C28,2*%
%TO.N,GND*%
X53540600Y29388000D03*
%TD*%
D39*
%TO.P,C24,1*%
%TO.N,+3V3*%
X9113685Y35333706D03*
%TO.P,C24,2*%
%TO.N,GND*%
X7388685Y35333706D03*
%TD*%
%TO.P,R69,1*%
%TO.N,Net-(C55-Pad2)*%
X98714200Y30505000D03*
%TO.P,R69,2*%
%TO.N,CAN_L*%
X96989200Y30505000D03*
%TD*%
D71*
%TO.P,U2,1*%
%TO.N,STM_NRESET*%
X81101700Y48255000D03*
%TO.P,U2,2*%
%TO.N,STM_SWDCLK*%
X81101700Y47755000D03*
D72*
%TO.P,U2,3,VSS*%
%TO.N,GND*%
X81064200Y47255000D03*
D71*
%TO.P,U2,4*%
%TO.N,STM_SWDIO*%
X81101700Y46755000D03*
%TO.P,U2,5*%
%TO.N,unconnected-(U2-Pad5)*%
X81101700Y46255000D03*
%TO.P,U2,6*%
%TO.N,unconnected-(U2-Pad6)*%
X80326700Y46255000D03*
%TO.P,U2,7*%
%TO.N,STM_SWDIO_PROT*%
X80326700Y46755000D03*
D73*
%TO.P,U2,8,VSS*%
%TO.N,GND*%
X80301700Y47255000D03*
D71*
%TO.P,U2,9*%
%TO.N,STM_SWDCLK_PROT*%
X80326700Y47755000D03*
%TO.P,U2,10*%
%TO.N,~{STM_NRST}*%
X80326700Y48255000D03*
%TD*%
D74*
%TO.P,D5,1,K*%
%TO.N,VBAT*%
X21351700Y47655000D03*
%TO.P,D5,2,A*%
%TO.N,Net-(D5-A)*%
X21351700Y44355000D03*
%TD*%
D33*
%TO.P,C68,1*%
%TO.N,+1V8*%
X47455000Y30417500D03*
%TO.P,C68,2*%
%TO.N,GND*%
X47455000Y31552500D03*
%TD*%
D18*
%TO.P,C60,1*%
%TO.N,+3V3*%
X17612000Y6155000D03*
%TO.P,C60,2*%
%TO.N,GND*%
X19162000Y6155000D03*
%TD*%
D33*
%TO.P,C62,1*%
%TO.N,Net-(U12-BP)*%
X43351700Y21437500D03*
%TO.P,C62,2*%
%TO.N,GND*%
X43351700Y22572500D03*
%TD*%
D38*
%TO.P,C67,1*%
%TO.N,+1V8*%
X43660000Y27572500D03*
%TO.P,C67,2*%
%TO.N,GND*%
X43660000Y26437500D03*
%TD*%
D16*
%TO.P,R61,1*%
%TO.N,VBAT*%
X28004638Y34709514D03*
%TO.P,R61,2*%
%TO.N,Net-(U5-EN)*%
X29199638Y34709514D03*
%TD*%
D75*
%TO.P,U3,1,GND*%
%TO.N,GND*%
X56832601Y23813770D03*
%TO.P,U3,2,3V3*%
%TO.N,+3V3*%
X56832601Y25083770D03*
%TO.P,U3,3,EN*%
%TO.N,ESP_EN*%
X56832601Y26353770D03*
%TO.P,U3,4,IO4*%
%TO.N,PMW_SCLK*%
X56832601Y27623770D03*
%TO.P,U3,5,IO5*%
%TO.N,PMW_CS2*%
X56832601Y28893770D03*
%TO.P,U3,6,IO6*%
%TO.N,PMW_RESET*%
X56832601Y30163770D03*
%TO.P,U3,7,IO7*%
%TO.N,SIG_RUN*%
X56832601Y31433770D03*
%TO.P,U3,8,IO15*%
%TO.N,BHI_HIRQ_3V3*%
X56832601Y32703770D03*
%TO.P,U3,9,IO16*%
%TO.N,Net-(D4-K)*%
X56832601Y33973770D03*
%TO.P,U3,10,IO17*%
%TO.N,ESP_U1TXD*%
X56832601Y35243770D03*
%TO.P,U3,11,IO18*%
%TO.N,ESP_U1RXD*%
X56832601Y36513770D03*
%TO.P,U3,12,IO8*%
%TO.N,SIG_KILL*%
X56832601Y37783770D03*
%TO.P,U3,13,USB_D-/IO19*%
%TO.N,unconnected-(U3-USB_D-{slash}IO19-Pad13)*%
X56832601Y39053770D03*
%TO.P,U3,14,USB_D+/IO20*%
%TO.N,unconnected-(U3-USB_D+{slash}IO20-Pad14)*%
X56832601Y40323770D03*
D76*
%TO.P,U3,15,IO3*%
%TO.N,PMW_MISO*%
X58597601Y41573770D03*
%TO.P,U3,16,IO46*%
%TO.N,unconnected-(U3-IO46-Pad16)*%
X59867601Y41573770D03*
%TO.P,U3,17,IO9*%
%TO.N,Net-(D3-K)*%
X61137601Y41573770D03*
%TO.P,U3,18,IO10*%
%TO.N,BHI_CS_3V3*%
X62407601Y41573770D03*
%TO.P,U3,19,IO11*%
%TO.N,BHI_MOSI_3V3*%
X63677601Y41573770D03*
%TO.P,U3,20,IO12*%
%TO.N,BHI_SCLK_3V3*%
X64947601Y41573770D03*
%TO.P,U3,21,IO13*%
%TO.N,BHI_MISO_3V3*%
X66217601Y41573770D03*
%TO.P,U3,22,IO14*%
%TO.N,BHI_RSTQ_3V3*%
X67487601Y41573770D03*
%TO.P,U3,23,IO21*%
%TO.N,STM_ESP_INT*%
X68757601Y41573770D03*
%TO.P,U3,24,IO47*%
%TO.N,FDCAN1_RX*%
X70027601Y41573770D03*
%TO.P,U3,25,IO48*%
%TO.N,FDCAN1_TX*%
X71297601Y41573770D03*
%TO.P,U3,26,IO45*%
%TO.N,CAN_SILENT*%
X72567601Y41573770D03*
D75*
%TO.P,U3,27,IO0*%
%TO.N,GPIO0*%
X74332601Y40323770D03*
%TO.P,U3,28,NC*%
%TO.N,unconnected-(U3-NC-Pad28)*%
X74332601Y39053770D03*
%TO.P,U3,29,NC*%
%TO.N,unconnected-(U3-NC-Pad29)*%
X74332601Y37783770D03*
%TO.P,U3,30,NC*%
%TO.N,unconnected-(U3-NC-Pad30)*%
X74332601Y36513770D03*
%TO.P,U3,31,IO38*%
%TO.N,unconnected-(U3-IO38-Pad31)*%
X74332601Y35243770D03*
%TO.P,U3,32,MTCK/IO39*%
%TO.N,ESP_JTAG_TCK_PROT*%
X74332601Y33973770D03*
%TO.P,U3,33,MTDO/IO40*%
%TO.N,ESP_JTAG_TDO_PROT*%
X74332601Y32703770D03*
%TO.P,U3,34,MTDI/IO41*%
%TO.N,ESP_JTAG_TDI_PROT*%
X74332601Y31433770D03*
%TO.P,U3,35,MTMS/IO42*%
%TO.N,ESP_JTAG_TMS_PROT*%
X74332601Y30163770D03*
%TO.P,U3,36,RXD0/IO44*%
%TO.N,ESP_UART_DEBUG_RX*%
X74332601Y28893770D03*
%TO.P,U3,37,TXD0/IO43*%
%TO.N,ESP_UART_DEBUG_TX*%
X74332601Y27623770D03*
%TO.P,U3,38,IO2*%
%TO.N,PMW_MOSI*%
X74332601Y26353770D03*
%TO.P,U3,39,IO1*%
%TO.N,PMW_CS1*%
X74332601Y25083770D03*
%TO.P,U3,40,GND*%
%TO.N,GND*%
X74332601Y23813770D03*
D77*
%TO.P,U3,41,GND*%
X62722601Y30663770D03*
D78*
X62722601Y29913770D03*
D77*
X62722601Y29163770D03*
D78*
X62722601Y28413770D03*
D77*
X62722601Y27663770D03*
D78*
X63472601Y30663770D03*
X63472601Y29163770D03*
X63472601Y27663770D03*
D77*
X64222601Y30663770D03*
D78*
X64222601Y29913770D03*
D77*
X64222601Y29163770D03*
D78*
X64222601Y28413770D03*
D77*
X64222601Y27663770D03*
D78*
X64972601Y30663770D03*
X64972601Y29163770D03*
X64972601Y27663770D03*
D77*
X65722601Y30663770D03*
D78*
X65722601Y29913770D03*
D77*
X65722601Y29163770D03*
D78*
X65722601Y28413770D03*
D77*
X65722601Y27663770D03*
%TD*%
D28*
%TO.P,C25,1*%
%TO.N,+3.3VA*%
X23351700Y28392500D03*
%TO.P,C25,2*%
%TO.N,GND*%
X23351700Y30117500D03*
%TD*%
D79*
%TO.P,U10,1,A1*%
%TO.N,BHI_MOSI*%
X52924348Y35826923D03*
%TO.P,U10,2,V_{CCA}*%
%TO.N,+1V8*%
X52274348Y35826923D03*
%TO.P,U10,3,A2*%
%TO.N,BHI_MISO*%
X51624348Y35826923D03*
%TO.P,U10,4,A3*%
%TO.N,BHI_SCLK*%
X50974348Y35826923D03*
%TO.P,U10,5,A4*%
%TO.N,BHI_CS*%
X50324348Y35826923D03*
%TO.P,U10,6,A5*%
%TO.N,BHI_HIRQ*%
X49674348Y35826923D03*
%TO.P,U10,7,A6*%
%TO.N,BHI_RSTQ*%
X49024348Y35826923D03*
%TO.P,U10,8,OE*%
%TO.N,+1V8*%
X48374348Y35826923D03*
%TO.P,U10,9,GND*%
%TO.N,GND*%
X48374348Y41551923D03*
%TO.P,U10,10,B6*%
%TO.N,BHI_RSTQ_3V3*%
X49024348Y41551923D03*
%TO.P,U10,11,B5*%
%TO.N,BHI_HIRQ_3V3*%
X49674348Y41551923D03*
%TO.P,U10,12,B4*%
%TO.N,BHI_CS_3V3*%
X50324348Y41551923D03*
%TO.P,U10,13,B3*%
%TO.N,BHI_SCLK_3V3*%
X50974348Y41551923D03*
%TO.P,U10,14,B2*%
%TO.N,BHI_MISO_3V3*%
X51624348Y41551923D03*
%TO.P,U10,15,V_{CCB}*%
%TO.N,+3V3*%
X52274348Y41551923D03*
%TO.P,U10,16,B1*%
%TO.N,BHI_MOSI_3V3*%
X52924348Y41551923D03*
%TD*%
D80*
%TO.P,U7,1,TXD*%
%TO.N,FDCAN1_TX*%
X78710000Y24940000D03*
%TO.P,U7,2,GND*%
%TO.N,GND*%
X78710000Y26210000D03*
%TO.P,U7,3,VCC*%
%TO.N,+5V*%
X78710000Y27480000D03*
%TO.P,U7,4,RXD*%
%TO.N,FDCAN1_RX*%
X78710000Y28750000D03*
%TO.P,U7,5,VIO*%
%TO.N,+3V3*%
X83660000Y28750000D03*
%TO.P,U7,6,CANL*%
%TO.N,CAN_L*%
X83660000Y27480000D03*
%TO.P,U7,7,CANH*%
%TO.N,CAN_H*%
X83660000Y26210000D03*
%TO.P,U7,8,S*%
%TO.N,CAN_SILENT*%
X83660000Y24940000D03*
%TD*%
D36*
%TO.P,RN7,1,R1.1*%
%TO.N,GND*%
X8351700Y46755000D03*
%TO.P,RN7,2,R2.1*%
%TO.N,Net-(Q5A-C1)*%
X7551700Y46755000D03*
%TO.P,RN7,3,R3.1*%
%TO.N,GND*%
X6751700Y46755000D03*
%TO.P,RN7,4,R4.1*%
%TO.N,Net-(Q5B-C2)*%
X5951700Y46755000D03*
%TO.P,RN7,5,R4.2*%
%TO.N,+3V3*%
X5951700Y48455000D03*
%TO.P,RN7,6,R3.2*%
%TO.N,SEN10*%
X6751700Y48455000D03*
%TO.P,RN7,7,R2.2*%
%TO.N,+3V3*%
X7551700Y48455000D03*
%TO.P,RN7,8,R1.2*%
%TO.N,SEN9*%
X8351700Y48455000D03*
%TD*%
D16*
%TO.P,R63,1*%
%TO.N,Net-(C36-Pad1)*%
X28004638Y33711864D03*
%TO.P,R63,2*%
%TO.N,Net-(U5-BOOT)*%
X29199638Y33711864D03*
%TD*%
D35*
%TO.P,Q6,1,E1*%
%TO.N,GND*%
X3589000Y45238585D03*
%TO.P,Q6,2,B1*%
%TO.N,SEN11*%
X3589000Y44588585D03*
%TO.P,Q6,3,C2*%
%TO.N,Net-(Q6B-C2)*%
X3589000Y43938585D03*
%TO.P,Q6,4,E2*%
%TO.N,GND*%
X1689000Y43938585D03*
%TO.P,Q6,5,B2*%
%TO.N,SEN12*%
X1689000Y44588585D03*
%TO.P,Q6,6,C1*%
%TO.N,Net-(Q6A-C1)*%
X1689000Y45238585D03*
%TD*%
D36*
%TO.P,RN3,1,R1.1*%
%TO.N,GND*%
X9851700Y18505000D03*
%TO.P,RN3,2,R2.1*%
%TO.N,Net-(Q2A-C1)*%
X10651700Y18505000D03*
%TO.P,RN3,3,R3.1*%
%TO.N,GND*%
X11451700Y18505000D03*
%TO.P,RN3,4,R4.1*%
%TO.N,Net-(Q2B-C2)*%
X12251700Y18505000D03*
%TO.P,RN3,5,R4.2*%
%TO.N,+3V3*%
X12251700Y16805000D03*
%TO.P,RN3,6,R3.2*%
%TO.N,SEN4*%
X11451700Y16805000D03*
%TO.P,RN3,7,R2.2*%
%TO.N,+3V3*%
X10651700Y16805000D03*
%TO.P,RN3,8,R1.2*%
%TO.N,SEN3*%
X9851700Y16805000D03*
%TD*%
D23*
%TO.P,C57,1*%
%TO.N,CP2105_VIO*%
X82601700Y31755000D03*
%TO.P,C57,2*%
%TO.N,GND*%
X83736700Y31755000D03*
%TD*%
%TO.P,C51,1*%
%TO.N,Net-(U6-BP)*%
X42716700Y48755000D03*
%TO.P,C51,2*%
%TO.N,GND*%
X43851700Y48755000D03*
%TD*%
D81*
%TO.P,R67,1*%
%TO.N,GND*%
X28206841Y38428582D03*
%TO.P,R67,2*%
%TO.N,Net-(U5-FB)*%
X28206841Y37408582D03*
%TD*%
D71*
%TO.P,U4,1*%
%TO.N,ESP_JTAG_TCK*%
X81083674Y44976317D03*
%TO.P,U4,2*%
%TO.N,ESP_JTAG_TMS*%
X81083674Y44476317D03*
D72*
%TO.P,U4,3,VSS*%
%TO.N,GND*%
X81046174Y43976317D03*
D71*
%TO.P,U4,4*%
%TO.N,ESP_JTAG_TDO*%
X81083674Y43476317D03*
%TO.P,U4,5*%
%TO.N,ESP_JTAG_TDI*%
X81083674Y42976317D03*
%TO.P,U4,6*%
%TO.N,ESP_JTAG_TMS_PROT*%
X80308674Y42976317D03*
%TO.P,U4,7*%
%TO.N,ESP_JTAG_TDI_PROT*%
X80308674Y43476317D03*
D73*
%TO.P,U4,8,VSS*%
%TO.N,GND*%
X80283674Y43976317D03*
D71*
%TO.P,U4,9*%
%TO.N,ESP_JTAG_TDO_PROT*%
X80308674Y44476317D03*
%TO.P,U4,10*%
%TO.N,ESP_JTAG_TCK_PROT*%
X80308674Y44976317D03*
%TD*%
D38*
%TO.P,C30,1*%
%TO.N,+3V3*%
X55211863Y24944533D03*
%TO.P,C30,2*%
%TO.N,GND*%
X55211863Y23809533D03*
%TD*%
D23*
%TO.P,C14,1*%
%TO.N,+3V3*%
X52295500Y44505000D03*
%TO.P,C14,2*%
%TO.N,GND*%
X53430500Y44505000D03*
%TD*%
D30*
%TO.P,R9,1*%
%TO.N,PMW_SCLK*%
X50565000Y46635000D03*
%TO.P,R9,2*%
%TO.N,Net-(J12-Pin_4)*%
X49370000Y46635000D03*
%TD*%
D36*
%TO.P,RN9,1,R1.1*%
%TO.N,GND*%
X3839000Y46755000D03*
%TO.P,RN9,2,R2.1*%
%TO.N,Net-(Q6A-C1)*%
X3039000Y46755000D03*
%TO.P,RN9,3,R3.1*%
%TO.N,GND*%
X2239000Y46755000D03*
%TO.P,RN9,4,R4.1*%
%TO.N,Net-(Q6B-C2)*%
X1439000Y46755000D03*
%TO.P,RN9,5,R4.2*%
%TO.N,+3V3*%
X1439000Y48455000D03*
%TO.P,RN9,6,R3.2*%
%TO.N,SEN12*%
X2239000Y48455000D03*
%TO.P,RN9,7,R2.2*%
%TO.N,+3V3*%
X3039000Y48455000D03*
%TO.P,RN9,8,R1.2*%
%TO.N,SEN11*%
X3839000Y48455000D03*
%TD*%
D30*
%TO.P,R7,1*%
%TO.N,PMW_MOSI*%
X50545000Y44555000D03*
%TO.P,R7,2*%
%TO.N,Net-(J12-Pin_2)*%
X49350000Y44555000D03*
%TD*%
D82*
%TO.P,R15,1*%
%TO.N,ADC_V_IN*%
X16101700Y45842500D03*
%TO.P,R15,2*%
%TO.N,GND*%
X16101700Y47667500D03*
%TD*%
D39*
%TO.P,C47,1*%
%TO.N,+3V3*%
X39975500Y34005000D03*
%TO.P,C47,2*%
%TO.N,GND*%
X38250500Y34005000D03*
%TD*%
D21*
%TO.P,C26,1*%
%TO.N,+3.3VA*%
X19966675Y30204677D03*
%TO.P,C26,2*%
%TO.N,GND*%
X21691675Y30204677D03*
%TD*%
D41*
%TO.P,C5,1*%
%TO.N,+3V3*%
X34626700Y5755000D03*
%TO.P,C5,2*%
%TO.N,GND*%
X33076700Y5755000D03*
%TD*%
D38*
%TO.P,C64,1*%
%TO.N,+1V8*%
X47575000Y27292500D03*
%TO.P,C64,2*%
%TO.N,GND*%
X47575000Y26157500D03*
%TD*%
D83*
%TO.N,GND*%
X47565000Y26155000D03*
D84*
X7610599Y19363000D03*
D83*
X33076700Y5755000D03*
X46682600Y12505000D03*
D85*
X13895000Y18365000D03*
D83*
X56995000Y41715000D03*
X76934000Y56447000D03*
X28206841Y38428582D03*
X68171000Y48827000D03*
X90624600Y56497800D03*
X49375000Y17331000D03*
X44875000Y46795000D03*
D86*
X92465000Y34895000D03*
D83*
X20419000Y38667000D03*
X22097351Y35462673D03*
X34033400Y9203000D03*
X61525000Y24450000D03*
X55175000Y23965000D03*
D85*
X10015000Y20005000D03*
D83*
X35151000Y45271000D03*
X80363000Y21903000D03*
X56017100Y53805400D03*
X43425375Y38394189D03*
X24015000Y35055000D03*
X1115000Y32977400D03*
X8936115Y9001885D03*
X65034100Y53805400D03*
X53350635Y44425135D03*
X43351700Y22572500D03*
X31678200Y51875000D03*
X91900000Y20425000D03*
D85*
X63115000Y47605000D03*
D83*
X70711000Y48319000D03*
X40035000Y35685000D03*
D85*
X14030865Y20029845D03*
D87*
X50125000Y32916800D03*
D83*
X97635000Y20450000D03*
X64615000Y34603000D03*
D85*
X98601690Y33255005D03*
D83*
X34643000Y26983000D03*
X87795000Y38725000D03*
X6703000Y40699000D03*
X78705000Y26165000D03*
D86*
X89615000Y30235000D03*
D85*
X83815000Y30755000D03*
D83*
X50899000Y9203000D03*
X44335000Y59755000D03*
D87*
X49465000Y31305000D03*
D83*
X98651000Y50859000D03*
X61567000Y36635000D03*
X41975000Y44275000D03*
X23149600Y55431000D03*
X97650000Y16823000D03*
X36535000Y34185000D03*
X29825000Y20875000D03*
X18895000Y43239000D03*
D85*
X15415000Y18295000D03*
D83*
X82903000Y37143000D03*
D87*
X52575000Y30375000D03*
D86*
X81665000Y47245000D03*
D83*
X50391000Y19871000D03*
X12951400Y9203000D03*
D87*
X1623000Y44001000D03*
D83*
X70203000Y24443000D03*
X85951000Y56447000D03*
X48865000Y27117500D03*
D86*
X6105133Y18991051D03*
D85*
X7131153Y20801675D03*
D83*
X18387000Y59495000D03*
D85*
X41585000Y23115000D03*
X38275000Y47875000D03*
D83*
X54963000Y47303000D03*
D86*
X11785000Y46625000D03*
D83*
X41247000Y51875000D03*
D86*
X12001704Y21304992D03*
D83*
X49105000Y59685000D03*
D86*
X92555000Y45525000D03*
D83*
X33315000Y33735000D03*
X21943000Y40191000D03*
X91925000Y16875000D03*
X1115000Y29319800D03*
X83068100Y53805400D03*
D86*
X98286945Y44890345D03*
D83*
X1115000Y25662200D03*
X63408500Y56447000D03*
X67917000Y56447000D03*
X87765000Y26865000D03*
X3147000Y59495000D03*
X29858600Y12500000D03*
X33627000Y59495000D03*
X16051700Y7679006D03*
D87*
X18014200Y30592500D03*
D83*
X29817000Y9203000D03*
X36825000Y42223000D03*
X26893800Y51875000D03*
X16885000Y63835000D03*
X6195000Y35315000D03*
D85*
X81695000Y43976317D03*
X81248900Y30315000D03*
D83*
X81887000Y17331000D03*
X17849077Y39175000D03*
X22109400Y51875000D03*
X38045000Y33935000D03*
D87*
X52735000Y31015000D03*
D83*
X69542600Y53805400D03*
X9243000Y42223000D03*
X1115000Y36635000D03*
X28293000Y62949400D03*
X34075000Y12500000D03*
D84*
X78351700Y18931200D03*
D83*
X89507000Y13775000D03*
X43585000Y17305000D03*
X13377022Y45895704D03*
X74345000Y23795000D03*
X46682600Y9203000D03*
X60525600Y53805400D03*
D85*
X22845000Y22535000D03*
D83*
X77315000Y14283000D03*
D85*
X38235000Y21875000D03*
D83*
X37915900Y6663000D03*
X8385490Y59583415D03*
X46825000Y39375000D03*
X36462600Y51875000D03*
X74051100Y53805400D03*
X33601700Y40005000D03*
D86*
X53405000Y18375000D03*
D83*
X54455000Y42223000D03*
D86*
X8735000Y33587000D03*
D83*
X25415000Y42685000D03*
X17325000Y51875000D03*
X54910500Y32145000D03*
X87576600Y53805400D03*
X54930499Y30755001D03*
X54391500Y56447000D03*
X53953615Y29726170D03*
X81887000Y9711000D03*
X27295000Y48455000D03*
X19149000Y9203000D03*
D85*
X39605000Y20195000D03*
D83*
X9890741Y24455741D03*
X19911000Y20379000D03*
X58900000Y56447000D03*
D86*
X55195000Y18395000D03*
D83*
X48305000Y41865000D03*
D87*
X6804600Y45575800D03*
D83*
X43660002Y26437500D03*
D87*
X2131000Y46795000D03*
D83*
X19601700Y25005000D03*
D85*
X21035000Y25065000D03*
D86*
X32215000Y33885000D03*
D83*
X24483000Y30359800D03*
X16065000Y47905000D03*
X87275000Y20600000D03*
X66475000Y24475000D03*
X39215000Y24443000D03*
X36465000Y35845000D03*
D85*
X54219982Y37857366D03*
D83*
X32395000Y37775000D03*
X74775000Y48827000D03*
X17963800Y55431000D03*
X50899000Y12505000D03*
D85*
X83736700Y31755000D03*
D83*
X81887000Y40191000D03*
D84*
X76522994Y30384232D03*
D83*
X34643000Y29777000D03*
X23162200Y58174200D03*
X86735024Y37545000D03*
X72425500Y56447000D03*
X42655000Y40895000D03*
X19065000Y45845000D03*
X82395000Y19871000D03*
X78559600Y53805400D03*
X49883000Y56447000D03*
D85*
X16278800Y21634967D03*
X47455000Y31681600D03*
X85560000Y34035000D03*
D83*
X16101000Y11489000D03*
X61059000Y27999000D03*
X27795000Y43475000D03*
X28335400Y55431000D03*
X38249800Y9203000D03*
D87*
X6250000Y43100000D03*
D83*
X61567000Y46795000D03*
D85*
X24035000Y19915000D03*
D87*
X81314200Y34292500D03*
D83*
X81442500Y56447000D03*
X6703000Y32571000D03*
X11351000Y55431000D03*
X33521200Y55431000D03*
X57155000Y23798770D03*
X7378478Y27070247D03*
D85*
X22635000Y18685000D03*
D83*
X38575000Y36315000D03*
D87*
X4417000Y46795000D03*
D83*
X53851700Y22917500D03*
D84*
X78044996Y22880000D03*
D85*
X43885000Y48845000D03*
D83*
X28004630Y36000201D03*
D85*
X9880300Y18505000D03*
X76175000Y34452502D03*
D83*
X1115000Y22004600D03*
X26007000Y24443000D03*
X1115000Y18347000D03*
D86*
X14635000Y38255000D03*
D83*
X43279000Y32063000D03*
X47851000Y43747000D03*
X28547000Y59495000D03*
D86*
X10925000Y43935000D03*
D87*
X8601304Y45379687D03*
D83*
X19131908Y6048660D03*
D85*
X85710192Y41975000D03*
D83*
X38707000Y55431000D03*
D87*
%TO.N,~{STM_NRST}*%
X77515000Y48725000D03*
X77572785Y50943000D03*
X18066283Y28088000D03*
X45848772Y35382523D03*
X18675000Y27215000D03*
X19135000Y28005000D03*
X21325000Y33385000D03*
X46835000Y45271000D03*
X18996212Y31096405D03*
X53235000Y51125000D03*
%TO.N,Net-(C22-Pad1)*%
X22612983Y32342600D03*
X25232700Y32342600D03*
D85*
%TO.N,+3.3VA*%
X19476764Y30071126D03*
D86*
X24444950Y28267310D03*
D87*
%TO.N,ESP_EN*%
X96875000Y38513859D03*
X86849017Y38674215D03*
X80915000Y38835000D03*
%TO.N,VBAT*%
X54605000Y50495000D03*
D86*
X85315000Y40215000D03*
X44200000Y47750000D03*
D84*
X34084200Y35776200D03*
X22298588Y48865012D03*
D86*
X85100592Y42959408D03*
D84*
X26953338Y35060195D03*
D87*
X51565000Y50485000D03*
D85*
X91176245Y39760386D03*
D86*
X41700368Y41775000D03*
X85571600Y45325000D03*
X85055999Y47210186D03*
D84*
X28665213Y46365567D03*
%TO.N,+5V*%
X54885000Y21395000D03*
X70711000Y22919000D03*
D87*
%TO.N,CP2105_VIO*%
X81605000Y29165000D03*
X81785000Y30845000D03*
%TO.N,VUSB*%
X87119400Y31707400D03*
D85*
%TO.N,Net-(D1-K)*%
X89706544Y38711048D03*
%TO.N,Net-(D2-K)*%
X89701389Y26710079D03*
D83*
%TO.N,SEN2*%
X7575175Y17528543D03*
X9082937Y14759334D03*
%TO.N,SEN4*%
X11536123Y17407814D03*
X11783000Y14791000D03*
%TO.N,COL2*%
X7968000Y30798000D03*
D87*
%TO.N,COL1*%
X20325000Y12125000D03*
D83*
X7119530Y30312320D03*
D87*
X20475000Y10075000D03*
D83*
%TO.N,SEN6*%
X14831000Y14791000D03*
X15339000Y17331000D03*
D87*
X16200601Y20694137D03*
X17347725Y19557948D03*
D83*
%TO.N,SEN1*%
X5926482Y17143600D03*
X8147931Y14730800D03*
%TO.N,SEN5*%
X13702377Y17305833D03*
X13815000Y14791000D03*
D87*
%TO.N,SEN3*%
X9775000Y17585000D03*
D86*
X10867100Y20650594D03*
D83*
X9945970Y14800242D03*
D87*
%TO.N,USB_CONN_D+*%
X87729000Y32825000D03*
%TO.N,Net-(J8-CC2)*%
X92253077Y34033952D03*
%TO.N,USB_CONN_D-*%
X89557800Y33637800D03*
X89659400Y32418600D03*
X87170200Y33105000D03*
%TO.N,Net-(J8-CC1)*%
X87983000Y32164600D03*
D85*
%TO.N,+1V8*%
X23115000Y17385000D03*
D86*
X39881000Y17681000D03*
X48102855Y25526200D03*
D87*
X51895000Y31325000D03*
X52425000Y29805000D03*
D85*
X43660000Y27645000D03*
X34945000Y16305000D03*
D86*
X44575000Y20125000D03*
D87*
X49695000Y28915000D03*
D86*
X38025000Y18895000D03*
D87*
X45925000Y28295000D03*
%TO.N,Net-(J12-Pin_3)*%
X49016537Y51875000D03*
X49016537Y50097018D03*
%TO.N,ADC_V_IN*%
X16101000Y44610600D03*
X14044400Y32455000D03*
D86*
%TO.N,ESP_U1TXD*%
X58192480Y35244096D03*
D85*
X59594366Y36018000D03*
X38075000Y16375000D03*
D84*
X48359000Y19067000D03*
D85*
X36075000Y18505000D03*
X58825000Y29625000D03*
%TO.N,ESP_U1RXD*%
X60023280Y36585312D03*
D86*
X35415000Y16995000D03*
X46106000Y16094000D03*
D87*
X37575000Y14875000D03*
D85*
X56995000Y36475000D03*
D86*
X60277249Y30906931D03*
D87*
%TO.N,SEN9*%
X8912800Y45861601D03*
X6957000Y44966200D03*
%TO.N,SEN10*%
X7494513Y49877229D03*
X9901400Y49737179D03*
%TO.N,SEN11_3V3*%
X8575000Y28118200D03*
X11919618Y28530382D03*
%TO.N,SEN4_3V3*%
X15114703Y28875000D03*
X15114703Y25413715D03*
D85*
%TO.N,Net-(R53-Pad1)*%
X19425592Y18615592D03*
X36825000Y14791000D03*
X55245000Y17195000D03*
X43444073Y15545927D03*
D87*
%TO.N,STM_SWDCLK*%
X81895994Y47743586D03*
D85*
X98115000Y34745000D03*
D86*
X98085000Y39365000D03*
D87*
%TO.N,STM_SWDIO*%
X86105000Y46795000D03*
X86105000Y43114000D03*
X86435000Y40015002D03*
X86389481Y36016752D03*
X86105000Y45403200D03*
D86*
%TO.N,Net-(R59-Pad1)*%
X68175000Y43745000D03*
X52365000Y17385000D03*
X66545000Y26625000D03*
X67205000Y39335000D03*
D87*
%TO.N,CAN_H*%
X83659974Y26210000D03*
%TO.N,CAN_L*%
X83660018Y27479991D03*
D86*
%TO.N,PWM1_OUT*%
X19725000Y29326477D03*
%TO.N,LIFT3*%
X32825000Y24875000D03*
D87*
%TO.N,COL4*%
X16355000Y25459000D03*
D86*
%TO.N,LIFT2*%
X19694579Y33408921D03*
X26563766Y34314151D03*
X27023000Y30471600D03*
D87*
%TO.N,LIFT4*%
X38325000Y10375000D03*
D86*
X15634735Y25721599D03*
D87*
%TO.N,STM_USART1_TX*%
X77018704Y31481201D03*
X12852400Y30812248D03*
%TO.N,BHI_SWDIO*%
X36325000Y23375000D03*
X53015000Y31475000D03*
%TO.N,STM_ESP_INT*%
X12087800Y30640600D03*
X67935000Y37015000D03*
%TO.N,COL3*%
X11843354Y30095378D03*
%TO.N,STM_USART1_RX*%
X76487881Y31174600D03*
X13575000Y30834540D03*
%TO.N,STM_USART2_TX*%
X17785000Y28525000D03*
X18204998Y27094998D03*
X18215000Y24495000D03*
D86*
X33085000Y17235000D03*
D87*
%TO.N,LIFT1*%
X16545300Y30188208D03*
D86*
%TO.N,PWM2_OUT*%
X19455000Y28725000D03*
D87*
%TO.N,HSE_OSC_OUT*%
X23805000Y32695000D03*
X20235000Y32515000D03*
%TO.N,CAN_SILENT*%
X81355000Y24940000D03*
X71597442Y39935400D03*
%TO.N,FDCAN1_RX*%
X70945933Y39150911D03*
X79389800Y28871000D03*
%TO.N,ESP_JTAG_TCK_PROT*%
X79499400Y44966200D03*
X72743000Y34095000D03*
X76585021Y39761779D03*
X75447793Y38431271D03*
%TO.N,ESP_JTAG_TDO_PROT*%
X77565000Y39625000D03*
X73181467Y40092370D03*
X73251000Y33079000D03*
X71215002Y36735000D03*
X79466717Y44476317D03*
D85*
X75614947Y37874311D03*
D87*
%TO.N,FDCAN1_TX*%
X71266315Y39539979D03*
X80261400Y25255800D03*
%TO.N,ESP_JTAG_TDI_PROT*%
X79123468Y43713159D03*
D85*
X77272895Y38742708D03*
%TO.N,BHI_SWDCLK*%
X35903800Y24007200D03*
X46745400Y29508212D03*
D87*
%TO.N,BHI_RSTQ*%
X49055000Y29855000D03*
X47389938Y33455000D03*
X37655000Y30385000D03*
%TO.N,ESP_JTAG_TMS_PROT*%
X69065000Y43035000D03*
X72285800Y34044200D03*
%TO.N,BHI_CS*%
X54445000Y32713378D03*
X50295000Y35335000D03*
X49565000Y30445000D03*
X54822183Y34944098D03*
D84*
%TO.N,Net-(J14-Pin_3)*%
X86075000Y21625000D03*
D87*
%TO.N,ESP_UART_DEBUG_TX*%
X76335000Y32035000D03*
X69895000Y40015000D03*
X70695000Y43275000D03*
X78605000Y35805000D03*
X76035000Y43145000D03*
X70475000Y38745000D03*
D84*
%TO.N,Net-(R5-Pad2)*%
X67254181Y30425419D03*
X76684800Y21903000D03*
X68871114Y43645409D03*
X82021668Y45673236D03*
D85*
X83207468Y45525000D03*
D87*
X68258857Y40276671D03*
%TO.N,Net-(J12-Pin_4)*%
X48483646Y51754896D03*
X48511701Y50015481D03*
D85*
%TO.N,ESP_UART_DEBUG_RX*%
X74365000Y29113800D03*
D87*
X75815000Y35315000D03*
X73239836Y36609836D03*
X77345000Y37745000D03*
D86*
X73065000Y29175000D03*
D87*
X79075000Y36345000D03*
%TO.N,ESP_JTAG_TDI*%
X82645000Y42755000D03*
%TO.N,ESP_JTAG_TMS*%
X82141000Y44509000D03*
%TO.N,ESP_JTAG_TDO*%
X81807637Y43223225D03*
D85*
X92555000Y36635000D03*
X86310511Y38970200D03*
%TO.N,ESP_JTAG_TCK*%
X94609899Y37440162D03*
D87*
%TO.N,STM_RTS*%
X78615000Y31585000D03*
D86*
%TO.N,STM_DTR*%
X71727000Y27491000D03*
D87*
X72175000Y32215000D03*
X75825164Y32575164D03*
%TO.N,ESP_DTR*%
X80065000Y35715000D03*
X79065000Y37435000D03*
D86*
%TO.N,Net-(Q1B-C2)*%
X8501161Y19210713D03*
X7048362Y21598362D03*
X10259000Y22125000D03*
D87*
%TO.N,Net-(Q3B-C2)*%
X12562976Y42373558D03*
X13680934Y21196961D03*
D86*
X16033434Y18946303D03*
D85*
%TO.N,Net-(R13-Pad2)*%
X85812728Y35825606D03*
D84*
X78351700Y17661200D03*
D87*
%TO.N,Net-(Q4B-C2)*%
X13575700Y43619255D03*
X10953828Y41715000D03*
X10815800Y46719427D03*
%TO.N,Net-(Q6B-C2)*%
X1439000Y46755000D03*
X353000Y46033000D03*
D86*
%TO.N,Net-(Q1A-C1)*%
X11275000Y22919000D03*
X6883670Y19083969D03*
X7980129Y19963220D03*
D87*
%TO.N,STM_SWDCLK_PROT*%
X79558194Y47690171D03*
X10664182Y36195854D03*
%TO.N,STM_SWDIO_PROT*%
X79015000Y48005000D03*
X10005000Y36076200D03*
%TO.N,STM_NRESET*%
X81883923Y48262631D03*
X99039376Y39675624D03*
D85*
X95995936Y34685166D03*
D87*
%TO.N,Net-(Q2A-C1)*%
X14779083Y22651990D03*
X12106411Y20047973D03*
X12267258Y19500412D03*
X13087722Y21655995D03*
X13018612Y20764477D03*
X10643732Y17750143D03*
%TO.N,Net-(Q3A-C1)*%
X16775000Y38525000D03*
X17045000Y34575000D03*
D86*
X17181240Y26531715D03*
X16060931Y29865181D03*
D87*
%TO.N,Net-(Q6A-C1)*%
X833600Y45271000D03*
X2639000Y43239000D03*
X3039000Y46755000D03*
%TO.N,SIG_KILL*%
X70115000Y43415000D03*
D85*
X56885000Y37775000D03*
D87*
X67710500Y36620388D03*
X69425000Y39025000D03*
D85*
%TO.N,SIG_RUN*%
X84935000Y45702800D03*
X69470025Y46018874D03*
X59260492Y35106200D03*
X64395000Y37295000D03*
X67677764Y44135302D03*
X66575000Y40055000D03*
D87*
%TO.N,PMW_MISO*%
X57147400Y42883400D03*
X51178686Y47603964D03*
%TO.N,PMW_CS1*%
X68445000Y32670200D03*
X45642685Y51709095D03*
%TO.N,PMW_RESET*%
X55315001Y35005001D03*
X44678182Y51322509D03*
%TO.N,PMW_CS2*%
X60950736Y32584245D03*
X45152927Y51491730D03*
%TO.N,PMW_MOSI*%
X69695000Y32235000D03*
X47837650Y49901229D03*
%TO.N,PMW_SCLK*%
X61596582Y33303092D03*
X46912812Y42759668D03*
D86*
%TO.N,RGB_LED*%
X56668042Y49813842D03*
D87*
X15535000Y32535000D03*
%TO.N,BHI_SCLK_3V3*%
X51102200Y39937000D03*
X64982385Y39457653D03*
%TO.N,BHI_MOSI_3V3*%
X53642200Y40800600D03*
X63853000Y40597400D03*
%TO.N,BHI_CS_3V3*%
X50515179Y40061179D03*
X62329000Y39225800D03*
%TO.N,BHI_RSTQ_3V3*%
X49295827Y39993029D03*
X66617276Y37902727D03*
D86*
%TO.N,Net-(D4-K)*%
X56748249Y43584671D03*
X58245000Y45655000D03*
D87*
%TO.N,BHI_HIRQ_3V3*%
X61770200Y38768600D03*
X49844972Y40087635D03*
%TO.N,Net-(D3-K)*%
X61086727Y41622723D03*
X60170000Y44890000D03*
%TO.N,BHI_MISO_3V3*%
X51864200Y40089400D03*
X65582076Y39501714D03*
%TO.N,BHI_MISO*%
X53405000Y32735000D03*
X53344430Y34694516D03*
X50325000Y31125000D03*
X54366983Y34656218D03*
%TO.N,BHI_MOSI*%
X48151398Y30623541D03*
X47685000Y32605000D03*
%TO.N,BHI_SCLK*%
X46328456Y28562682D03*
X49885000Y29965000D03*
X49345000Y36955000D03*
X47325000Y35125000D03*
%TO.N,BHI_HIRQ*%
X48465000Y30275000D03*
X47433032Y32982664D03*
%TO.N,+3V3*%
X15445120Y33925120D03*
X5941000Y49405000D03*
X1439000Y49405000D03*
D83*
X66152777Y44797466D03*
X25865700Y30375000D03*
D87*
X12291000Y47728800D03*
X7871400Y47658600D03*
D83*
X46729778Y38125000D03*
X91820733Y25532667D03*
D84*
X30883800Y41207000D03*
D83*
X19993283Y27396963D03*
X42771000Y24846000D03*
D87*
X13815000Y44255000D03*
D83*
X46327000Y24951000D03*
X44200000Y37000000D03*
D87*
X11136185Y29125000D03*
D83*
X82446425Y29188058D03*
D87*
X10735000Y33925000D03*
X3147000Y49405000D03*
%TO.N,Net-(J12-Pin_2)*%
X47237031Y49944362D03*
X47135628Y52248111D03*
X45101700Y55125000D03*
%TD*%
D88*
%TO.N,GND*%
X10175500Y19231200D02*
X11127900Y19231200D01*
D89*
X53953615Y29569615D02*
X53953615Y29726170D01*
D90*
X13377022Y45916207D02*
X13377022Y45895704D01*
D91*
X9926462Y24491462D02*
X9890741Y24455741D01*
D88*
X10768350Y26166300D02*
X11324250Y26166300D01*
D92*
X25101700Y33942200D02*
X24085300Y34958600D01*
X23351700Y30117500D02*
X23264523Y30204677D01*
X21035000Y25065000D02*
X20958507Y24988507D01*
D90*
X7601700Y19354101D02*
X7610599Y19363000D01*
D91*
X7634478Y21305000D02*
X7131153Y20801675D01*
D90*
X8101700Y45247800D02*
X8469417Y45247800D01*
D93*
X17849077Y38927667D02*
X17849077Y39175000D01*
D94*
X54414982Y37857366D02*
X54219982Y37857366D01*
D91*
X92555000Y45525000D02*
X93281700Y45525000D01*
D92*
X93745000Y41495000D02*
X93745000Y44948300D01*
D89*
X40035000Y35685000D02*
X40070500Y35685000D01*
D92*
X39601700Y20205000D02*
X39605000Y20195000D01*
D93*
X8351700Y46755000D02*
X8351700Y45497800D01*
D88*
X11451700Y18907400D02*
X11451700Y18505000D01*
D95*
X6519260Y20005000D02*
X7131153Y20616893D01*
D93*
X77282951Y26118751D02*
X76851700Y25687500D01*
D92*
X24086952Y35055000D02*
X24015000Y35055000D01*
D89*
X43425368Y38394182D02*
X43425375Y38394189D01*
D88*
X52560000Y30680000D02*
X52560000Y31080000D01*
D92*
X23351700Y30117500D02*
X24240700Y30117500D01*
X21691675Y30732525D02*
X20919200Y31505000D01*
X23264523Y30204677D02*
X21691675Y30204677D01*
D89*
X36514956Y34164956D02*
X36476195Y34164956D01*
D88*
X52735000Y31015000D02*
X52560000Y31080000D01*
D93*
X50125000Y32465000D02*
X50125000Y32916800D01*
D92*
X87451700Y35405000D02*
X87451700Y36828324D01*
D88*
X9926462Y25324412D02*
X10768350Y26166300D01*
X16101700Y47667500D02*
X16065000Y47630800D01*
D93*
X78705000Y26165000D02*
X78665000Y26165000D01*
D89*
X33324849Y33785489D02*
X33315000Y33795338D01*
X56921371Y23813770D02*
X57140000Y23813770D01*
X32226553Y37792849D02*
X32377151Y37792849D01*
D88*
X15930865Y21329845D02*
X16235987Y21634967D01*
D96*
X11783000Y46627000D02*
X11785000Y46625000D01*
D88*
X9880300Y18505000D02*
X9851700Y18505000D01*
X6001700Y18887618D02*
X6105133Y18991051D01*
D92*
X25415000Y42685000D02*
X25351700Y42748300D01*
D89*
X48865000Y26957500D02*
X49935000Y26957500D01*
D93*
X6201700Y43947800D02*
X6201700Y43148300D01*
D88*
X6001700Y18505000D02*
X6001700Y18887618D01*
X13895000Y18365000D02*
X13815000Y18445000D01*
D89*
X49935000Y26957500D02*
X49945000Y26947500D01*
D91*
X17849077Y39175000D02*
X17849077Y37832073D01*
D92*
X93448139Y34033952D02*
X93448139Y34353951D01*
X92907090Y34895000D02*
X92465000Y34895000D01*
D88*
X52560000Y30280000D02*
X52560000Y30680000D01*
X15415000Y18509730D02*
X15415000Y18295000D01*
D93*
X77282951Y26118751D02*
X78618751Y26118751D01*
D88*
X9880300Y18936000D02*
X10175500Y19231200D01*
X81064200Y47255000D02*
X81655000Y47255000D01*
D93*
X85666492Y42018700D02*
X85710192Y41975000D01*
D91*
X93281700Y45525000D02*
X93801700Y45005000D01*
D89*
X57140000Y23813770D02*
X57155000Y23798770D01*
D92*
X24085300Y35056652D02*
X24086952Y35055000D01*
D88*
X16235987Y21634967D02*
X16278800Y21634967D01*
D90*
X13377022Y45895704D02*
X13356519Y45895704D01*
X13356519Y45895704D02*
X13392702Y45931887D01*
D92*
X25294700Y42755000D02*
X25415000Y42685000D01*
X21174490Y35293945D02*
X21928623Y35293945D01*
D93*
X81046174Y43976317D02*
X80283674Y43976317D01*
X98601700Y33255000D02*
X98601695Y33255000D01*
D89*
X32601700Y44755000D02*
X30179646Y44755000D01*
D93*
X4377000Y46755000D02*
X4417000Y46795000D01*
D88*
X9880300Y18505000D02*
X9851700Y18533600D01*
D90*
X13377022Y45895704D02*
X13377022Y45493826D01*
D92*
X38101700Y21822500D02*
X38154200Y21875000D01*
X25351700Y42748300D02*
X25351700Y44255000D01*
D90*
X13377022Y45493826D02*
X13121781Y45238585D01*
D93*
X8351700Y45497800D02*
X8101700Y45247800D01*
D92*
X19618193Y24988507D02*
X19601700Y25005000D01*
X78045000Y22880000D02*
X78044996Y22880000D01*
X20958507Y24988507D02*
X19618193Y24988507D01*
D95*
X13401700Y46755000D02*
X13401700Y45920382D01*
D90*
X8469417Y45247800D02*
X8601304Y45379687D01*
D89*
X56832601Y23813770D02*
X57140000Y23813770D01*
D92*
X21111493Y24988507D02*
X21035000Y25065000D01*
D89*
X38601700Y36341700D02*
X38575000Y36315000D01*
X40070500Y35685000D02*
X40113000Y35642500D01*
D94*
X54415000Y37857384D02*
X54414982Y37857366D01*
D89*
X33315000Y33795338D02*
X33315000Y33735000D01*
D88*
X11601700Y26443750D02*
X11601700Y27180000D01*
D93*
X9683700Y33587000D02*
X9689200Y33592500D01*
D92*
X21928623Y35293945D02*
X22097351Y35462673D01*
D91*
X8101700Y21305000D02*
X7634478Y21305000D01*
D92*
X37915900Y7213100D02*
X37450000Y7679000D01*
D93*
X3839000Y45488585D02*
X3839000Y46755000D01*
D95*
X6201700Y20005000D02*
X6519260Y20005000D01*
D92*
X93449200Y34032891D02*
X93448139Y34033952D01*
D93*
X16101700Y35505000D02*
X16101700Y37180290D01*
D89*
X36465000Y35712226D02*
X36464638Y35711864D01*
D92*
X93449200Y33005000D02*
X93449200Y34032891D01*
D89*
X30179646Y44755000D02*
X28665213Y43240567D01*
D88*
X9880300Y18505000D02*
X9880300Y18936000D01*
D92*
X38154200Y21875000D02*
X38235000Y21875000D01*
D91*
X7388685Y35333706D02*
X6213706Y35333706D01*
D93*
X85443000Y42018700D02*
X85666492Y42018700D01*
X80301700Y47255000D02*
X81064200Y47255000D01*
X78710000Y26210000D02*
X78705000Y26205000D01*
D95*
X7613315Y26835410D02*
X7378478Y27070247D01*
D93*
X98601695Y33255000D02*
X98601690Y33255005D01*
D96*
X7601700Y18505000D02*
X7601700Y19354101D01*
D89*
X36535000Y34185000D02*
X36514956Y34164956D01*
D93*
X16101700Y37180290D02*
X17849077Y38927667D01*
D88*
X12001704Y21304996D02*
X12001704Y21304992D01*
X11127900Y19231200D02*
X11451700Y18907400D01*
D90*
X13401700Y45940885D02*
X13377022Y45916207D01*
D89*
X53772000Y29388000D02*
X53953615Y29569615D01*
D88*
X11324250Y26166300D02*
X11601700Y26443750D01*
D93*
X6751700Y45628700D02*
X6804600Y45575800D01*
D92*
X24240700Y30117500D02*
X24483000Y30359800D01*
D95*
X8111376Y26835410D02*
X7613315Y26835410D01*
D91*
X9926462Y25324412D02*
X9926462Y24491462D01*
D89*
X41601700Y23142500D02*
X41585000Y23115000D01*
D92*
X93448139Y34353951D02*
X92907090Y34895000D01*
D89*
X32377151Y37792849D02*
X32395000Y37775000D01*
D90*
X13401700Y45920382D02*
X13377022Y45895704D01*
D93*
X8735000Y33587000D02*
X9683700Y33587000D01*
X3589000Y45238585D02*
X3839000Y45488585D01*
X6201700Y43148300D02*
X6250000Y43100000D01*
D91*
X6213706Y35333706D02*
X6195000Y35315000D01*
D93*
X81046174Y43976317D02*
X81695000Y43976317D01*
X54219982Y38124210D02*
X54219982Y37857366D01*
D92*
X21198566Y24988507D02*
X21111493Y24988507D01*
D93*
X78665000Y26165000D02*
X78618751Y26118751D01*
D89*
X38601700Y36392500D02*
X38601700Y36341700D01*
D88*
X10015000Y20005000D02*
X10101700Y20005000D01*
X16065000Y47630800D02*
X16065000Y47905000D01*
D92*
X21691675Y30204677D02*
X21691675Y30732525D01*
X37915900Y6663000D02*
X37915900Y7213100D01*
D93*
X6751700Y46755000D02*
X6751700Y45628700D01*
D88*
X13815000Y18445000D02*
X13815000Y18509730D01*
D92*
X24085300Y34958600D02*
X24085300Y35056652D01*
D88*
X12001700Y21305000D02*
X12001704Y21304996D01*
D95*
X7131153Y20616893D02*
X7131153Y20801675D01*
D93*
X3839000Y46755000D02*
X4377000Y46755000D01*
D92*
X87451700Y36828324D02*
X86735024Y37545000D01*
X25101700Y33255000D02*
X25101700Y33942200D01*
D93*
X78705000Y26205000D02*
X78705000Y26165000D01*
X47455000Y31552500D02*
X47455000Y31681600D01*
X81655000Y47255000D02*
X81665000Y47245000D01*
D92*
X93745000Y44948300D02*
X93801700Y45005000D01*
D88*
%TO.N,~{STM_NRST}*%
X19784200Y31505000D02*
X19868751Y31505000D01*
X45848772Y35382523D02*
X46075000Y35608751D01*
X19047400Y23130599D02*
X18675000Y23502999D01*
X79856700Y48725000D02*
X77515000Y48725000D01*
X53235000Y51125000D02*
X53255000Y51145000D01*
X19784200Y31505000D02*
X19375605Y31096405D01*
X80326700Y48255000D02*
X79856700Y48725000D01*
X21325000Y32961249D02*
X21325000Y33385000D01*
X19047400Y22480600D02*
X19047400Y23130599D01*
X18014200Y31092500D02*
X18992307Y31092500D01*
X18119083Y28035200D02*
X18066283Y28088000D01*
X19104800Y28035200D02*
X18119083Y28035200D01*
X53255000Y51145000D02*
X77370785Y51145000D01*
X19135000Y28005000D02*
X19104800Y28035200D01*
X46075000Y44511000D02*
X46835000Y45271000D01*
X77370785Y51145000D02*
X77572785Y50943000D01*
X46075000Y35608751D02*
X46075000Y44511000D01*
X19868751Y31505000D02*
X21325000Y32961249D01*
X19375605Y31096405D02*
X18996212Y31096405D01*
X18992307Y31092500D02*
X18996212Y31096405D01*
X18675000Y23502999D02*
X18675000Y27215000D01*
%TO.N,Net-(C19-Pad1)*%
X22950300Y34559700D02*
X22950300Y34958600D01*
X23825000Y33685000D02*
X22950300Y34559700D01*
%TO.N,Net-(U1-VCAP)*%
X12101700Y25774650D02*
X12101700Y27180000D01*
X11651462Y25324412D02*
X12101700Y25774650D01*
%TO.N,Net-(C22-Pad1)*%
X25101700Y32120000D02*
X25232700Y32251000D01*
X25232700Y32251000D02*
X25232700Y32342600D01*
X22425000Y32585000D02*
X22425000Y32530583D01*
X22425000Y32530583D02*
X22612983Y32342600D01*
D91*
%TO.N,+3.3VA*%
X19854498Y30092500D02*
X19966675Y30204677D01*
X18822292Y30092500D02*
X18868292Y30046500D01*
X18868292Y30046500D02*
X19309448Y30046500D01*
X19833124Y30071126D02*
X19476764Y30071126D01*
X19966675Y30204677D02*
X19833124Y30071126D01*
D93*
X24444950Y28267310D02*
X23476890Y28267310D01*
D91*
X19309448Y30046500D02*
X19355448Y30092500D01*
X19355448Y30092500D02*
X19854498Y30092500D01*
D93*
X23314600Y26678200D02*
X23314600Y28355400D01*
X23314600Y28355400D02*
X23351700Y28392500D01*
X23476890Y28267310D02*
X23351700Y28392500D01*
D91*
X18014200Y30092500D02*
X18822292Y30092500D01*
D88*
%TO.N,ESP_EN*%
X86849017Y38954879D02*
X87413938Y39519800D01*
D93*
X56832601Y26353770D02*
X54271430Y26353770D01*
D88*
X73301800Y40699000D02*
X73150370Y40547570D01*
X77365800Y41645400D02*
X78215799Y41645400D01*
X73901831Y41645400D02*
X73301800Y41045369D01*
X79765000Y40096199D02*
X79765000Y39385000D01*
X67945000Y27289658D02*
X66674771Y26019429D01*
D93*
X54271430Y26353770D02*
X53540600Y27084600D01*
D88*
X57166942Y26019429D02*
X56832601Y26353770D01*
X87413938Y39519800D02*
X90626568Y39519800D01*
X96736141Y38375000D02*
X96875000Y38513859D01*
X95065000Y36795000D02*
X96645000Y38375000D01*
X72942169Y40547570D02*
X67945000Y35550401D01*
X78215799Y41645400D02*
X79765000Y40096199D01*
D93*
X53540600Y27084600D02*
X53540600Y28253000D01*
D88*
X67945000Y35550401D02*
X67945000Y27289658D01*
X80365000Y39385000D02*
X80915000Y38835000D01*
X86849017Y38674215D02*
X86849017Y38954879D01*
X93351368Y36795000D02*
X95065000Y36795000D01*
X73301800Y41045369D02*
X73301800Y40699000D01*
X73150370Y40547570D02*
X72942169Y40547570D01*
X77365800Y41645400D02*
X73901831Y41645400D01*
X96645000Y38375000D02*
X96736141Y38375000D01*
X66674771Y26019429D02*
X57166942Y26019429D01*
X90626568Y39519800D02*
X93351368Y36795000D01*
X79765000Y39385000D02*
X80365000Y39385000D01*
D89*
%TO.N,VBAT*%
X34739638Y35711864D02*
X34148536Y35711864D01*
X34739638Y37176038D02*
X34739638Y35711864D01*
X39789200Y43255000D02*
X39789200Y40755000D01*
X28004638Y34709514D02*
X27304019Y34709514D01*
D91*
X32102138Y34961864D02*
X33283474Y34961864D01*
D89*
X29452800Y47153154D02*
X29452800Y48379957D01*
X39789200Y37691300D02*
X40113000Y37367500D01*
X32636700Y47290000D02*
X34947800Y47290000D01*
D92*
X23726700Y47705000D02*
X22044600Y47705000D01*
D89*
X35681100Y38117500D02*
X34739638Y37176038D01*
X34084200Y35679840D02*
X34084200Y35776200D01*
X38789200Y44255000D02*
X39789200Y43255000D01*
D95*
X44200000Y47750000D02*
X44825000Y48375000D01*
X44825000Y48375000D02*
X44825000Y49125000D01*
D89*
X39789200Y38298600D02*
X39789200Y37691300D01*
X33324849Y34920489D02*
X34084200Y35679840D01*
X34947800Y47290000D02*
X36014600Y47290000D01*
X39135500Y38117500D02*
X38601700Y38117500D01*
X34148536Y35711864D02*
X34084200Y35776200D01*
X38601700Y38117500D02*
X35681100Y38117500D01*
X41700368Y38394182D02*
X39884782Y38394182D01*
X28665213Y46365567D02*
X29452800Y47153154D01*
D95*
X81829185Y50437000D02*
X85055999Y47210186D01*
X46575000Y50875000D02*
X51175000Y50875000D01*
D89*
X19139200Y47655000D02*
X19101700Y47617500D01*
X22298588Y48865012D02*
X22451000Y48712600D01*
D93*
X88113389Y40002585D02*
X90934046Y40002585D01*
D89*
X36014600Y47290000D02*
X36449600Y46855000D01*
X38826700Y48755000D02*
X36412800Y48755000D01*
X22451000Y47705000D02*
X22451000Y48712600D01*
D95*
X44825000Y49125000D02*
X46575000Y50875000D01*
D89*
X39789200Y38298600D02*
X39316600Y38298600D01*
X31476743Y48379957D02*
X32601700Y47255000D01*
X27304019Y34709514D02*
X26953338Y35060195D01*
D93*
X85443000Y40293700D02*
X85692602Y40543302D01*
D92*
X39039200Y40005000D02*
X39789200Y40755000D01*
D89*
X38789200Y44255000D02*
X38789200Y46817500D01*
X38789200Y46817500D02*
X38826700Y46855000D01*
X22451000Y47705000D02*
X22044600Y47705000D01*
X22044600Y47705000D02*
X21401700Y47705000D01*
D95*
X41700368Y38394182D02*
X41700368Y41775000D01*
X51175000Y50875000D02*
X51565000Y50485000D01*
D91*
X54605000Y50495000D02*
X54663000Y50437000D01*
D89*
X39316600Y38298600D02*
X39135500Y38117500D01*
X39884782Y38394182D02*
X39789200Y38298600D01*
D93*
X85692602Y40543302D02*
X87572672Y40543302D01*
D89*
X36412800Y48755000D02*
X34947800Y47290000D01*
X17651700Y47617500D02*
X17601700Y47667500D01*
X21351700Y47655000D02*
X19139200Y47655000D01*
X29452800Y48379957D02*
X31476743Y48379957D01*
D93*
X87572672Y40543302D02*
X88113389Y40002585D01*
D91*
X85571600Y43430416D02*
X85571600Y45325000D01*
D89*
X32601700Y47255000D02*
X32636700Y47290000D01*
D91*
X33283474Y34961864D02*
X33324849Y34920489D01*
D89*
X34739638Y35711864D02*
X34739638Y34176513D01*
D92*
X37201700Y40005000D02*
X39039200Y40005000D01*
D95*
X54663000Y50437000D02*
X81829185Y50437000D01*
D89*
X19101700Y47617500D02*
X17651700Y47617500D01*
D93*
X90934046Y40002585D02*
X91176245Y39760386D01*
D89*
X34739638Y34176513D02*
X34751195Y34164956D01*
X39789200Y40755000D02*
X39789200Y38298600D01*
X21401700Y47705000D02*
X21351700Y47655000D01*
X36449600Y46855000D02*
X38826700Y46855000D01*
D91*
X85100592Y42959408D02*
X85571600Y43430416D01*
%TO.N,Net-(C36-Pad1)*%
X28034638Y32711864D02*
X28034638Y33681864D01*
X28034638Y33681864D02*
X28004638Y33711864D01*
%TO.N,Net-(U5-SW)*%
X31682592Y34461864D02*
X32102138Y34461864D01*
X30663000Y32340548D02*
X30291684Y32711864D01*
X30663000Y27919701D02*
X30663000Y32340548D01*
X29169638Y32711864D02*
X30291684Y32711864D01*
X31440138Y34219410D02*
X31682592Y34461864D01*
X31440138Y33860318D02*
X31440138Y34219410D01*
X30291684Y32711864D02*
X31440138Y33860318D01*
D92*
%TO.N,Net-(C38-Pad1)*%
X29520446Y37910204D02*
X29520446Y39013903D01*
D91*
%TO.N,Net-(U5-FB)*%
X30622138Y35461864D02*
X30622138Y35673512D01*
X30622138Y35673512D02*
X29520446Y36775204D01*
X30012155Y37266913D02*
X29520446Y36775204D01*
X28887068Y37408582D02*
X29520446Y36775204D01*
X28206841Y37408582D02*
X28887068Y37408582D01*
X30867530Y37266913D02*
X30012155Y37266913D01*
D89*
%TO.N,Net-(U6-BP)*%
X41101700Y48755000D02*
X42716700Y48755000D01*
D92*
%TO.N,+5V*%
X77140103Y27803726D02*
X76738574Y28205255D01*
X78710000Y27480000D02*
X78386274Y27803726D01*
X70711000Y22919000D02*
X70720230Y22909770D01*
X75536601Y27003282D02*
X76738574Y28205255D01*
X70720230Y22909770D02*
X75273770Y22909770D01*
D89*
X41201700Y46755000D02*
X41101700Y46855000D01*
D92*
X75536601Y23172601D02*
X75536601Y27003282D01*
X45245000Y24915000D02*
X48765000Y21395000D01*
X48765000Y21395000D02*
X54885000Y21395000D01*
D89*
X43101700Y46755000D02*
X41201700Y46755000D01*
D92*
X76851700Y27515323D02*
X77140103Y27803726D01*
X78386274Y27803726D02*
X77140103Y27803726D01*
X76851700Y26822500D02*
X76851700Y27515323D01*
X45245000Y44611700D02*
X45245000Y24915000D01*
X75273770Y22909770D02*
X75536601Y23172601D01*
X43101700Y46755000D02*
X45245000Y44611700D01*
D93*
%TO.N,Net-(C55-Pad2)*%
X98714200Y27117500D02*
X98601700Y27005000D01*
X98714200Y30505000D02*
X98714200Y32007500D01*
X98714200Y30505000D02*
X98714200Y27117500D01*
X98714200Y32007500D02*
X98601700Y32120000D01*
D97*
%TO.N,CP2105_VIO*%
X79710434Y29313500D02*
X79838934Y29185000D01*
X78889000Y29313500D02*
X79710434Y29313500D01*
X79838934Y29185000D02*
X81605000Y29165000D01*
D88*
X82611332Y31745368D02*
X82601700Y31755000D01*
X81851700Y31755000D02*
X81314200Y32292500D01*
D97*
X81785000Y30845000D02*
X81785000Y31688300D01*
X81785000Y31688300D02*
X81851700Y31755000D01*
D88*
X82611332Y30755000D02*
X82611332Y31745368D01*
X81314200Y32792500D02*
X81314200Y32292500D01*
X82601700Y31755000D02*
X81851700Y31755000D01*
D97*
X78057500Y30145000D02*
X78889000Y29313500D01*
%TO.N,VUSB*%
X80488856Y30135000D02*
X80317500Y30135000D01*
D88*
X84390032Y30417094D02*
X83917938Y29945000D01*
X84390032Y33429167D02*
X84390032Y30417094D01*
D97*
X81062356Y29561500D02*
X80488856Y30135000D01*
X81842644Y29561500D02*
X81062356Y29561500D01*
D88*
X84438000Y33381199D02*
X84438000Y32774306D01*
D93*
X85504906Y31707400D02*
X87119400Y31707400D01*
D97*
X82305000Y29945000D02*
X82226144Y29945000D01*
D88*
X80317500Y30135000D02*
X80277991Y30174509D01*
X80317500Y30335309D02*
X80156700Y30174509D01*
D93*
X84438000Y32774306D02*
X85504906Y31707400D01*
D88*
X83764199Y34055000D02*
X84390032Y33429167D01*
D97*
X80317500Y30135000D02*
X80317500Y30942565D01*
D88*
X83101700Y34055000D02*
X83764199Y34055000D01*
X80101700Y31580000D02*
X80601700Y31580000D01*
X83764199Y34055000D02*
X84438000Y33381199D01*
D97*
X80317500Y30942565D02*
X80101700Y31158365D01*
X80101700Y31158365D02*
X80101700Y31580000D01*
D88*
X83917938Y29945000D02*
X82305000Y29945000D01*
X80277991Y30174509D02*
X80156700Y30174509D01*
D97*
X82226144Y29945000D02*
X81842644Y29561500D01*
D93*
%TO.N,Net-(U9-VPP)*%
X76175000Y33317500D02*
X76650000Y33792500D01*
X76650000Y33792500D02*
X77389200Y33792500D01*
D91*
%TO.N,SEN8*%
X10360600Y50718900D02*
X11075000Y51433300D01*
X11075000Y51433300D02*
X11801700Y50706600D01*
X11801700Y50706600D02*
X11801700Y48455000D01*
X11075000Y51433300D02*
X12037000Y52395300D01*
X10861415Y44588585D02*
X10360600Y45089400D01*
X10360600Y45089400D02*
X10360600Y49265500D01*
X12037000Y52395300D02*
X12037000Y62935000D01*
X11221781Y44588585D02*
X10861415Y44588585D01*
X10360600Y49265500D02*
X10360600Y50718900D01*
D88*
%TO.N,SEN2*%
X7575175Y17528543D02*
X7575175Y17634975D01*
X7671632Y17625000D02*
X7575175Y17528543D01*
X9075000Y18125000D02*
X8575000Y17625000D01*
X8100000Y20655000D02*
X8424999Y20655000D01*
X8424999Y20655000D02*
X9075000Y20004999D01*
X9075000Y20004999D02*
X9075000Y18125000D01*
D93*
X4577000Y6552000D02*
X4577000Y2599000D01*
X9082937Y11057937D02*
X4577000Y6552000D01*
D88*
X8575000Y17625000D02*
X7671632Y17625000D01*
D93*
X9082937Y14759334D02*
X9082937Y11057937D01*
D91*
X7651175Y17007273D02*
X7651175Y17452543D01*
D93*
%TO.N,SEN4*%
X11783000Y9711000D02*
X9577000Y7505000D01*
D91*
X11496875Y16961524D02*
X11496875Y17406794D01*
D88*
X12001700Y20655000D02*
X12326699Y20655000D01*
X11907109Y17778800D02*
X11536123Y17407814D01*
X12727900Y20253799D02*
X12727900Y17778800D01*
D93*
X9577000Y7505000D02*
X9577000Y2599000D01*
D88*
X12727900Y17778800D02*
X11907109Y17778800D01*
D91*
X11783000Y14791000D02*
X11783000Y9711000D01*
D88*
X12326699Y20655000D02*
X12727900Y20253799D01*
D91*
%TO.N,COL2*%
X7968000Y30505608D02*
X7968000Y30798000D01*
X8881108Y29592500D02*
X7968000Y30505608D01*
X9689200Y29592500D02*
X8881108Y29592500D01*
%TO.N,COL1*%
X9689200Y29092500D02*
X8339350Y29092500D01*
D93*
X20475000Y11975000D02*
X20325000Y12125000D01*
X20475000Y10075000D02*
X20475000Y11975000D01*
D91*
X8339350Y29092500D02*
X7119530Y30312320D01*
D88*
%TO.N,SEN6*%
X16994888Y18125000D02*
X16994888Y19205111D01*
X16994888Y19205111D02*
X17347725Y19557948D01*
X15633000Y17625000D02*
X16494888Y17625000D01*
X16186309Y20679845D02*
X16200601Y20694137D01*
D91*
X15415000Y17255000D02*
X15339000Y17331000D01*
D88*
X15339000Y17331000D02*
X15633000Y17625000D01*
X15930865Y20679845D02*
X16186309Y20679845D01*
D93*
X14577000Y5473000D02*
X14577000Y2599000D01*
D91*
X15415000Y16809730D02*
X15415000Y17255000D01*
X14831000Y14791000D02*
X14805000Y14765000D01*
D88*
X15721067Y20679845D02*
X16186309Y20679845D01*
D91*
X14805000Y14765000D02*
X14805000Y5701000D01*
D93*
X14805000Y5701000D02*
X14577000Y5473000D01*
D88*
X16494888Y17625000D02*
X16994888Y18125000D01*
%TO.N,SEN1*%
X5325000Y17480931D02*
X5325000Y20125000D01*
X5662331Y17143600D02*
X5325000Y17480931D01*
X5325000Y20125000D02*
X5855000Y20655000D01*
D93*
X8147931Y14730800D02*
X8147931Y11022931D01*
D88*
X5926482Y17143600D02*
X5662331Y17143600D01*
X5855000Y20655000D02*
X6201700Y20655000D01*
D93*
X2077000Y4952000D02*
X2077000Y2599000D01*
D91*
X6002482Y16884456D02*
X6002482Y17329726D01*
D93*
X8147931Y11022931D02*
X2077000Y4952000D01*
D88*
%TO.N,SEN5*%
X13702377Y17305833D02*
X13338800Y17669410D01*
D93*
X12077000Y6957000D02*
X12077000Y2599000D01*
D91*
X13815000Y14791000D02*
X13815000Y8695000D01*
D88*
X13338800Y20312779D02*
X13705866Y20679845D01*
D93*
X13815000Y8695000D02*
X12077000Y6957000D01*
D88*
X13338800Y17669410D02*
X13338800Y20312779D01*
D91*
X13778377Y16784563D02*
X13778377Y17229833D01*
D88*
X13705866Y20679845D02*
X14030865Y20679845D01*
%TO.N,SEN3*%
X10862694Y20655000D02*
X10867100Y20650594D01*
D93*
X7077000Y8077000D02*
X7077000Y2599000D01*
D97*
X9851700Y17508300D02*
X9775000Y17585000D01*
D93*
X9945970Y14800242D02*
X9945970Y10945970D01*
X9945970Y10945970D02*
X7077000Y8077000D01*
D88*
X10101700Y20655000D02*
X10862694Y20655000D01*
D97*
X9851700Y16805000D02*
X9851700Y17508300D01*
D88*
%TO.N,SEN7*%
X13401700Y48455000D02*
X14323000Y47533700D01*
D91*
X14537000Y49590300D02*
X14537000Y62935000D01*
X13401700Y48455000D02*
X14537000Y49590300D01*
D88*
X13446780Y44588585D02*
X13121781Y44588585D01*
X14323000Y45464805D02*
X13446780Y44588585D01*
X14323000Y47533700D02*
X14323000Y45464805D01*
%TO.N,USB_CONN_D+*%
X87729000Y32825000D02*
X87729000Y33942600D01*
X86666600Y35005000D02*
X85376700Y35005000D01*
X87729000Y33942600D02*
X86666600Y35005000D01*
D97*
%TO.N,Net-(J8-CC2)*%
X92253139Y34033952D02*
X92253077Y34033952D01*
D88*
%TO.N,USB_CONN_D-*%
X89557800Y33637800D02*
X89557800Y32520200D01*
X85376700Y33105000D02*
X87170200Y33105000D01*
X89557800Y32520200D02*
X89659400Y32418600D01*
D97*
%TO.N,Net-(J8-CC1)*%
X92254200Y33005000D02*
X91275300Y32026100D01*
X88121500Y32026100D02*
X87983000Y32164600D01*
X91275300Y32026100D02*
X88121500Y32026100D01*
D88*
%TO.N,+1V8*%
X47455000Y29745000D02*
X47455000Y30417500D01*
D93*
X52699136Y36989210D02*
X54219982Y36989210D01*
D88*
X48865000Y28092500D02*
X48865000Y28335000D01*
X49665894Y28915000D02*
X48865000Y28114106D01*
X48321250Y28038750D02*
X46181250Y28038750D01*
D93*
X48161200Y25738800D02*
X48161200Y26706300D01*
D88*
X48321250Y28038750D02*
X48375000Y28092500D01*
X49695000Y28944106D02*
X49695000Y28915000D01*
X46181250Y28038750D02*
X45925000Y28295000D01*
D94*
X47455000Y30417500D02*
X47455000Y30606816D01*
D88*
X48865000Y28092500D02*
X48865000Y28252500D01*
D97*
X48345000Y35825000D02*
X48345000Y36645000D01*
D88*
X48865000Y28335000D02*
X47455000Y29745000D01*
X45925000Y28295000D02*
X45871599Y28348401D01*
X48375000Y28092500D02*
X48865000Y28092500D01*
D97*
X51463770Y37375000D02*
X52274348Y36564422D01*
D88*
X45871599Y34481599D02*
X47216923Y35826923D01*
X52920500Y29880000D02*
X52560000Y29880000D01*
D97*
X49075000Y37375000D02*
X51463770Y37375000D01*
D88*
X51407000Y26152001D02*
X50781199Y25526200D01*
D89*
X42105000Y19255000D02*
X43351700Y19255000D01*
D88*
X45871599Y28348401D02*
X45871599Y34481599D01*
D93*
X38025000Y18735000D02*
X35595000Y16305000D01*
X35595000Y16305000D02*
X34945000Y16305000D01*
D88*
X53795500Y30755000D02*
X52920500Y29880000D01*
D96*
X44575000Y20125000D02*
X44575000Y19978300D01*
D97*
X48374348Y35826923D02*
X48345000Y35825000D01*
D93*
X52274348Y35826923D02*
X52274348Y36564422D01*
D88*
X48865000Y28114106D02*
X48865000Y28092500D01*
D89*
X42055000Y19205000D02*
X42105000Y19255000D01*
D93*
X48161200Y26706300D02*
X47575000Y27292500D01*
D89*
X43351700Y19255000D02*
X43601700Y19005000D01*
D88*
X47964106Y31080000D02*
X47455000Y30570894D01*
X47455000Y30570894D02*
X47455000Y30417500D01*
D97*
X48345000Y36645000D02*
X49075000Y37375000D01*
D93*
X52274348Y36564422D02*
X52699136Y36989210D01*
D96*
X44575000Y19978300D02*
X43601700Y19005000D01*
D88*
X47575000Y27292500D02*
X48321250Y28038750D01*
D93*
X41405000Y19205000D02*
X42055000Y19205000D01*
D88*
X50781199Y25526200D02*
X48102855Y25526200D01*
X49725000Y29295000D02*
X49725000Y28974106D01*
D89*
X53795500Y30755000D02*
X53795500Y32005000D01*
X41876700Y19255000D02*
X42005000Y19255000D01*
D88*
X49695000Y28915000D02*
X49665894Y28915000D01*
X49725000Y28974106D02*
X49695000Y28944106D01*
D93*
X38025000Y18895000D02*
X38025000Y18735000D01*
D88*
X47216923Y35826923D02*
X48374348Y35826923D01*
X48890000Y31080000D02*
X47964106Y31080000D01*
D89*
X42005000Y19255000D02*
X42055000Y19205000D01*
D93*
X39881000Y17681000D02*
X41405000Y19205000D01*
D88*
X51407000Y26917500D02*
X51407000Y26152001D01*
D89*
%TO.N,Net-(U12-BP)*%
X43069200Y21155000D02*
X43351700Y21437500D01*
X41876700Y21155000D02*
X43069200Y21155000D01*
D88*
%TO.N,Net-(U13-VREG)*%
X50125000Y28262500D02*
X49945000Y28082500D01*
X50125000Y29295000D02*
X50125000Y28262500D01*
D94*
X49945000Y28082500D02*
X49945000Y28212500D01*
X49945000Y28212500D02*
X50099502Y28367002D01*
D89*
%TO.N,Net-(D5-A)*%
X21451700Y44255000D02*
X21351700Y44355000D01*
X23726700Y44455000D02*
X23526700Y44255000D01*
X23726700Y45805000D02*
X23726700Y44455000D01*
X23526700Y44255000D02*
X23526700Y42798000D01*
X23526700Y44255000D02*
X21451700Y44255000D01*
X23526700Y42798000D02*
X23569700Y42755000D01*
D93*
%TO.N,Net-(J12-Pin_3)*%
X49016537Y51875000D02*
X49016674Y51875137D01*
X49016674Y51875137D02*
X49016674Y52683326D01*
X42601700Y59098300D02*
X42601700Y62935000D01*
X49440000Y49673555D02*
X49016537Y50097018D01*
X49440000Y48345000D02*
X49440000Y49673555D01*
X49016674Y52683326D02*
X42601700Y59098300D01*
D89*
%TO.N,V_IN*%
X25601700Y46755000D02*
X25601700Y61005000D01*
X25601700Y61005000D02*
X24601700Y62005000D01*
D88*
%TO.N,ADC_V_IN*%
X14601700Y28598300D02*
X14107200Y29092800D01*
X16101000Y44610600D02*
X16101000Y45841800D01*
X16101700Y45842500D02*
X17601700Y45842500D01*
X14107200Y29092800D02*
X14107200Y32392200D01*
X14601700Y27180000D02*
X14601700Y28598300D01*
X16101000Y45841800D02*
X16101700Y45842500D01*
X14107200Y32392200D02*
X14044400Y32455000D01*
D93*
%TO.N,ESP_U1TXD*%
X58825000Y29625000D02*
X58825000Y31125000D01*
X47506400Y19056400D02*
X48348400Y19056400D01*
X44890900Y16440900D02*
X47506400Y19056400D01*
X56832601Y35243770D02*
X58192154Y35243770D01*
X58825000Y31125000D02*
X59844692Y32144692D01*
X59844692Y35767674D02*
X59594366Y36018000D01*
X48348400Y19056400D02*
X48359000Y19067000D01*
X36075000Y18505000D02*
X34308000Y18505000D01*
X38140900Y16440900D02*
X44890900Y16440900D01*
X58192154Y35243770D02*
X58192480Y35244096D01*
X38075000Y16375000D02*
X38140900Y16440900D01*
X59844692Y32144692D02*
X59844692Y35767674D01*
%TO.N,ESP_U1RXD*%
X44887000Y14875000D02*
X37575000Y14875000D01*
X35345000Y16995000D02*
X35415000Y16995000D01*
X46106000Y16094000D02*
X44887000Y14875000D01*
X35085000Y17255000D02*
X35345000Y16995000D01*
X60023280Y36585312D02*
X60277249Y36331343D01*
X34308000Y17255000D02*
X35085000Y17255000D01*
X60277249Y36331343D02*
X60277249Y30906931D01*
D91*
%TO.N,SEN9*%
X8912800Y48393900D02*
X8912800Y45861601D01*
X9537000Y61819700D02*
X9537000Y62935000D01*
X9852600Y61504100D02*
X9537000Y61819700D01*
X8379400Y49436600D02*
X9852600Y50909800D01*
X9852600Y50909800D02*
X9852600Y61504100D01*
D93*
X8379400Y49436600D02*
X8351700Y49408900D01*
X8351700Y49408900D02*
X8351700Y48455000D01*
X6201700Y44597800D02*
X6588600Y44597800D01*
X8351700Y48455000D02*
X8851700Y48455000D01*
X6588600Y44597800D02*
X6957000Y44966200D01*
X8851700Y48455000D02*
X8912800Y48393900D01*
D91*
X8351700Y48455000D02*
X8351700Y48705000D01*
D93*
%TO.N,SEN9_3V3*%
X3939000Y40699800D02*
X3939000Y38383000D01*
X12650100Y36303880D02*
X12650100Y35553400D01*
X12650100Y35553400D02*
X12601700Y35505000D01*
X3939000Y38383000D02*
X4671000Y37651000D01*
X11302980Y37651000D02*
X12650100Y36303880D01*
X4671000Y37651000D02*
X11302980Y37651000D01*
D88*
%TO.N,SEN1_3V3*%
X13101700Y27180000D02*
X13101700Y24657292D01*
X13101700Y24657292D02*
X13201700Y24557292D01*
D91*
%TO.N,SEN10*%
X6751700Y48455000D02*
X6751700Y49134416D01*
X7037000Y62935000D02*
X7037000Y59961753D01*
X9243000Y57755753D02*
X9243000Y51625716D01*
D93*
X8101700Y44597800D02*
X8507589Y44597800D01*
X8507589Y44597800D02*
X9901400Y45991611D01*
X9901400Y45991611D02*
X9901400Y49737179D01*
D91*
X9243000Y51625716D02*
X7494513Y49877229D01*
X7037000Y59961753D02*
X9243000Y57755753D01*
X6751700Y49134416D02*
X7494513Y49877229D01*
D93*
%TO.N,SEN10_3V3*%
X3139000Y38612789D02*
X3139000Y40699800D01*
X12101700Y36277172D02*
X11131072Y37247800D01*
X4503989Y37247800D02*
X3139000Y38612789D01*
X11131072Y37247800D02*
X4503989Y37247800D01*
X12101700Y35505000D02*
X12101700Y36277172D01*
D88*
%TO.N,SEN2_3V3*%
X13601700Y27180000D02*
X13601700Y25207292D01*
X13601700Y25207292D02*
X14001700Y24807292D01*
X14001700Y24807292D02*
X14001700Y24557292D01*
D93*
%TO.N,SEN11*%
X4847600Y47446400D02*
X4847600Y45522186D01*
X3839000Y48455000D02*
X4349800Y48455000D01*
X4847600Y45522186D02*
X3913999Y44588585D01*
D91*
X8531800Y57259800D02*
X8531800Y52637000D01*
D93*
X3839000Y48455000D02*
X4847600Y47446400D01*
X3913999Y44588585D02*
X3589000Y44588585D01*
D91*
X8531800Y57259800D02*
X4537000Y61254600D01*
D93*
X4349800Y48455000D02*
X8531800Y52637000D01*
D91*
X4537000Y61254600D02*
X4537000Y62797000D01*
D88*
%TO.N,SEN3_3V3*%
X14101700Y27180000D02*
X14101700Y25507292D01*
X14101700Y25507292D02*
X14801700Y24807292D01*
X14801700Y24807292D02*
X14801700Y24557292D01*
D93*
%TO.N,SEN11_3V3*%
X2339000Y38459000D02*
X2339000Y40699800D01*
X8575000Y28118200D02*
X7982945Y28118200D01*
X11919618Y28530382D02*
X12023490Y28530382D01*
X12601700Y27952172D02*
X12601700Y27180000D01*
X5179000Y35619000D02*
X2339000Y38459000D01*
X5179000Y30922145D02*
X5179000Y35619000D01*
X7982945Y28118200D02*
X5179000Y30922145D01*
X12023490Y28530382D02*
X12601700Y27952172D01*
D91*
%TO.N,SEN12*%
X7922200Y52992600D02*
X5179000Y50249400D01*
D93*
X1134200Y47703400D02*
X1769400Y47703400D01*
D91*
X2037000Y61819700D02*
X2037000Y62935000D01*
D93*
X1769400Y47703400D02*
X2239000Y48173000D01*
X861000Y47430200D02*
X1134200Y47703400D01*
X2239000Y48455000D02*
X2239000Y50103400D01*
X1161800Y45779000D02*
X861000Y46079800D01*
X2239000Y48173000D02*
X2239000Y48455000D01*
D91*
X3294900Y60561800D02*
X3909000Y60561800D01*
X5179000Y50249400D02*
X2385000Y50249400D01*
D93*
X2385000Y45438303D02*
X2044303Y45779000D01*
X2385000Y44959586D02*
X2385000Y45438303D01*
X861000Y46079800D02*
X861000Y47430200D01*
X1689000Y44588585D02*
X2013999Y44588585D01*
X2239000Y50103400D02*
X2385000Y50249400D01*
X2044303Y45779000D02*
X1161800Y45779000D01*
D91*
X3294900Y60561800D02*
X2037000Y61819700D01*
X3909000Y60561800D02*
X7922200Y56548600D01*
X7922200Y56548600D02*
X7922200Y52992600D01*
D93*
X2013999Y44588585D02*
X2385000Y44959586D01*
%TO.N,SEN4_3V3*%
X14825000Y29164703D02*
X14825000Y33956128D01*
X14825000Y33956128D02*
X15601700Y34732828D01*
X15114703Y28875000D02*
X14825000Y29164703D01*
X15601700Y24557292D02*
X15601700Y25040738D01*
X15601700Y34732828D02*
X15601700Y35101800D01*
X15601700Y25040738D02*
X15114703Y25413715D01*
%TO.N,SEN12_3V3*%
X1539000Y40699800D02*
X1539000Y38688790D01*
X9689200Y28415850D02*
X9689200Y28592500D01*
X1539000Y38688790D02*
X4671000Y35556790D01*
X4671000Y30609714D02*
X7641121Y27639593D01*
X8912943Y27639593D02*
X9689200Y28415850D01*
X4671000Y35556790D02*
X4671000Y30609714D01*
X7641121Y27639593D02*
X8912943Y27639593D01*
D88*
%TO.N,SEN5_3V3*%
X15335000Y36475799D02*
X15101700Y36242499D01*
D93*
X15335000Y39128200D02*
X13789624Y40673576D01*
D88*
X15335000Y36901700D02*
X15335000Y36475799D01*
D93*
X13789624Y40673576D02*
X13362976Y40673576D01*
D88*
X15101700Y36242499D02*
X15101700Y35505000D01*
D93*
X15335000Y36901700D02*
X15335000Y39128200D01*
%TO.N,SEN6_3V3*%
X12562976Y39360224D02*
X12562976Y40673576D01*
X12595800Y38108200D02*
X12595800Y39327400D01*
X12595800Y39327400D02*
X12562976Y39360224D01*
X14004900Y36653364D02*
X14004900Y36699100D01*
X14101700Y36556564D02*
X14004900Y36653364D01*
X14004900Y36699100D02*
X12595800Y38108200D01*
X14101700Y35505000D02*
X14101700Y36556564D01*
%TO.N,SEN7_3V3*%
X13601700Y36492700D02*
X13601700Y35505000D01*
X11762976Y40673576D02*
X11762976Y38331424D01*
X11762976Y38331424D02*
X13601700Y36492700D01*
%TO.N,SEN8_3V3*%
X13101700Y36422490D02*
X13101700Y35505000D01*
X10962976Y40673576D02*
X10962976Y38561214D01*
X10962976Y38561214D02*
X13101700Y36422490D01*
%TO.N,Net-(R53-Pad1)*%
X43443146Y15545000D02*
X43444073Y15545927D01*
X37579000Y15545000D02*
X43443146Y15545000D01*
X36825000Y14791000D02*
X37579000Y15545000D01*
D88*
%TO.N,STM_SWDCLK*%
X98115000Y34745000D02*
X98145000Y34745000D01*
X98145000Y34745000D02*
X98125000Y34765000D01*
X98115000Y34775000D02*
X98115000Y34745000D01*
D97*
X81086720Y47733469D02*
X81885877Y47733469D01*
D88*
X98085000Y39365000D02*
X98085000Y34805000D01*
X98085000Y34805000D02*
X98115000Y34775000D01*
%TO.N,STM_SWDIO*%
X81101700Y46753800D02*
X81178714Y46676786D01*
X86105000Y43114000D02*
X86105000Y45403200D01*
X86389481Y36016752D02*
X85762800Y36643433D01*
X85986786Y46676786D02*
X86105000Y46795000D01*
X85762800Y36643433D02*
X85762800Y39342802D01*
X85762800Y39342802D02*
X86435000Y40015002D01*
X81178714Y46676786D02*
X85986786Y46676786D01*
%TO.N,Net-(D3-A)*%
X53460500Y48369800D02*
X56361800Y48369800D01*
X56361800Y48369800D02*
X56413400Y48318200D01*
%TO.N,Net-(D4-A)*%
X55709200Y46432400D02*
X56413400Y45728200D01*
X53460500Y46432400D02*
X55709200Y46432400D01*
D93*
%TO.N,Net-(R59-Pad1)*%
X66136676Y34563324D02*
X66545000Y34155000D01*
X69837841Y45565000D02*
X68175000Y43902159D01*
X52405000Y17385000D02*
X52365000Y17385000D01*
X52632500Y17157500D02*
X52405000Y17385000D01*
X66136676Y38266676D02*
X66136676Y34563324D01*
X53394700Y17157500D02*
X52632500Y17157500D01*
X77285400Y45565000D02*
X69837841Y45565000D01*
X77365800Y45645400D02*
X77285400Y45565000D01*
X68175000Y43902159D02*
X68175000Y43745000D01*
X67205000Y39335000D02*
X66136676Y38266676D01*
X66545000Y34155000D02*
X66545000Y26625000D01*
X52365000Y17385000D02*
X52365000Y17425000D01*
X52365000Y17425000D02*
X52445000Y17345000D01*
D91*
%TO.N,PG_3V3*%
X32102138Y35461864D02*
X32102138Y36473434D01*
X32102138Y36473434D02*
X32226553Y36597849D01*
%TO.N,Net-(U5-EN)*%
X29199638Y34709514D02*
X29447288Y34461864D01*
X29447288Y34461864D02*
X30622138Y34461864D01*
%TO.N,Net-(U5-MODE)*%
X29199638Y35716348D02*
X29448108Y35716348D01*
X30202592Y34961864D02*
X30622138Y34961864D01*
X29448108Y35716348D02*
X30202592Y34961864D01*
%TO.N,Net-(U5-BOOT)*%
X30622138Y33961864D02*
X29449638Y33961864D01*
X29449638Y33961864D02*
X29199638Y33711864D01*
%TO.N,Net-(R64-Pad1)*%
X30863000Y39245000D02*
X30484349Y39245000D01*
X30484349Y39245000D02*
X29520446Y40208903D01*
X30867530Y39240470D02*
X30863000Y39245000D01*
X30867530Y38286913D02*
X30867530Y39240470D01*
D88*
%TO.N,CAN_H*%
X83660000Y26210000D02*
X83659974Y26210000D01*
D93*
X95311438Y27005000D02*
X94763507Y27552931D01*
X96876700Y27005000D02*
X95311438Y27005000D01*
%TO.N,CAN_L*%
X96989200Y30505000D02*
X95215576Y30505000D01*
D88*
X83660000Y27480000D02*
X83660009Y27479991D01*
D93*
X95215576Y30505000D02*
X94763507Y30052931D01*
D88*
X83660009Y27479991D02*
X83660018Y27479991D01*
D97*
%TO.N,Net-(U9-RST)*%
X79252500Y30145000D02*
X79601700Y30494200D01*
X79601700Y30494200D02*
X79601700Y31580000D01*
D91*
%TO.N,PWM1_OUT*%
X19359308Y29326477D02*
X19093285Y29592500D01*
X19725000Y29326477D02*
X19359308Y29326477D01*
X19093285Y29592500D02*
X18014200Y29592500D01*
D88*
%TO.N,LIFT3*%
X17000500Y28369950D02*
X17000500Y32316299D01*
X17276701Y32592500D02*
X18014200Y32592500D01*
X18893551Y27600200D02*
X18810951Y27682800D01*
X32825000Y24875000D02*
X29325000Y24875000D01*
X17757650Y27612800D02*
X17000500Y28369950D01*
X17818510Y27612800D02*
X17757650Y27612800D01*
X17888510Y27682800D02*
X17818510Y27612800D01*
X18810951Y27682800D02*
X17888510Y27682800D01*
X19303240Y27600200D02*
X18893551Y27600200D01*
X20909240Y29206200D02*
X19303240Y27600200D01*
X29325000Y24875000D02*
X24993800Y29206200D01*
X17000500Y32316299D02*
X17276701Y32592500D01*
X24993800Y29206200D02*
X20909240Y29206200D01*
D93*
%TO.N,COL4*%
X16101700Y26028300D02*
X16365000Y25765000D01*
X16365000Y25765000D02*
X16365000Y25469000D01*
X16365000Y25469000D02*
X16355000Y25459000D01*
X16101700Y27180000D02*
X16101700Y26028300D01*
D88*
%TO.N,LIFT2*%
X19378158Y33092500D02*
X19694579Y33408921D01*
X18014200Y33092500D02*
X19378158Y33092500D01*
X26563766Y34314151D02*
X26563766Y30930834D01*
X26563766Y30930834D02*
X27023000Y30471600D01*
D93*
%TO.N,LIFT4*%
X41825000Y9375000D02*
X39325000Y9375000D01*
X46191000Y2599000D02*
X46191000Y5009000D01*
X39325000Y9375000D02*
X38325000Y10375000D01*
X15601700Y25712706D02*
X15601700Y27180000D01*
X46191000Y5009000D02*
X41825000Y9375000D01*
D88*
%TO.N,STM_USART1_TX*%
X78101700Y31580000D02*
X77117503Y31580000D01*
X9689200Y31092500D02*
X12572148Y31092500D01*
X77117503Y31580000D02*
X77018704Y31481201D01*
X12572148Y31092500D02*
X12852400Y30812248D01*
%TO.N,BHI_SWDIO*%
X52560000Y31480000D02*
X53010000Y31480000D01*
D94*
X36314700Y23375000D02*
X30364700Y17425000D01*
X30364700Y17425000D02*
X27113000Y17425000D01*
X36325000Y23375000D02*
X36314700Y23375000D01*
D88*
X53010000Y31480000D02*
X53015000Y31475000D01*
%TO.N,STM_ESP_INT*%
X68848935Y38348935D02*
X68848935Y41482436D01*
X67935000Y37435000D02*
X68848935Y38348935D01*
X68848935Y41482436D02*
X68757601Y41573770D01*
X12087800Y30640600D02*
X12039700Y30592500D01*
X67935000Y37015000D02*
X67935000Y37435000D01*
X12039700Y30592500D02*
X9689200Y30592500D01*
D97*
%TO.N,STM_BOOT*%
X14601700Y35505000D02*
X14601700Y37048700D01*
X14601700Y37048700D02*
X14613000Y37060000D01*
D93*
%TO.N,COL3*%
X11843354Y30095378D02*
X11785878Y30092500D01*
D88*
X11840476Y30092500D02*
X11843354Y30095378D01*
X9689200Y30092500D02*
X11840476Y30092500D01*
D93*
X11780122Y30092500D02*
X11843354Y30095378D01*
X11785878Y30092500D02*
X11783000Y30092500D01*
D88*
%TO.N,STM_USART1_RX*%
X13575000Y30834540D02*
X13575000Y31029200D01*
X76487881Y31579800D02*
X76487881Y31174600D01*
X13575000Y31029200D02*
X13011700Y31592500D01*
X13011700Y31592500D02*
X9689200Y31592500D01*
X77389200Y32292500D02*
X77200581Y32292500D01*
X77200581Y32292500D02*
X76487881Y31579800D01*
%TO.N,HSE_OSC_IN*%
X19830969Y32867400D02*
X19666625Y32867400D01*
X21020969Y34057400D02*
X19830969Y32867400D01*
X22425000Y33685000D02*
X22221700Y33685000D01*
X22221700Y33685000D02*
X21849300Y34057400D01*
X21849300Y34057400D02*
X21020969Y34057400D01*
X19666625Y32867400D02*
X18891725Y32092500D01*
X18891725Y32092500D02*
X18750450Y32092500D01*
D93*
%TO.N,STM_USART2_RX*%
X19038452Y16753400D02*
X17828325Y17963527D01*
X17691800Y27017990D02*
X17529790Y27180000D01*
X17828325Y17963527D02*
X17828325Y19757020D01*
X17691800Y19893545D02*
X17691800Y27017990D01*
X31361400Y16753400D02*
X19038452Y16753400D01*
X17529790Y27180000D02*
X16601700Y27180000D01*
X33113000Y18505000D02*
X31361400Y16753400D01*
X17828325Y19757020D02*
X17691800Y19893545D01*
%TO.N,STM_USART2_TX*%
X18204998Y27094998D02*
X18204998Y24505002D01*
X18204998Y24505002D02*
X18215000Y24495000D01*
D88*
%TO.N,LIFT1*%
X16545300Y32861099D02*
X16545300Y30188208D01*
X18014200Y33592500D02*
X17276701Y33592500D01*
X17276701Y33592500D02*
X16545300Y32861099D01*
D91*
%TO.N,PWM2_OUT*%
X18014200Y29092500D02*
X18951232Y29092500D01*
X18951232Y29092500D02*
X19318732Y28725000D01*
X19318732Y28725000D02*
X19455000Y28725000D01*
D88*
%TO.N,HSE_OSC_OUT*%
X18922594Y31625000D02*
X19812594Y32515000D01*
X18014200Y31592500D02*
X18792500Y31592500D01*
X18825000Y31625000D02*
X18922594Y31625000D01*
X18792500Y31592500D02*
X18825000Y31625000D01*
X19812594Y32515000D02*
X20235000Y32515000D01*
%TO.N,CAN_SILENT*%
X72567601Y40671370D02*
X71727000Y39830769D01*
X71702073Y39830769D02*
X71597442Y39935400D01*
X71727000Y39830769D02*
X71702073Y39830769D01*
X83660000Y24940000D02*
X81355000Y24940000D01*
X72567601Y41573770D02*
X72567601Y40671370D01*
%TO.N,FDCAN1_RX*%
X78831000Y28871000D02*
X79389800Y28871000D01*
X70027601Y40476689D02*
X70852800Y39651490D01*
X70852800Y39651490D02*
X70852800Y39244044D01*
X70027601Y41573770D02*
X70027601Y40476689D01*
X78710000Y28750000D02*
X78831000Y28871000D01*
X70852800Y39244044D02*
X70945933Y39150911D01*
D93*
%TO.N,ESP_JTAG_TCK_PROT*%
X75447793Y38431271D02*
X76585021Y39568499D01*
X74332601Y33973770D02*
X72864230Y33973770D01*
D97*
X80308674Y44976317D02*
X79509517Y44976317D01*
X79509517Y44976317D02*
X79499400Y44966200D01*
D93*
X72864230Y33973770D02*
X72743000Y34095000D01*
X76585021Y39568499D02*
X76585021Y39761779D01*
%TO.N,ESP_JTAG_TDO_PROT*%
X73957371Y33079000D02*
X74332601Y32703770D01*
X75614947Y37874311D02*
X77365636Y39625000D01*
X77365636Y39625000D02*
X77565000Y39625000D01*
X71215002Y38125905D02*
X71215002Y36735000D01*
X73181467Y40092370D02*
X71215002Y38125905D01*
D97*
X80308674Y44476317D02*
X79466717Y44476317D01*
D93*
X73251000Y33079000D02*
X73957371Y33079000D01*
D88*
%TO.N,FDCAN1_TX*%
X78710000Y24940000D02*
X79025800Y25255800D01*
X71297601Y41573770D02*
X71098333Y41374502D01*
X71098333Y41374502D02*
X71098333Y39904326D01*
X71205200Y39601094D02*
X71266315Y39539979D01*
X71098333Y39904326D02*
X71205200Y39797459D01*
X71205200Y39797459D02*
X71205200Y39601094D01*
X79025800Y25255800D02*
X80261400Y25255800D01*
D97*
%TO.N,ESP_JTAG_TDI_PROT*%
X79360310Y43476317D02*
X79123468Y43713159D01*
D93*
X75384201Y31532170D02*
X75285801Y31433770D01*
X75384201Y36854014D02*
X75384201Y31532170D01*
D97*
X80308674Y43476317D02*
X79360310Y43476317D01*
D93*
X77272895Y38742708D02*
X75384201Y36854014D01*
X75285801Y31433770D02*
X74332601Y31433770D01*
D88*
%TO.N,BHI_SWDCLK*%
X47120694Y32199800D02*
X47852840Y32199800D01*
X52560000Y32806600D02*
X51991600Y33375000D01*
X49028040Y33375000D02*
X51991600Y33375000D01*
D94*
X30395000Y18695000D02*
X27113000Y18695000D01*
D88*
X46745400Y31824506D02*
X46745400Y29508212D01*
X52560000Y31880000D02*
X52560000Y32806600D01*
D94*
X35903800Y24007200D02*
X35707200Y24007200D01*
X35707200Y24007200D02*
X30395000Y18695000D01*
D88*
X49028040Y33375000D02*
X47852840Y32199800D01*
X47120694Y32199800D02*
X46745400Y31824506D01*
%TO.N,BHI_RSTQ*%
X27113000Y22505000D02*
X32455000Y22505000D01*
X36075000Y26125000D02*
X36075000Y28805000D01*
X36075000Y28805000D02*
X37655000Y30385000D01*
X32455000Y22505000D02*
X36075000Y26125000D01*
X49024348Y35826923D02*
X49024348Y35089410D01*
X49024348Y35089410D02*
X47389938Y33455000D01*
D97*
%TO.N,ESP_JTAG_TMS_PROT*%
X79040013Y42976317D02*
X77687630Y44328700D01*
D88*
X74332601Y30163770D02*
X73430201Y30163770D01*
X72285800Y33164608D02*
X72285800Y34044200D01*
D97*
X77687630Y44328700D02*
X70358700Y44328700D01*
D88*
X73430201Y30163770D02*
X73306401Y30287570D01*
X73306401Y30287570D02*
X73306401Y32144007D01*
D97*
X80308674Y42976317D02*
X79040013Y42976317D01*
X70358700Y44328700D02*
X69065000Y43035000D01*
D88*
X73306401Y32144007D02*
X72285800Y33164608D01*
D93*
%TO.N,OPTO2*%
X92977297Y25755000D02*
X90950242Y23727945D01*
X84851700Y17661200D02*
X88611200Y17661200D01*
X88611200Y17661200D02*
X90950242Y20000242D01*
X93156700Y25755000D02*
X92977297Y25755000D01*
X90950242Y20000242D02*
X90950242Y23727945D01*
D88*
%TO.N,GND_MOTOR*%
X86881200Y18931200D02*
X88450242Y20500242D01*
X84851700Y18931200D02*
X86881200Y18931200D01*
D93*
X85392945Y23727945D02*
X84545000Y22880000D01*
X88450242Y23727945D02*
X85392945Y23727945D01*
D88*
X88450242Y20500242D02*
X88450242Y23727945D01*
D93*
%TO.N,V_MOTOR*%
X94351700Y25372784D02*
X94351700Y25755000D01*
X95101700Y22879403D02*
X95950242Y23727945D01*
X95950242Y23727945D02*
X95950242Y23774242D01*
X95101700Y22005000D02*
X95101700Y22879403D01*
X95950242Y23774242D02*
X94351700Y25372784D01*
D88*
%TO.N,BHI_CS*%
X54822183Y33090561D02*
X54822183Y34944098D01*
X54445000Y32713378D02*
X54822183Y33090561D01*
%TO.N,GPIO0*%
X74332601Y40323770D02*
X77851229Y40323770D01*
X77851229Y40323770D02*
X78465000Y39709999D01*
X78465000Y39709999D02*
X78465000Y39385000D01*
D93*
%TO.N,Net-(J14-Pin_3)*%
X86060000Y21610000D02*
X84545000Y21610000D01*
X93906700Y23271487D02*
X93450242Y23727945D01*
X86075000Y21625000D02*
X86060000Y21610000D01*
X93906700Y22005000D02*
X93906700Y23271487D01*
%TO.N,ESP_UART_DEBUG_TX*%
X75905000Y43275000D02*
X76035000Y43145000D01*
X70475000Y38745000D02*
X70475000Y39495000D01*
X70475000Y39495000D02*
X69955000Y40015000D01*
X75867394Y31567394D02*
X76335000Y32035000D01*
X69955000Y40015000D02*
X69895000Y40015000D01*
X75285801Y27623770D02*
X75867394Y28205363D01*
X70695000Y43275000D02*
X75905000Y43275000D01*
X75867394Y28205363D02*
X75867394Y31567394D01*
X74332601Y27623770D02*
X75285801Y27623770D01*
%TO.N,Net-(R5-Pad2)*%
X83969800Y44013100D02*
X83207468Y44775432D01*
X69919505Y44693800D02*
X68871114Y43645409D01*
X83207468Y44775432D02*
X83207468Y45525000D01*
X67114400Y37483934D02*
X67114400Y30565200D01*
X81973432Y45625000D02*
X79193000Y45625000D01*
X68290600Y38660134D02*
X67114400Y37483934D01*
X68290600Y40244928D02*
X68290600Y38660134D01*
X78261800Y44693800D02*
X69919505Y44693800D01*
X76977800Y21610000D02*
X76684800Y21903000D01*
X78045000Y21610000D02*
X76977800Y21610000D01*
X67114400Y30565200D02*
X67254181Y30425419D01*
X79193000Y45625000D02*
X78261800Y44693800D01*
X68258857Y40276671D02*
X68290600Y40244928D01*
X82021668Y45673236D02*
X81973432Y45625000D01*
D88*
%TO.N,Net-(U13-HOSTBOOT)*%
X51325000Y28194500D02*
X51407000Y28112500D01*
X51325000Y29295000D02*
X51325000Y28194500D01*
D93*
%TO.N,Net-(J12-Pin_4)*%
X40101700Y62935000D02*
X40825000Y62211700D01*
X40825000Y62211700D02*
X40825000Y57626000D01*
X46696104Y51754896D02*
X48483646Y51754896D01*
X48511701Y47493299D02*
X48511701Y50015481D01*
X40825000Y57626000D02*
X46696104Y51754896D01*
X49370000Y46635000D02*
X48511701Y47493299D01*
D97*
%TO.N,ESP_UART_DEBUG_RX*%
X71893300Y35263300D02*
X73239836Y36609836D01*
D88*
X79075000Y35605000D02*
X79075000Y36345000D01*
D97*
X72966701Y29273299D02*
X72966701Y32003299D01*
X71893300Y33076700D02*
X71893300Y35263300D01*
D88*
X76299000Y35799000D02*
X75815000Y35315000D01*
X76299000Y36699000D02*
X76299000Y35799000D01*
D97*
X72966701Y32003299D02*
X71893300Y33076700D01*
X73065000Y29175000D02*
X72966701Y29273299D01*
D88*
X77345000Y37745000D02*
X76299000Y36699000D01*
D97*
%TO.N,ESP_JTAG_TDI*%
X81083674Y42976317D02*
X81304991Y42755000D01*
X81304991Y42755000D02*
X82645000Y42755000D01*
%TO.N,ESP_JTAG_TMS*%
X81083674Y44476317D02*
X82108317Y44476317D01*
X82108317Y44476317D02*
X82141000Y44509000D01*
D93*
%TO.N,ESP_JTAG_TDO*%
X86613200Y38205600D02*
X86310511Y38508289D01*
D97*
X81554545Y43476317D02*
X81807637Y43223225D01*
X81083674Y43476317D02*
X81554545Y43476317D01*
D93*
X87243632Y37970600D02*
X87008632Y38205600D01*
X86310511Y38508289D02*
X86310511Y38970200D01*
X91219400Y37970600D02*
X87243632Y37970600D01*
X87008632Y38205600D02*
X86613200Y38205600D01*
X92555000Y36635000D02*
X91219400Y37970600D01*
%TO.N,ESP_JTAG_TCK*%
X94609899Y37440162D02*
X95075000Y37905263D01*
X94553300Y45479360D02*
X93745660Y46287000D01*
X82623268Y45418949D02*
X82180636Y44976317D01*
X82180636Y44976317D02*
X81083674Y44976317D01*
X94553300Y44577440D02*
X94553300Y45479360D01*
X93745660Y46287000D02*
X83143284Y46287000D01*
X83143284Y46287000D02*
X82623268Y45766984D01*
X95075000Y44055740D02*
X94553300Y44577440D01*
X82623268Y45766984D02*
X82623268Y45418949D01*
X95075000Y37905263D02*
X95075000Y44055740D01*
D88*
%TO.N,DEBUG_USB-*%
X82914200Y33292500D02*
X81314200Y33292500D01*
X83101700Y33105000D02*
X82914200Y33292500D01*
%TO.N,DEBUG_USB+*%
X82002900Y34068701D02*
X81726699Y33792500D01*
X81726699Y33792500D02*
X81314200Y33792500D01*
X82439201Y35005000D02*
X82002900Y34568699D01*
X82002900Y34568699D02*
X82002900Y34068701D01*
X83101700Y35005000D02*
X82439201Y35005000D01*
%TO.N,ESP_RTS*%
X78101700Y35505000D02*
X78101700Y36015451D01*
X78970049Y36883800D02*
X79488799Y36883800D01*
X78101700Y36015451D02*
X78970049Y36883800D01*
X79765000Y37160001D02*
X79765000Y37485000D01*
X79115000Y39060001D02*
X79765000Y38410001D01*
X79765000Y38410001D02*
X79765000Y37485000D01*
X79488799Y36883800D02*
X79765000Y37160001D01*
X79115000Y39385000D02*
X79115000Y39060001D01*
D94*
%TO.N,STM_DTR*%
X77031894Y33292500D02*
X76725900Y32986506D01*
D88*
X72175000Y32215000D02*
X72175000Y27939000D01*
X72175000Y27939000D02*
X71727000Y27491000D01*
D94*
X76705000Y32475000D02*
X75925328Y32475000D01*
X76725900Y32495900D02*
X76705000Y32475000D01*
X76725900Y32986506D02*
X76725900Y32495900D01*
X77389200Y33292500D02*
X77031894Y33292500D01*
X75925328Y32475000D02*
X75825164Y32575164D01*
D88*
%TO.N,ESP_DTR*%
X79065000Y37435000D02*
X78515000Y37435000D01*
X79115000Y37485000D02*
X79065000Y37435000D01*
X78515000Y37435000D02*
X78465000Y37485000D01*
%TO.N,Net-(Q1B-C2)*%
X10259000Y23059000D02*
X10783492Y23583492D01*
X6495062Y21598362D02*
X7048362Y21598362D01*
X8401700Y19111252D02*
X8501161Y19210713D01*
X10783492Y23583492D02*
X13525500Y23583492D01*
X13525500Y23583492D02*
X14001700Y23107292D01*
X14001700Y23107292D02*
X14001700Y22857292D01*
X8401700Y18505000D02*
X8401700Y19111252D01*
X10259000Y22125000D02*
X10259000Y23059000D01*
X6495062Y21598362D02*
X6201700Y21305000D01*
%TO.N,Net-(Q2B-C2)*%
X11400500Y21046402D02*
X11400500Y21700500D01*
X11141902Y21305000D02*
X11400500Y21046402D01*
X12251700Y18755000D02*
X12251700Y18505000D01*
X11400500Y19606200D02*
X12251700Y18755000D01*
X10101700Y21305000D02*
X11141902Y21305000D01*
X11831092Y22131092D02*
X15125500Y22131092D01*
X15125500Y22131092D02*
X15601700Y22607292D01*
X11400500Y21700500D02*
X11831092Y22131092D01*
X15601700Y22607292D02*
X15601700Y22857292D01*
X11400500Y21046402D02*
X11400500Y19606200D01*
%TO.N,Net-(Q3B-C2)*%
X16033434Y18691296D02*
X16033434Y18946303D01*
D90*
X14030865Y21329845D02*
X13813818Y21329845D01*
D88*
X16036225Y18949094D02*
X16033434Y18946303D01*
X16215000Y18509730D02*
X16033434Y18691296D01*
D90*
X13813818Y21329845D02*
X13680934Y21196961D01*
D88*
X16215000Y18877445D02*
X16146142Y18946303D01*
D90*
X12562976Y42373576D02*
X12562976Y42373558D01*
D88*
X16146142Y18946303D02*
X16033434Y18946303D01*
D93*
%TO.N,Net-(R13-Pad2)*%
X85215000Y39215216D02*
X85215000Y36423334D01*
X84666400Y39763816D02*
X85215000Y39215216D01*
X84666400Y39816500D02*
X84666400Y39763816D01*
X83969800Y40513100D02*
X84666400Y39816500D01*
X85215000Y36423334D02*
X85812728Y35825606D01*
D88*
%TO.N,Net-(Q4B-C2)*%
X13121781Y43938585D02*
X13441111Y43619255D01*
D90*
X10962976Y42373576D02*
X10953828Y42364428D01*
D88*
X13441111Y43619255D02*
X13575700Y43619255D01*
X10851373Y46755000D02*
X10815800Y46719427D01*
D90*
X10953828Y42364428D02*
X10953828Y41715000D01*
D88*
X11001700Y46755000D02*
X10851373Y46755000D01*
D93*
%TO.N,Net-(Q5B-C2)*%
X3139000Y42399800D02*
X3139000Y43053000D01*
X5917800Y45247800D02*
X6201700Y45247800D01*
X3522985Y43436985D02*
X4106985Y43436985D01*
X4106985Y43436985D02*
X5917800Y45247800D01*
X6201700Y45247800D02*
X5951700Y45497800D01*
X3139000Y43053000D02*
X3522985Y43436985D01*
X5951700Y45497800D02*
X5951700Y46755000D01*
%TO.N,Net-(Q6B-C2)*%
X1539000Y42399800D02*
X353000Y43585800D01*
X353000Y43585800D02*
X353000Y46033000D01*
X1539000Y42853000D02*
X2624585Y43938585D01*
X2624585Y43938585D02*
X3589000Y43938585D01*
X1539000Y42399800D02*
X1539000Y42853000D01*
D88*
%TO.N,Net-(Q1A-C1)*%
X11275000Y22919000D02*
X11336708Y22857292D01*
X6883670Y19083969D02*
X6847458Y18999473D01*
X6801700Y18505000D02*
X6847458Y18550758D01*
X6847458Y18550758D02*
X6883670Y19083969D01*
X11336708Y22857292D02*
X13201700Y22857292D01*
D97*
%TO.N,STM_SWDCLK_PROT*%
X10664182Y35942518D02*
X11101700Y35505000D01*
X10664182Y36195854D02*
X10664182Y35942518D01*
D88*
X79558194Y47690171D02*
X79624223Y47756200D01*
X79624223Y47756200D02*
X80326700Y47756200D01*
%TO.N,STM_SWDIO_PROT*%
X11030700Y33092500D02*
X9689200Y33092500D01*
X11325000Y33386800D02*
X11030700Y33092500D01*
X79018036Y48001964D02*
X79015000Y48005000D01*
X80326700Y46753800D02*
X79738000Y46753800D01*
X10005000Y35365450D02*
X11325000Y34045450D01*
X11325000Y34045450D02*
X11325000Y33386800D01*
X10005000Y36076200D02*
X10005000Y35365450D01*
X79738000Y46753800D02*
X79018036Y47473764D01*
X79018036Y47473764D02*
X79018036Y48001964D01*
%TO.N,STM_NRESET*%
X97886426Y39844400D02*
X98870600Y39844400D01*
D97*
X81074649Y48252514D02*
X81873806Y48252514D01*
D88*
X98870600Y39844400D02*
X99039376Y39675624D01*
X95995936Y34685166D02*
X97375000Y36064230D01*
X97375000Y39332974D02*
X97886426Y39844400D01*
X97375000Y36064230D02*
X97375000Y39332974D01*
%TO.N,Net-(Q2A-C1)*%
X13018612Y21586885D02*
X13087722Y21655995D01*
X12267258Y19739442D02*
X12106411Y19900289D01*
X12106411Y19900289D02*
X12106411Y20047973D01*
X10651700Y17778388D02*
X10643732Y17786356D01*
X10651700Y18505000D02*
X10651700Y17778388D01*
X10643732Y17786356D02*
X10643732Y17750143D01*
X12106411Y20047973D02*
X11958727Y20047973D01*
X10679945Y17750143D02*
X10655803Y17774285D01*
X10643732Y17750143D02*
X10679945Y17750143D01*
X12267258Y19500412D02*
X12267258Y19739442D01*
X13018612Y20764477D02*
X13018612Y21586885D01*
X11958727Y20047973D02*
X12001700Y20005000D01*
D93*
%TO.N,Net-(Q3A-C1)*%
X16975100Y34505100D02*
X16975100Y33859428D01*
D88*
X14615000Y18759730D02*
X15885115Y20029845D01*
X14615000Y18509730D02*
X14615000Y18759730D01*
X15885115Y20029845D02*
X15930865Y20029845D01*
X15930865Y20029845D02*
X16255864Y20029845D01*
X16255864Y20029845D02*
X16993200Y20767181D01*
X16993200Y26343675D02*
X17181240Y26531715D01*
D93*
X17045000Y34575000D02*
X16975100Y34505100D01*
X16060931Y32910931D02*
X16060931Y29865181D01*
D90*
X13362976Y42373576D02*
X13362976Y41770976D01*
D88*
X16993200Y20767181D02*
X16993200Y26343675D01*
D93*
X17000500Y33850500D02*
X16060931Y32910931D01*
X16630876Y38525000D02*
X16775000Y38525000D01*
X13440876Y41715000D02*
X16630876Y38525000D01*
D91*
%TO.N,Net-(Q4A-C1)*%
X12469781Y43584381D02*
X11762976Y42877576D01*
X11221781Y45238585D02*
X11789285Y45238585D01*
X11762976Y42877576D02*
X11762976Y42373576D01*
X12469781Y45860219D02*
X12440350Y45889650D01*
X11789285Y45238585D02*
X12440350Y45889650D01*
X12601700Y46051000D02*
X12601700Y46755000D01*
X12469781Y43584381D02*
X12469781Y45860219D01*
X12440350Y45889650D02*
X12601700Y46051000D01*
D93*
%TO.N,Net-(Q5A-C1)*%
X7641800Y42399800D02*
X3939000Y42399800D01*
D91*
X7820060Y43947800D02*
X8101700Y43947800D01*
X7449700Y44318160D02*
X7820060Y43947800D01*
X7551700Y46755000D02*
X7449700Y46653000D01*
X7449700Y46653000D02*
X7449700Y44318160D01*
D93*
X8101700Y43947800D02*
X8101700Y42859700D01*
X8101700Y42859700D02*
X7641800Y42399800D01*
%TO.N,Net-(Q6A-C1)*%
X2339000Y42939000D02*
X2639000Y43239000D01*
X2339000Y42399800D02*
X2339000Y42939000D01*
X1689000Y45238585D02*
X866015Y45238585D01*
X866015Y45238585D02*
X833600Y45271000D01*
%TO.N,SIG_KILL*%
X67756639Y36584400D02*
X68113361Y36584400D01*
X83969800Y41708100D02*
X79791900Y41708100D01*
X77725000Y43775000D02*
X70475000Y43775000D01*
X69425000Y37896039D02*
X69425000Y39025000D01*
X79791900Y41708100D02*
X77725000Y43775000D01*
X67715576Y36625464D02*
X67756639Y36584400D01*
X68113361Y36584400D02*
X69425000Y37896039D01*
X88429600Y41179600D02*
X84498300Y41179600D01*
X84498300Y41179600D02*
X83969800Y41708100D01*
X70475000Y43775000D02*
X70115000Y43415000D01*
X67710500Y36620388D02*
X67715576Y36625464D01*
X88745000Y41495000D02*
X88429600Y41179600D01*
X88209600Y41179600D02*
X88745000Y41715000D01*
%TO.N,SIG_RUN*%
X85116000Y45883800D02*
X86875028Y45883800D01*
X83969800Y45208100D02*
X84440300Y45208100D01*
X56832601Y31433770D02*
X57785801Y31433770D01*
X87383828Y45375000D02*
X88825000Y45375000D01*
X57785801Y31433770D02*
X59260492Y32908461D01*
X59260492Y32908461D02*
X59260492Y35106200D01*
X67677764Y44135302D02*
X69470025Y45927563D01*
X84935000Y45702800D02*
X85116000Y45883800D01*
X84440300Y45208100D02*
X84935000Y45702800D01*
X86875028Y45883800D02*
X87383828Y45375000D01*
X69470025Y45927563D02*
X69470025Y46018874D01*
X66575000Y40055000D02*
X66575000Y39475000D01*
D88*
X56832601Y31433770D02*
X57735001Y31433770D01*
D93*
X88825000Y45375000D02*
X91245000Y42955000D01*
X91245000Y42955000D02*
X91245000Y41495000D01*
X66575000Y39475000D02*
X64395000Y37295000D01*
D88*
%TO.N,PMW_MISO*%
X57147400Y42883400D02*
X57287971Y42883400D01*
D93*
X51178686Y47603964D02*
X51178686Y47552131D01*
D88*
X57287971Y42883400D02*
X58597601Y41573770D01*
D93*
X51178686Y47552131D02*
X51147586Y47583231D01*
X50635000Y48095817D02*
X51126853Y47603964D01*
X51126853Y47603964D02*
X51178686Y47603964D01*
X50635000Y48345000D02*
X50635000Y48095817D01*
D88*
%TO.N,PMW_CS1*%
X68445000Y32670200D02*
X68445000Y28355000D01*
X71716230Y25083770D02*
X74332601Y25083770D01*
X37601700Y59750080D02*
X45642685Y51709095D01*
X68445000Y28355000D02*
X71716230Y25083770D01*
X37601700Y62935000D02*
X37601700Y59750080D01*
%TO.N,PMW_RESET*%
X32601700Y62935000D02*
X32851700Y62935000D01*
X44464191Y51322509D02*
X44678182Y51322509D01*
X55587700Y31027222D02*
X55587700Y34151181D01*
X56451152Y30163770D02*
X55587700Y31027222D01*
X32851700Y62935000D02*
X44464191Y51322509D01*
X55315001Y34423880D02*
X55315001Y35005001D01*
X56832601Y30163770D02*
X56451152Y30163770D01*
X55587700Y34151181D02*
X55315001Y34423880D01*
%TO.N,PMW_CS2*%
X56832601Y28893770D02*
X59093770Y28893770D01*
X60950736Y30750736D02*
X60950736Y32584245D01*
X35101700Y62935000D02*
X35101700Y61542957D01*
X35101700Y61542957D02*
X45152927Y51491730D01*
X59093770Y28893770D02*
X60950736Y30750736D01*
%TO.N,PMW_MOSI*%
X47837650Y47188536D02*
X47837650Y49901229D01*
X74332601Y26353770D02*
X71396230Y26353770D01*
X71396230Y26353770D02*
X69695000Y28055000D01*
X50545000Y44555000D02*
X50471186Y44555000D01*
X69695000Y28055000D02*
X69695000Y32235000D01*
X50471186Y44555000D02*
X47837650Y47188536D01*
%TO.N,PMW_SCLK*%
X51178700Y44026700D02*
X49911668Y42759668D01*
X56832601Y27623770D02*
X59159770Y27623770D01*
X50565000Y46635000D02*
X51178700Y46021300D01*
X61596582Y30060582D02*
X61596582Y33303092D01*
X51178700Y46021300D02*
X51178700Y44026700D01*
X59159770Y27623770D02*
X61596582Y30060582D01*
X49911668Y42759668D02*
X46912812Y42759668D01*
%TO.N,RGB_LED*%
X15101700Y28138566D02*
X15535000Y28571866D01*
X15535000Y28571866D02*
X15535000Y32535000D01*
X64790358Y49813842D02*
X56668042Y49813842D01*
X65631000Y48973200D02*
X64790358Y49813842D01*
X65631000Y47798200D02*
X65631000Y48973200D01*
X15101700Y27180000D02*
X15101700Y28138566D01*
%TO.N,BHI_SCLK_3V3*%
X64947601Y39492437D02*
X64982385Y39457653D01*
X50974348Y41551923D02*
X50974348Y40064852D01*
X50974348Y40064852D02*
X51102200Y39937000D01*
X64947601Y41573770D02*
X64947601Y39492437D01*
%TO.N,BHI_MOSI_3V3*%
X63853000Y41398371D02*
X63677601Y41573770D01*
X52924348Y41551923D02*
X52924348Y41518452D01*
X63853000Y40597400D02*
X63853000Y41398371D01*
X52924348Y41518452D02*
X53642200Y40800600D01*
%TO.N,BHI_CS_3V3*%
X50324348Y40252010D02*
X50515179Y40061179D01*
X62329000Y39225800D02*
X62407601Y39304401D01*
X50324348Y41551923D02*
X50324348Y40252010D01*
X62407601Y39304401D02*
X62407601Y41573770D01*
%TO.N,BHI_RSTQ_3V3*%
X67912800Y39198251D02*
X66617276Y37902727D01*
X67487601Y40216689D02*
X67912800Y39791490D01*
X67912800Y39791490D02*
X67912800Y39198251D01*
X67487601Y41573770D02*
X67487601Y40216689D01*
X49024348Y41551923D02*
X49024348Y40264508D01*
X49024348Y40264508D02*
X49295827Y39993029D01*
D93*
%TO.N,Net-(D4-K)*%
X55781001Y42617423D02*
X56748249Y43584671D01*
X55781001Y34492170D02*
X55781001Y42617423D01*
X56299401Y33973770D02*
X55781001Y34492170D01*
X56832601Y33973770D02*
X56299401Y33973770D01*
D88*
%TO.N,BHI_HIRQ_3V3*%
X58701692Y33670461D02*
X57735001Y32703770D01*
X49674348Y40258259D02*
X49844972Y40087635D01*
X58701692Y36335982D02*
X58701692Y33670461D01*
X61134310Y38768600D02*
X58701692Y36335982D01*
X57735001Y32703770D02*
X56832601Y32703770D01*
X49674348Y41551923D02*
X49674348Y40258259D01*
X61770200Y38768600D02*
X61134310Y38768600D01*
%TO.N,Net-(D3-K)*%
X60155000Y44905000D02*
X60170000Y44890000D01*
X60155000Y46295000D02*
X60155000Y44905000D01*
X58163400Y48286600D02*
X60155000Y46295000D01*
X58163400Y48318200D02*
X58163400Y48286600D01*
%TO.N,BHI_MISO_3V3*%
X51624348Y40329252D02*
X51864200Y40089400D01*
X66217601Y40671370D02*
X65582076Y40035845D01*
X66217601Y41573770D02*
X66217601Y40671370D01*
X51624348Y41551923D02*
X51624348Y40329252D01*
X65582076Y40035845D02*
X65582076Y39501714D01*
D97*
%TO.N,BHI_MISO*%
X52045484Y34694516D02*
X53344430Y34694516D01*
X51624348Y35115652D02*
X52045484Y34694516D01*
D88*
X53405000Y32735000D02*
X54366983Y33696983D01*
D97*
X51624348Y35826923D02*
X51624348Y35115652D01*
D88*
X50325000Y30115000D02*
X50325000Y31125000D01*
X50325000Y30875000D02*
X50325000Y30115000D01*
X50325000Y30095000D02*
X50325000Y30375000D01*
X50325000Y30375000D02*
X50325000Y30875000D01*
X54366983Y33696983D02*
X54366983Y34656218D01*
D97*
%TO.N,BHI_MOSI*%
X53795300Y34955971D02*
X53795300Y34469229D01*
X53521070Y34195000D02*
X53795300Y34469229D01*
D88*
X48207857Y30680000D02*
X48151398Y30623541D01*
D97*
X52924348Y35826923D02*
X53795300Y34955971D01*
X49255040Y34195000D02*
X47685000Y32624960D01*
X53521070Y34195000D02*
X49255040Y34195000D01*
X47685000Y32624960D02*
X47685000Y32605000D01*
D88*
X48890000Y30680000D02*
X48207857Y30680000D01*
D94*
%TO.N,BHI_SCLK*%
X46198599Y28692539D02*
X46198599Y34248599D01*
X46328456Y28562682D02*
X46198599Y28692539D01*
X49355000Y36945000D02*
X49345000Y36955000D01*
X47075000Y35125000D02*
X47325000Y35125000D01*
X50974348Y35826923D02*
X50974348Y36413301D01*
X50442649Y36945000D02*
X49355000Y36945000D01*
X46198599Y34248599D02*
X47075000Y35125000D01*
X50974348Y36413301D02*
X50442649Y36945000D01*
D88*
%TO.N,BHI_HIRQ*%
X48490000Y30300000D02*
X48465000Y30275000D01*
D97*
X47567588Y32982664D02*
X49674348Y35089424D01*
D88*
X48890000Y30300000D02*
X48490000Y30300000D01*
D97*
X47433032Y32982664D02*
X47567588Y32982664D01*
X49674348Y35089424D02*
X49674348Y35826923D01*
D92*
%TO.N,+3V3*%
X17601700Y7679000D02*
X17601700Y15423030D01*
D89*
X53851700Y24642500D02*
X54153733Y24944533D01*
D92*
X52265500Y46432400D02*
X52265500Y44535000D01*
D89*
X35575000Y15194789D02*
X39601700Y19221489D01*
D92*
X29026338Y41020403D02*
X30577397Y41020403D01*
D93*
X5951700Y48455000D02*
X5951700Y49394300D01*
D92*
X12291000Y15807000D02*
X10691700Y15807000D01*
D89*
X34626700Y5755000D02*
X34626700Y6405700D01*
D92*
X23846352Y36430600D02*
X20586145Y36430600D01*
X30863000Y40734800D02*
X30863000Y40265000D01*
D89*
X53540600Y24953600D02*
X53851700Y24642500D01*
D90*
X14831000Y44255000D02*
X19149000Y39937000D01*
D92*
X53851700Y24642500D02*
X53679200Y24815000D01*
D88*
X5951700Y48455000D02*
X5951700Y48205000D01*
D92*
X83660000Y28750000D02*
X85011085Y28750000D01*
D93*
X5951700Y49394300D02*
X5941000Y49405000D01*
D92*
X9836376Y26835410D02*
X10653110Y26835410D01*
X6801700Y16268286D02*
X6801700Y16805000D01*
X33613000Y1021000D02*
X35191000Y2599000D01*
X52447200Y40505325D02*
X52278348Y40674177D01*
D89*
X41601700Y24867500D02*
X39601700Y22867500D01*
D90*
X19149000Y39937000D02*
X19149000Y37406996D01*
D89*
X37824044Y20687500D02*
X38101700Y20687500D01*
D92*
X52287927Y43534556D02*
X52295500Y43526983D01*
X17612000Y6155000D02*
X17601700Y6165300D01*
X66901000Y44798200D02*
X66174200Y44798200D01*
X10651700Y15847000D02*
X10651700Y16805000D01*
X16215000Y16809730D02*
X16215000Y16051730D01*
X19618193Y26713507D02*
X19601700Y26730000D01*
X10651700Y16047000D02*
X10505700Y15901000D01*
X10651700Y15847000D02*
X9109700Y15847000D01*
X23314600Y24928200D02*
X22983873Y24928200D01*
X44200000Y37000000D02*
X41205000Y34005000D01*
D90*
X10707987Y33925115D02*
X10709774Y33925115D01*
D92*
X34626700Y5755000D02*
X34626700Y4163300D01*
X96245000Y44423300D02*
X96826700Y45005000D01*
D90*
X15791730Y33925120D02*
X15445120Y33925120D01*
D89*
X30883800Y40285800D02*
X30863000Y40265000D01*
D92*
X18601700Y5165300D02*
X17612000Y6155000D01*
D93*
X3039000Y48455000D02*
X3039000Y49297000D01*
D89*
X38101700Y20004554D02*
X38851254Y19255000D01*
D92*
X10505700Y15901000D02*
X9197700Y15901000D01*
D89*
X39613000Y27919701D02*
X39613000Y26856200D01*
D92*
X18636362Y36107073D02*
X19449490Y35293945D01*
X66152777Y43856977D02*
X66152777Y44797466D01*
D90*
X9113685Y34668015D02*
X9689200Y34092500D01*
D89*
X39613000Y26856200D02*
X41601700Y24867500D01*
X35575000Y8004000D02*
X35900000Y7679000D01*
D90*
X9113685Y35333706D02*
X9113685Y34668015D01*
D92*
X55075000Y44265000D02*
X62161200Y44265000D01*
X14615000Y16051730D02*
X14370270Y15807000D01*
D95*
X8401700Y16190300D02*
X8745000Y15847000D01*
D92*
X12251700Y15846300D02*
X12251700Y16805000D01*
X16215000Y16051730D02*
X16069000Y15905730D01*
D89*
X55211863Y24944533D02*
X56693364Y24944533D01*
D92*
X25865700Y34411252D02*
X23846352Y36430600D01*
D89*
X35575000Y15194789D02*
X35575000Y8004000D01*
X53540600Y25889600D02*
X53540600Y24953600D01*
D88*
X12601700Y47867700D02*
X12601700Y48455000D01*
D92*
X96245000Y44423300D02*
X96245000Y41495000D01*
D90*
X13815000Y44255000D02*
X14831000Y44255000D01*
D93*
X3039000Y49297000D02*
X3147000Y49405000D01*
D89*
X47551700Y55793497D02*
X52323000Y51022197D01*
D92*
X65140000Y42844200D02*
X66152777Y43856977D01*
X25865700Y37859765D02*
X29026338Y41020403D01*
D89*
X37734044Y22867500D02*
X37210700Y22344156D01*
D93*
X7551700Y47978300D02*
X7551700Y48455000D01*
D92*
X19095000Y1583000D02*
X19657000Y1021000D01*
D88*
X11477900Y47728800D02*
X12291000Y47728800D01*
D92*
X17849077Y36107073D02*
X18636362Y36107073D01*
X10653110Y26835410D02*
X10997700Y27180000D01*
X17601700Y6165300D02*
X17601700Y7679000D01*
D89*
X38101700Y20687500D02*
X38383754Y20687500D01*
D92*
X85825000Y26715744D02*
X87008077Y25532667D01*
D95*
X95351700Y45005000D02*
X96826700Y45005000D01*
D89*
X38101700Y20687500D02*
X38101700Y20004554D01*
D92*
X16069000Y15905730D02*
X14761000Y15905730D01*
X17307773Y36107073D02*
X16705700Y35505000D01*
D93*
X39601700Y19221489D02*
X39601700Y19255000D01*
D89*
X37210700Y21300844D02*
X37824044Y20687500D01*
D88*
X11001700Y48205000D02*
X11477900Y47728800D01*
D92*
X85011085Y28750000D02*
X85825000Y27936085D01*
X14761000Y15905730D02*
X14615000Y16051730D01*
D90*
X11136185Y29125000D02*
X11136185Y27214485D01*
D92*
X22983873Y24928200D02*
X21198566Y26713507D01*
D89*
X47551700Y59755000D02*
X47551700Y55793497D01*
D90*
X16601700Y34735090D02*
X15791730Y33925120D01*
D92*
X25865700Y34411252D02*
X25865700Y37859765D01*
X19657000Y1021000D02*
X33613000Y1021000D01*
X47601700Y62935000D02*
X47601700Y59805000D01*
D89*
X34626700Y6405700D02*
X35900000Y7679000D01*
D92*
X62161200Y44265000D02*
X63582000Y42844200D01*
X87008077Y25532667D02*
X91820733Y25532667D01*
X66173466Y44797466D02*
X66152777Y44797466D01*
X85825000Y27936085D02*
X85825000Y26715744D01*
X83660000Y28750000D02*
X83221942Y29188058D01*
X52265500Y48369800D02*
X52265500Y46432400D01*
X52447200Y39847913D02*
X52447200Y40505325D01*
X19095000Y2599000D02*
X19095000Y1583000D01*
X12291000Y15807000D02*
X12251700Y15846300D01*
D95*
X45851700Y59755000D02*
X47551700Y59755000D01*
D92*
X54138845Y43328845D02*
X55075000Y44265000D01*
X30577397Y41020403D02*
X30863000Y40734800D01*
D89*
X30883800Y41207000D02*
X30883800Y40285800D01*
D88*
X12462800Y47728800D02*
X12601700Y47867700D01*
D95*
X8401700Y16805000D02*
X8401700Y16190300D01*
D89*
X38851254Y19255000D02*
X39601700Y19255000D01*
D92*
X8745000Y15847000D02*
X7222986Y15847000D01*
X52265500Y44535000D02*
X52295500Y44505000D01*
D89*
X39975500Y28282201D02*
X39975500Y34005000D01*
D92*
X21198566Y26713507D02*
X19618193Y26713507D01*
D88*
X11001700Y48455000D02*
X11001700Y48205000D01*
D92*
X52295500Y44505000D02*
X52295500Y43542129D01*
X19449490Y35293945D02*
X18352045Y34196500D01*
X52278348Y40674177D02*
X52278348Y40682177D01*
D88*
X12291000Y47728800D02*
X12462800Y47728800D01*
D89*
X39613000Y27919701D02*
X39975500Y28282201D01*
D92*
X17849077Y36107073D02*
X17307773Y36107073D01*
D90*
X9689200Y34092500D02*
X10542389Y34092500D01*
D93*
X7871400Y47658600D02*
X7551700Y47978300D01*
D92*
X25865700Y30375000D02*
X25865700Y34411252D01*
X46463000Y24815000D02*
X46327000Y24951000D01*
X42749500Y24867500D02*
X42771000Y24846000D01*
X52493638Y43328845D02*
X54138845Y43328845D01*
D89*
X38851254Y21155000D02*
X39601700Y21155000D01*
D92*
X41205000Y34005000D02*
X39975500Y34005000D01*
X20586145Y36430600D02*
X19449490Y35293945D01*
D90*
X19149000Y37406996D02*
X17849077Y36107073D01*
D92*
X49683602Y39354000D02*
X51953287Y39354000D01*
D89*
X37210700Y22344156D02*
X37210700Y21300844D01*
D92*
X7222986Y15847000D02*
X6801700Y16268286D01*
D89*
X38383754Y20687500D02*
X38851254Y21155000D01*
D92*
X18601700Y2575000D02*
X18601700Y5165300D01*
X9109700Y15847000D02*
X8745000Y15847000D01*
X52287927Y43534556D02*
X52493638Y43328845D01*
D95*
X47551700Y59755000D02*
X47601700Y59805000D01*
D89*
X39601700Y22867500D02*
X37734044Y22867500D01*
D92*
X66174200Y44798200D02*
X66173466Y44797466D01*
X48454602Y38125000D02*
X49683602Y39354000D01*
X17601700Y15423030D02*
X16215000Y16809730D01*
D93*
X1439000Y48455000D02*
X1439000Y49405000D01*
D90*
X16601700Y35505000D02*
X16601700Y34735090D01*
D92*
X41601700Y24867500D02*
X42749500Y24867500D01*
X63582000Y42844200D02*
X65140000Y42844200D01*
X10651700Y16805000D02*
X10651700Y16047000D01*
D90*
X10707987Y33926902D02*
X10707987Y33925115D01*
D92*
X53679200Y24815000D02*
X46463000Y24815000D01*
X46729778Y38125000D02*
X48454602Y38125000D01*
X18352045Y34196500D02*
X18014200Y34196500D01*
X52295500Y43542129D02*
X52287927Y43534556D01*
X19601700Y26730000D02*
X19993283Y27121583D01*
D90*
X10542389Y34092500D02*
X10707987Y33926902D01*
D92*
X52295500Y43526983D02*
X52295500Y42446821D01*
X51953287Y39354000D02*
X52447200Y39847913D01*
D89*
X56693364Y24944533D02*
X56832601Y25083770D01*
D92*
X10691700Y15807000D02*
X10651700Y15847000D01*
X14370270Y15807000D02*
X12291000Y15807000D01*
X34626700Y4163300D02*
X36191000Y2599000D01*
X52295500Y42446821D02*
X52270348Y42421669D01*
X35191000Y2599000D02*
X36191000Y2599000D01*
D90*
X10709774Y33925115D02*
X10666856Y33968033D01*
D89*
X54153733Y24944533D02*
X55211863Y24944533D01*
D92*
X83221942Y29188058D02*
X82446425Y29188058D01*
X14615000Y16051730D02*
X14615000Y16809730D01*
X19993283Y27121583D02*
X19993283Y27396963D01*
D89*
X52323000Y51022197D02*
X52323000Y48427300D01*
D88*
%TO.N,Net-(J12-Pin_2)*%
X45101700Y55125000D02*
X45101700Y55098300D01*
X45101700Y55098300D02*
X47135628Y53064372D01*
X47135628Y53064372D02*
X47135628Y52248111D01*
X47237031Y46667969D02*
X49350000Y44555000D01*
X47237031Y49944362D02*
X47237031Y46667969D01*
%TD*%
M02*
