M48
; DRILL file {KiCad 8.0.2} date 2024-07-28T21:03:14+0300
; FORMAT={-:-/ absolute / inch / decimal}
; #@! TF.CreationDate,2024-07-28T21:03:14+03:00
; #@! TF.GenerationSoftware,Kicad,Pcbnew,8.0.2
; #@! TF.FileFunction,Plated,1,4,PTH
FMAT,2
INCH
; #@! TA.AperFunction,Plated,PTH,ViaDrill
T1C0.0059
; #@! TA.AperFunction,Plated,PTH,ComponentDrill
T2C0.0079
; #@! TA.AperFunction,Plated,PTH,ViaDrill
T3C0.0080
; #@! TA.AperFunction,Plated,PTH,ViaDrill
T4C0.0100
; #@! TA.AperFunction,Plated,PTH,ViaDrill
T5C0.0118
; #@! TA.AperFunction,Plated,PTH,ComponentDrill
T6C0.0276
; #@! TA.AperFunction,Plated,PTH,ComponentDrill
T7C0.0472
; #@! TA.AperFunction,Plated,PTH,ComponentDrill
T8C0.1063
%
G90
G05
T1
X0.0139Y1.8123
X0.0328Y1.7823
X0.0567Y1.9451
X0.0567Y1.8407
X0.0639Y1.7323
X0.0839Y1.8423
X0.1039Y1.7023
X0.1196Y1.8407
X0.1239Y1.9451
X0.1739Y1.8423
X0.2339Y1.9451
X0.2461Y1.6969
X0.2679Y1.7943
X0.2739Y1.7703
X0.2951Y1.9637
X0.3099Y1.8763
X0.3376Y1.107
X0.3386Y1.7866
X0.3509Y1.8056
X0.3848Y0.6923
X0.3898Y1.9582
X0.3939Y1.4203
X0.419Y0.6988
X0.4198Y1.425
X0.4226Y1.3356
X0.4258Y1.8393
X0.4313Y1.6423
X0.4384Y1.1467
X0.4663Y1.1849
X0.4693Y1.1232
X0.4759Y1.2063
X0.4766Y0.7893
X0.483Y0.7677
X0.4839Y1.8791
X0.4946Y1.6683
X0.506Y1.2131
X0.5125Y0.8175
X0.5153Y0.8526
X0.5344Y1.214
X0.5345Y1.7173
X0.5386Y0.8345
X0.5439Y1.7423
X0.5529Y1.2778
X0.5819Y0.8918
X0.5951Y1.1368
X0.5951Y1.0005
X0.6081Y1.3356
X0.6116Y1.2809
X0.6339Y1.7563
X0.6378Y0.8147
X0.6439Y1.0023
X0.6514Y1.1885
X0.6604Y1.5167
X0.6711Y1.3612
X0.683Y0.77
X0.7002Y1.123
X0.7092Y1.2044
X0.7113Y1.1058
X0.7167Y1.0667
X0.7171Y0.9644
X0.7352Y1.0715
X0.7479Y1.2243
X0.7533Y1.1026
X0.7967Y1.2801
X0.8002Y0.4774
X0.8061Y0.3967
X0.8396Y1.3144
X0.8903Y1.2733
X0.9372Y1.2872
X0.9934Y1.2733
X1.4301Y0.9203
X1.4793Y0.5856
X1.4825Y1.1963
X1.5089Y0.4085
X1.759Y2.0206
X1.7757Y2.1703
X1.7777Y2.0272
X1.797Y2.0358
X1.8051Y1.393
X1.8081Y1.114
X1.824Y1.1245
X1.8439Y1.7823
X1.847Y1.6835
X1.8557Y2.057
X1.8597Y1.9663
X1.8632Y1.3829
X1.8657Y1.3171
X1.8674Y1.2985
X1.8774Y1.2837
X1.8834Y1.9646
X1.8957Y1.2057
X1.9081Y1.1919
X1.9088Y2.0376
X1.9099Y1.9691
X1.9298Y2.0423
X1.9298Y1.9723
X1.9313Y1.1754
X1.9408Y1.5745
X1.9427Y1.4549
X1.9474Y1.2325
X1.9514Y1.1986
X1.9565Y1.1384
X1.9624Y1.5783
X1.964Y1.1797
X1.9734Y1.2959
X1.9801Y1.3911
X1.9813Y1.2254
X1.9888Y1.5772
X2.0119Y1.5723
X2.0149Y1.8742
X2.0301Y1.9876
X2.0419Y1.5783
X2.0431Y1.2333
X2.064Y1.1734
X2.0699Y1.1959
X2.0762Y1.2211
X2.0872Y1.2392
X2.0959Y2.0128
X2.1002Y1.3659
X2.1026Y1.2888
X2.1119Y1.6063
X2.1404Y1.3644
X2.1435Y1.2879
X2.1498Y1.988
X2.1584Y1.3758
X2.1778Y1.3781
X2.2499Y1.6883
X2.3689Y1.7673
X2.3996Y1.2828
X2.405Y1.6387
X2.4251Y1.3111
X2.4319Y1.5263
X2.4539Y1.5443
X2.5139Y1.5983
X2.5584Y1.5535
X2.582Y1.5552
X2.6227Y1.4922
X2.6658Y1.4417
X2.6746Y1.4573
X2.6874Y1.5857
X2.6947Y1.2862
X2.7191Y1.6943
X2.7333Y1.5364
X2.7439Y1.2691
X2.7518Y1.5754
X2.7604Y1.7093
X2.7746Y1.5254
X2.7833Y1.7037
X2.7931Y1.5414
X2.8037Y1.4463
X2.8058Y1.5567
X2.8188Y1.5723
X2.8415Y1.2683
X2.8459Y1.3403
X2.8639Y1.3423
X2.8812Y1.5784
X2.8835Y1.4413
X2.8839Y1.3023
X2.9704Y1.513
X2.9848Y1.3904
X2.9852Y1.2825
X2.9935Y1.6986
X3.0053Y1.2612
X3.0113Y1.2273
X3.0152Y1.5654
X3.0322Y1.2394
X3.0451Y1.486
X3.0518Y1.9183
X3.0537Y1.56
X3.054Y2.0056
X3.0947Y1.4096
X3.0951Y1.2435
X3.1108Y1.89
X3.1128Y1.4738
X3.1132Y1.4309
X3.1151Y1.721
X3.1256Y1.1367
X3.1286Y1.751
X3.1299Y1.7703
X3.1322Y1.8776
X3.1522Y1.4061
X3.1599Y0.9943
X3.1856Y1.5289
X3.2013Y1.3501
X3.203Y0.9819
X3.2128Y1.1482
X3.2199Y1.2144
X3.2208Y1.7017
X3.2238Y1.9001
X3.2243Y1.8797
X3.2339Y1.7523
X3.2537Y1.6833
X3.2937Y1.0319
X3.2937Y1.0819
X3.39Y1.8423
X3.39Y1.7875
X3.39Y1.6974
X3.4012Y1.418
X3.403Y1.5754
X3.4193Y1.5226
X3.4299Y1.2483
X3.4319Y1.3033
X3.4539Y1.2923
X3.4639Y1.2663
X3.5259Y1.3243
X3.5299Y1.2763
X3.632Y1.3399
X3.814Y1.5163
X3.8992Y1.562
T2
X2.4694Y1.1777
X2.4694Y1.1187
X2.4989Y1.2072
X2.4989Y1.1482
X2.4989Y1.0891
X2.5284Y1.1777
X2.5284Y1.1187
X2.558Y1.2072
X2.558Y1.1482
X2.558Y1.0891
X2.5875Y1.1777
X2.5875Y1.1187
T3
X0.2404Y0.7477
X0.271Y0.7513
X0.2775Y0.8503
X0.3142Y0.786
X0.3347Y0.7563
X0.3439Y1.3223
X0.4039Y0.8711
X0.4278Y0.813
X0.4301Y1.7297
X0.4439Y0.9023
X0.464Y1.8356
X0.4725Y0.8388
X0.5762Y1.5061
X0.6155Y1.0127
X0.6312Y0.7459
X0.6323Y1.1758
X0.6764Y1.0446
X0.7659Y1.1309
X0.7754Y1.3153
X0.7766Y1.1546
X0.9624Y1.1129
X1.0458Y1.351
X1.0639Y1.1997
X1.2683Y1.3341
X1.2923Y0.9793
X1.3026Y0.6785
X1.3943Y0.6691
X1.497Y0.7439
X1.5701Y0.6961
X1.6417Y1.6447
X1.7402Y1.8799
X1.7549Y0.7923
X1.8152Y0.6336
X1.8938Y1.005
X2.0616Y0.6844
X2.1026Y0.7234
X2.173Y0.7242
X2.231Y1.9612
X2.2342Y1.7159
X2.291Y1.3876
X2.2931Y1.7974
X2.3731Y1.2168
X2.6199Y1.0482
X2.6459Y1.5486
X2.6841Y1.7222
X2.8239Y1.0823
X2.8766Y1.1486
X3.2152Y1.86
X3.3487Y1.8587
X3.3504Y1.6913
X3.3589Y1.5833
X3.369Y1.7844
X3.5281Y1.1904
X3.6404Y1.3738
X3.6439Y1.7923
X3.8616Y1.5498
X3.8696Y1.7673
T4
X0.2808Y0.819
X0.389Y0.7285
X0.3943Y0.7876
X0.547Y0.723
X0.5524Y0.7886
X0.6069Y0.7203
X0.6409Y0.8518
X0.7648Y0.7329
X0.7668Y1.1839
X0.8281Y0.9868
X0.8911Y0.7356
X0.8994Y0.8872
X0.91Y0.6844
X0.9463Y0.7841
X1.3758Y0.6419
X1.4135Y0.9452
X1.4203Y0.7285
X1.4498Y0.5823
X1.499Y0.6447
X1.5053Y0.8612
X1.5069Y1.8848
X1.5593Y0.7951
X1.6372Y0.91
X1.7104Y0.612
X1.7189Y1.0884
X1.7278Y1.923
X1.8404Y1.1617
X1.8683Y1.2473
X2.1346Y1.4904
X2.175Y0.677
X2.2396Y1.4872
X2.2439Y1.436
X2.3159Y1.1663
X2.3331Y1.3821
X2.3462Y1.418
X2.3631Y1.4404
X2.4848Y1.8742
X2.5352Y1.4683
X2.6211Y1.577
X2.6645Y1.7376
X2.735Y1.8118
X2.9278Y1.1462
X2.977Y1.4911
X2.999Y1.3564
X3.0422Y1.5253
X3.1988Y1.1935
X3.2163Y1.7314
X3.2759Y1.7923
X3.2967Y1.2502
X3.2998Y1.2108
X3.3439Y1.7993
X3.3685Y1.34
X3.3744Y1.6526
X3.3785Y1.4105
X3.3981Y1.5343
X3.5316Y1.0516
X3.5318Y1.5241
X3.5896Y1.5654
X3.6439Y1.4423
X3.7248Y1.474
X3.7794Y1.3656
X3.8628Y1.3679
X3.882Y1.3093
T5
X0.0439Y1.4423
X0.0439Y1.2983
X0.0439Y1.1543
X0.0439Y1.0103
X0.0439Y0.8663
X0.0439Y0.7223
X0.1239Y2.3423
X0.2333Y0.6749
X0.2439Y1.3904
X0.2639Y1.6023
X0.2639Y1.2823
X0.2803Y1.1934
X0.2905Y1.0658
X0.2982Y0.6901
X0.2996Y0.7623
X0.3137Y1.2125
X0.3208Y0.58
X0.3301Y2.3458
X0.3518Y0.3544
X0.3576Y0.5811
X0.3639Y1.6623
X0.3894Y0.9628
X0.3916Y0.5827
X0.4469Y2.1823
X0.4542Y0.6853
X0.4639Y0.5823
X0.5099Y0.3623
X0.5267Y1.8069
X0.5395Y0.6813
X0.5439Y0.5823
X0.5839Y0.5823
X0.6039Y0.6823
X0.632Y0.3023
X0.6325Y1.886
X0.6339Y0.4523
X0.6648Y2.5132
X0.6821Y2.0423
X0.7027Y1.5423
X0.7072Y2.1823
X0.7239Y2.3423
X0.7439Y1.7023
X0.7506Y1.8049
X0.7532Y0.2381
X0.7539Y0.3623
X0.7717Y0.9844
X0.7839Y0.8023
X0.7871Y1.0786
X0.8039Y1.5223
X0.8639Y1.5823
X0.87Y1.3962
X0.8704Y2.0423
X0.8779Y1.9238
X0.9114Y2.1823
X0.9119Y2.2903
X0.9455Y1.3801
X0.9639Y1.1953
X1.0006Y1.6805
X1.0183Y1.1959
X1.0239Y0.9623
X1.0588Y2.0423
X1.0612Y1.3803
X1.0746Y1.9077
X1.0943Y1.7116
X1.1025Y1.4173
X1.1105Y1.5129
X1.1139Y2.4783
X1.1156Y2.1823
X1.1239Y2.3423
X1.1286Y1.8254
X1.1739Y0.3623
X1.1742Y0.8219
X1.1755Y0.4921
X1.2159Y1.6223
X1.2472Y2.0423
X1.2754Y1.4872
X1.3022Y0.2266
X1.3116Y1.3281
X1.3197Y2.1823
X1.3229Y1.575
X1.3239Y2.3423
X1.3399Y0.3623
X1.3415Y0.4921
X1.3419Y1.4085
X1.3639Y1.1723
X1.3639Y1.0623
X1.3839Y1.7823
X1.4355Y2.0423
X1.4356Y1.4112
X1.4384Y1.3459
X1.4498Y1.6623
X1.4928Y0.2623
X1.4978Y1.336
X1.5059Y0.3623
X1.5187Y1.4297
X1.5239Y2.1823
X1.5439Y0.9623
X1.5762Y1.4049
X1.6239Y2.0423
X1.6526Y1.7431
X1.6793Y1.61
X1.6839Y0.9782
X1.7039Y1.2623
X1.7068Y0.8887
X1.7097Y1.5116
X1.7159Y0.6813
X1.7189Y1.0408
X1.7402Y1.4567
X1.7455Y2.3526
X1.7667Y1.8423
X1.8239Y0.9823
X1.8379Y0.4923
X1.8379Y0.3623
X1.8398Y1.501
X1.8435Y1.5502
X1.8726Y1.0297
X1.8839Y1.7223
X1.9018Y1.6482
X1.9039Y0.7507
X1.9238Y1.0676
X1.9333Y2.3498
X1.9439Y0.6823
X1.9639Y2.2223
X1.9839Y0.7823
X2.0039Y0.4923
X2.0039Y0.3623
X2.1004Y1.749
X2.1201Y0.9023
X2.1242Y1.1703
X2.1414Y2.2223
X2.1439Y1.6623
X2.1608Y0.8423
X2.1618Y1.2656
X2.1626Y1.2108
X2.1639Y1.8623
X2.1722Y0.9435
X2.2054Y2.1183
X2.2439Y1.6423
X2.2502Y0.937
X2.3189Y2.2223
X2.3829Y2.1183
X2.4039Y1.1023
X2.4222Y0.9626
X2.4239Y1.8423
X2.4239Y1.4423
X2.4964Y2.2223
X2.5439Y1.3623
X2.5604Y2.1183
X2.6044Y1.7637
X2.6171Y0.9636
X2.6478Y1.1979
X2.6739Y2.2223
X2.6839Y1.9223
X2.7115Y1.7183
X2.7379Y2.1183
X2.7639Y0.9623
X2.7839Y1.9023
X2.7839Y0.9023
X2.8514Y2.2223
X2.9154Y2.1183
X2.927Y0.9368
X2.9439Y1.9223
X3.0127Y1.1962
X3.0191Y0.8623
X3.0289Y2.2223
X3.0439Y0.5623
X3.0726Y0.9008
X3.0847Y0.7453
X3.0847Y0.6953
X3.0929Y2.1183
X3.0986Y1.0301
X3.1639Y0.8623
X3.2064Y2.2223
X3.2239Y1.5823
X3.2239Y0.6823
X3.2239Y0.3823
X3.2292Y1.7982
X3.2439Y0.7823
X3.2459Y1.1491
X3.2639Y1.4623
X3.2704Y2.1183
X3.3839Y2.2223
X3.3888Y0.8514
X3.4148Y1.4781
X3.436Y0.811
X3.4479Y2.1183
X3.4553Y1.0577
X3.4565Y1.5246
X3.5239Y0.5423
X3.5679Y2.2243
X3.615Y1.0052
X3.6181Y0.8041
X3.6191Y0.6644
X3.8439Y0.8051
X3.8445Y0.6623
X3.8839Y2.0023
T6
X3.443Y1.3939
X3.443Y1.2049
X3.6123Y1.3939
X3.6123Y1.2049
T7
X0.0802Y2.4778
X0.0818Y0.1023
X0.1786Y2.4778
X0.1802Y0.1023
X0.277Y2.4778
X0.2786Y0.1023
X0.3755Y2.4778
X0.377Y0.1023
X0.4739Y2.4778
X0.4755Y0.1023
X0.5723Y2.4778
X0.5739Y0.1023
X0.7518Y0.1023
X0.8502Y0.1023
X0.9486Y0.1023
X1.047Y0.1023
X1.1455Y0.1023
X1.1851Y2.4778
X1.2439Y0.1023
X1.2835Y2.4778
X1.2835Y1.8604
X1.2835Y1.762
X1.382Y2.4778
X1.4248Y0.1023
X1.4804Y2.4778
X1.5233Y0.1023
X1.5788Y2.4778
X1.6217Y0.1023
X1.6772Y2.4778
X1.7201Y0.1023
X1.7757Y2.4778
X1.8185Y0.1023
X1.8741Y2.4778
X1.917Y0.1023
X3.4823Y0.9342
X3.4939Y1.6337
X3.5807Y0.9342
X3.5923Y1.6337
X3.6791Y0.9342
X3.6907Y1.6337
X3.7308Y1.1832
X3.7308Y1.0848
X3.7776Y0.9342
X3.7892Y1.6337
T8
X0.787Y2.4423
X0.9839Y2.4423
M30
