%TF.GenerationSoftware,KiCad,Pcbnew,8.0.2*%
%TF.CreationDate,2024-07-28T21:03:14+03:00*%
%TF.ProjectId,hiro_samurai,6869726f-5f73-4616-9d75-7261692e6b69,rev?*%
%TF.SameCoordinates,Original*%
%TF.FileFunction,Soldermask,Top*%
%TF.FilePolarity,Negative*%
%FSLAX46Y46*%
G04 Gerber Fmt 4.6, Leading zero omitted, Abs format (unit mm)*
G04 Created by KiCad (PCBNEW 8.0.2) date 2024-07-28 21:03:14*
%MOMM*%
%LPD*%
G01*
G04 APERTURE LIST*
G04 Aperture macros list*
%AMRoundRect*
0 Rectangle with rounded corners*
0 $1 Rounding radius*
0 $2 $3 $4 $5 $6 $7 $8 $9 X,Y pos of 4 corners*
0 Add a 4 corners polygon primitive as box body*
4,1,4,$2,$3,$4,$5,$6,$7,$8,$9,$2,$3,0*
0 Add four circle primitives for the rounded corners*
1,1,$1+$1,$2,$3*
1,1,$1+$1,$4,$5*
1,1,$1+$1,$6,$7*
1,1,$1+$1,$8,$9*
0 Add four rect primitives between the rounded corners*
20,1,$1+$1,$2,$3,$4,$5,0*
20,1,$1+$1,$4,$5,$6,$7,0*
20,1,$1+$1,$6,$7,$8,$9,0*
20,1,$1+$1,$8,$9,$2,$3,0*%
%AMFreePoly0*
4,1,22,0.945671,0.830970,1.026777,0.776777,1.080970,0.695671,1.100000,0.600000,1.100000,-0.600000,1.080970,-0.695671,1.026777,-0.776777,0.945671,-0.830970,0.850000,-0.850000,-0.450000,-0.850000,-0.545671,-0.830970,-0.626777,-0.776777,-1.026777,-0.376777,-1.080970,-0.295671,-1.100000,-0.200000,-1.100000,0.600000,-1.080970,0.695671,-1.026777,0.776777,-0.945671,0.830970,-0.850000,0.850000,
0.850000,0.850000,0.945671,0.830970,0.945671,0.830970,$1*%
%AMFreePoly1*
4,1,22,0.945671,0.830970,1.026777,0.776777,1.080970,0.695671,1.100000,0.600000,1.100000,-0.600000,1.080970,-0.695671,1.026777,-0.776777,0.945671,-0.830970,0.850000,-0.850000,-0.850000,-0.850000,-0.945671,-0.830970,-1.026777,-0.776777,-1.080970,-0.695671,-1.100000,-0.600000,-1.100000,0.200000,-1.080970,0.295671,-1.026777,0.376777,-0.626777,0.776777,-0.545671,0.830970,-0.450000,0.850000,
0.850000,0.850000,0.945671,0.830970,0.945671,0.830970,$1*%
G04 Aperture macros list end*
%ADD10C,1.300000*%
%ADD11RoundRect,0.250000X0.600000X-0.850000X0.600000X0.850000X-0.600000X0.850000X-0.600000X-0.850000X0*%
%ADD12O,1.700000X2.200000*%
%ADD13R,2.400000X0.740000*%
%ADD14RoundRect,0.250000X-0.250000X-0.750000X0.250000X-0.750000X0.250000X0.750000X-0.250000X0.750000X0*%
%ADD15C,0.660000*%
%ADD16O,0.580000X1.000000*%
%ADD17R,0.850000X0.300000*%
%ADD18C,1.100000*%
%ADD19C,3.200000*%
%ADD20C,1.000000*%
%ADD21RoundRect,0.237500X-0.287500X-0.237500X0.287500X-0.237500X0.287500X0.237500X-0.287500X0.237500X0*%
%ADD22FreePoly0,180.000000*%
%ADD23O,2.200000X1.700000*%
%ADD24RoundRect,0.250000X-0.600000X0.850000X-0.600000X-0.850000X0.600000X-0.850000X0.600000X0.850000X0*%
%ADD25FreePoly1,180.000000*%
%ADD26R,3.800000X3.800000*%
%ADD27C,3.800000*%
%ADD28C,0.600000*%
G04 APERTURE END LIST*
D10*
%TO.C,J14*%
X92200242Y22387945D03*
D11*
X88450242Y23727945D03*
D12*
X90950242Y23727945D03*
X93450242Y23727945D03*
X95950242Y23727945D03*
%TD*%
D13*
%TO.C,J16*%
X94313400Y38540000D03*
X98213400Y38540000D03*
X94313400Y37270000D03*
X98213400Y37270000D03*
X94313400Y36000000D03*
X98213400Y36000000D03*
X94313400Y34730000D03*
X98213400Y34730000D03*
X94313400Y33460000D03*
X98213400Y33460000D03*
%TD*%
D14*
%TO.C,J7*%
X20876200Y29116600D03*
%TD*%
D15*
%TO.C,J8*%
X89601700Y29255000D03*
D16*
X89601700Y36755000D03*
D17*
X88766700Y30255000D03*
X88766700Y30755000D03*
X88766700Y31255000D03*
X88766700Y31755000D03*
X88766700Y32255000D03*
X88766700Y32755000D03*
X88766700Y33255000D03*
X88766700Y33755000D03*
X88766700Y34255000D03*
X88766700Y34755000D03*
X88766700Y35255000D03*
X88766700Y35755000D03*
X90436700Y35755000D03*
X90436700Y35255000D03*
X90436700Y34755000D03*
X90436700Y34255000D03*
X90436700Y33755000D03*
X90436700Y33255000D03*
X90436700Y32755000D03*
X90436700Y32255000D03*
X90436700Y31755000D03*
X90436700Y31255000D03*
X90436700Y30755000D03*
X90436700Y30255000D03*
D18*
X87451700Y30605000D03*
X91751700Y30605000D03*
X87451700Y35405000D03*
X91751700Y35405000D03*
%TD*%
D19*
%TO.C,H3*%
X3601700Y12005000D03*
%TD*%
%TO.C,H4*%
X94601700Y12005000D03*
%TD*%
D20*
%TO.C,TP2*%
X83411000Y12759000D03*
%TD*%
D19*
%TO.C,H2*%
X3601700Y54005000D03*
%TD*%
D21*
%TO.C,D2*%
X89726700Y26755000D03*
X91476700Y26755000D03*
%TD*%
%TO.C,D1*%
X89726700Y38755000D03*
X91476700Y38755000D03*
%TD*%
D19*
%TO.C,H1*%
X94601700Y54005000D03*
%TD*%
D10*
%TO.C,J3*%
X96103507Y28802931D03*
D22*
X94763507Y27552931D03*
D23*
X94763507Y30052931D03*
%TD*%
D10*
%TO.C,J2*%
X92495000Y42835000D03*
D24*
X96245000Y41495000D03*
D12*
X93745000Y41495000D03*
X91245000Y41495000D03*
X88745000Y41495000D03*
%TD*%
D20*
%TO.C,TP1*%
X78331000Y11235000D03*
%TD*%
D14*
%TO.C,J6*%
X22298600Y29116600D03*
%TD*%
D10*
%TO.C,J9*%
X33941700Y46005000D03*
D25*
X32601700Y47255000D03*
D23*
X32601700Y44755000D03*
%TD*%
D10*
%TO.C,J4*%
X8327000Y3939000D03*
D24*
X2077000Y2599000D03*
D12*
X4577000Y2599000D03*
X7077000Y2599000D03*
X9577000Y2599000D03*
X12077000Y2599000D03*
X14577000Y2599000D03*
%TD*%
D10*
%TO.C,J5*%
X8287000Y61595000D03*
D11*
X14537000Y62935000D03*
D12*
X12037000Y62935000D03*
X9537000Y62935000D03*
X7037000Y62935000D03*
X4537000Y62935000D03*
X2037000Y62935000D03*
%TD*%
D10*
%TO.C,J10*%
X25345000Y3939000D03*
D24*
X19095000Y2599000D03*
D12*
X21595000Y2599000D03*
X24095000Y2599000D03*
X26595000Y2599000D03*
X29095000Y2599000D03*
X31595000Y2599000D03*
%TD*%
D10*
%TO.C,J13*%
X42441000Y3939000D03*
D24*
X36191000Y2599000D03*
D12*
X38691000Y2599000D03*
X41191000Y2599000D03*
X43691000Y2599000D03*
X46191000Y2599000D03*
X48691000Y2599000D03*
%TD*%
D26*
%TO.C,J1*%
X19991000Y62035000D03*
D27*
X24991000Y62035000D03*
%TD*%
D10*
%TO.C,J12*%
X38851700Y61595000D03*
D11*
X47601700Y62935000D03*
D12*
X45101700Y62935000D03*
X42601700Y62935000D03*
X40101700Y62935000D03*
X37601700Y62935000D03*
X35101700Y62935000D03*
X32601700Y62935000D03*
X30101700Y62935000D03*
%TD*%
D28*
%TO.C,U3*%
X62722601Y29913770D03*
X62722601Y28413770D03*
X63472601Y30663770D03*
X63472601Y29163770D03*
X63472601Y27663770D03*
X64222601Y29913770D03*
X64222601Y28413770D03*
X64972601Y30663770D03*
X64972601Y29163770D03*
X64972601Y27663770D03*
X65722601Y29913770D03*
X65722601Y28413770D03*
%TD*%
M02*
