%TF.GenerationSoftware,KiCad,Pcbnew,8.0.2*%
%TF.CreationDate,2024-07-28T21:03:14+03:00*%
%TF.ProjectId,hiro_samurai,6869726f-5f73-4616-9d75-7261692e6b69,rev?*%
%TF.SameCoordinates,Original*%
%TF.FileFunction,Soldermask,Bot*%
%TF.FilePolarity,Negative*%
%FSLAX46Y46*%
G04 Gerber Fmt 4.6, Leading zero omitted, Abs format (unit mm)*
G04 Created by KiCad (PCBNEW 8.0.2) date 2024-07-28 21:03:14*
%MOMM*%
%LPD*%
G01*
G04 APERTURE LIST*
G04 Aperture macros list*
%AMRoundRect*
0 Rectangle with rounded corners*
0 $1 Rounding radius*
0 $2 $3 $4 $5 $6 $7 $8 $9 X,Y pos of 4 corners*
0 Add a 4 corners polygon primitive as box body*
4,1,4,$2,$3,$4,$5,$6,$7,$8,$9,$2,$3,0*
0 Add four circle primitives for the rounded corners*
1,1,$1+$1,$2,$3*
1,1,$1+$1,$4,$5*
1,1,$1+$1,$6,$7*
1,1,$1+$1,$8,$9*
0 Add four rect primitives between the rounded corners*
20,1,$1+$1,$2,$3,$4,$5,0*
20,1,$1+$1,$4,$5,$6,$7,0*
20,1,$1+$1,$6,$7,$8,$9,0*
20,1,$1+$1,$8,$9,$2,$3,0*%
%AMFreePoly0*
4,1,22,0.945671,0.830970,1.026777,0.776777,1.080970,0.695671,1.100000,0.600000,1.100000,-0.600000,1.080970,-0.695671,1.026777,-0.776777,0.945671,-0.830970,0.850000,-0.850000,-0.450000,-0.850000,-0.545671,-0.830970,-0.626777,-0.776777,-1.026777,-0.376777,-1.080970,-0.295671,-1.100000,-0.200000,-1.100000,0.600000,-1.080970,0.695671,-1.026777,0.776777,-0.945671,0.830970,-0.850000,0.850000,
0.850000,0.850000,0.945671,0.830970,0.945671,0.830970,$1*%
%AMFreePoly1*
4,1,22,0.945671,0.830970,1.026777,0.776777,1.080970,0.695671,1.100000,0.600000,1.100000,-0.600000,1.080970,-0.695671,1.026777,-0.776777,0.945671,-0.830970,0.850000,-0.850000,-0.850000,-0.850000,-0.945671,-0.830970,-1.026777,-0.776777,-1.080970,-0.695671,-1.100000,-0.600000,-1.100000,0.200000,-1.080970,0.295671,-1.026777,0.376777,-0.626777,0.776777,-0.545671,0.830970,-0.450000,0.850000,
0.850000,0.850000,0.945671,0.830970,0.945671,0.830970,$1*%
G04 Aperture macros list end*
%ADD10C,0.010000*%
%ADD11C,1.300000*%
%ADD12RoundRect,0.250000X0.600000X-0.850000X0.600000X0.850000X-0.600000X0.850000X-0.600000X-0.850000X0*%
%ADD13O,1.700000X2.200000*%
%ADD14C,0.660000*%
%ADD15O,0.580000X1.000000*%
%ADD16C,1.100000*%
%ADD17C,3.200000*%
%ADD18FreePoly0,180.000000*%
%ADD19O,2.200000X1.700000*%
%ADD20RoundRect,0.250000X-0.600000X0.850000X-0.600000X-0.850000X0.600000X-0.850000X0.600000X0.850000X0*%
%ADD21RoundRect,0.160000X-0.197500X-0.160000X0.197500X-0.160000X0.197500X0.160000X-0.197500X0.160000X0*%
%ADD22RoundRect,0.160000X0.160000X-0.197500X0.160000X0.197500X-0.160000X0.197500X-0.160000X-0.197500X0*%
%ADD23RoundRect,0.225000X-0.225000X-0.250000X0.225000X-0.250000X0.225000X0.250000X-0.225000X0.250000X0*%
%ADD24RoundRect,0.075000X0.662500X0.075000X-0.662500X0.075000X-0.662500X-0.075000X0.662500X-0.075000X0*%
%ADD25RoundRect,0.075000X0.075000X0.662500X-0.075000X0.662500X-0.075000X-0.662500X0.075000X-0.662500X0*%
%ADD26RoundRect,0.237500X-0.300000X-0.237500X0.300000X-0.237500X0.300000X0.237500X-0.300000X0.237500X0*%
%ADD27RoundRect,0.250000X-1.100000X0.412500X-1.100000X-0.412500X1.100000X-0.412500X1.100000X0.412500X0*%
%ADD28RoundRect,0.155000X-0.212500X-0.155000X0.212500X-0.155000X0.212500X0.155000X-0.212500X0.155000X0*%
%ADD29RoundRect,0.325000X-0.525000X-0.325000X0.525000X-0.325000X0.525000X0.325000X-0.525000X0.325000X0*%
%ADD30RoundRect,0.325000X0.525000X0.325000X-0.525000X0.325000X-0.525000X-0.325000X0.525000X-0.325000X0*%
%ADD31FreePoly1,180.000000*%
%ADD32RoundRect,0.237500X0.250000X0.237500X-0.250000X0.237500X-0.250000X-0.237500X0.250000X-0.237500X0*%
%ADD33RoundRect,0.237500X0.237500X-0.300000X0.237500X0.300000X-0.237500X0.300000X-0.237500X-0.300000X0*%
%ADD34RoundRect,0.237500X-0.237500X0.300000X-0.237500X-0.300000X0.237500X-0.300000X0.237500X0.300000X0*%
%ADD35RoundRect,0.160000X0.197500X0.160000X-0.197500X0.160000X-0.197500X-0.160000X0.197500X-0.160000X0*%
%ADD36R,2.400000X0.740000*%
%ADD37RoundRect,0.160000X-0.160000X0.197500X-0.160000X-0.197500X0.160000X-0.197500X0.160000X0.197500X0*%
%ADD38RoundRect,0.155000X0.155000X-0.212500X0.155000X0.212500X-0.155000X0.212500X-0.155000X-0.212500X0*%
%ADD39RoundRect,0.050000X0.285000X0.100000X-0.285000X0.100000X-0.285000X-0.100000X0.285000X-0.100000X0*%
%ADD40RoundRect,0.100000X0.225000X0.100000X-0.225000X0.100000X-0.225000X-0.100000X0.225000X-0.100000X0*%
%ADD41R,0.400000X0.900000*%
%ADD42RoundRect,0.100000X-0.225000X-0.100000X0.225000X-0.100000X0.225000X0.100000X-0.225000X0.100000X0*%
%ADD43RoundRect,0.155000X-0.155000X0.212500X-0.155000X-0.212500X0.155000X-0.212500X0.155000X0.212500X0*%
%ADD44RoundRect,0.237500X0.300000X0.237500X-0.300000X0.237500X-0.300000X-0.237500X0.300000X-0.237500X0*%
%ADD45RoundRect,0.250000X0.337500X0.475000X-0.337500X0.475000X-0.337500X-0.475000X0.337500X-0.475000X0*%
%ADD46RoundRect,0.225000X0.225000X0.250000X-0.225000X0.250000X-0.225000X-0.250000X0.225000X-0.250000X0*%
%ADD47RoundRect,0.150000X-0.512500X-0.150000X0.512500X-0.150000X0.512500X0.150000X-0.512500X0.150000X0*%
%ADD48R,0.650000X3.000000*%
%ADD49R,3.550000X3.500000*%
%ADD50RoundRect,0.100000X0.100000X-0.225000X0.100000X0.225000X-0.100000X0.225000X-0.100000X-0.225000X0*%
%ADD51R,3.800000X3.800000*%
%ADD52C,3.800000*%
%ADD53RoundRect,0.137500X-0.662500X-0.137500X0.662500X-0.137500X0.662500X0.137500X-0.662500X0.137500X0*%
%ADD54RoundRect,0.150000X-0.587500X-0.150000X0.587500X-0.150000X0.587500X0.150000X-0.587500X0.150000X0*%
%ADD55R,0.900000X0.800000*%
%ADD56RoundRect,0.135000X0.185000X-0.135000X0.185000X0.135000X-0.185000X0.135000X-0.185000X-0.135000X0*%
%ADD57RoundRect,0.250000X1.050000X0.550000X-1.050000X0.550000X-1.050000X-0.550000X1.050000X-0.550000X0*%
%ADD58RoundRect,0.237500X-0.237500X0.250000X-0.237500X-0.250000X0.237500X-0.250000X0.237500X0.250000X0*%
%ADD59RoundRect,0.237500X0.237500X-0.287500X0.237500X0.287500X-0.237500X0.287500X-0.237500X-0.287500X0*%
%ADD60RoundRect,0.150000X0.512500X0.150000X-0.512500X0.150000X-0.512500X-0.150000X0.512500X-0.150000X0*%
%ADD61RoundRect,0.250000X-0.412500X-1.100000X0.412500X-1.100000X0.412500X1.100000X-0.412500X1.100000X0*%
%ADD62RoundRect,0.237500X0.287500X0.237500X-0.287500X0.237500X-0.287500X-0.237500X0.287500X-0.237500X0*%
%ADD63RoundRect,0.062500X0.350000X0.062500X-0.350000X0.062500X-0.350000X-0.062500X0.350000X-0.062500X0*%
%ADD64RoundRect,0.062500X0.062500X0.350000X-0.062500X0.350000X-0.062500X-0.350000X0.062500X-0.350000X0*%
%ADD65R,2.700000X2.700000*%
%ADD66R,0.625000X0.250000*%
%ADD67R,0.700000X0.450000*%
%ADD68R,0.575000X0.450000*%
%ADD69RoundRect,0.225000X-0.375000X0.225000X-0.375000X-0.225000X0.375000X-0.225000X0.375000X0.225000X0*%
%ADD70R,1.500000X0.900000*%
%ADD71R,0.900000X1.500000*%
%ADD72R,1.000000X1.000000*%
%ADD73C,0.600000*%
%ADD74RoundRect,0.100000X0.100000X-0.637500X0.100000X0.637500X-0.100000X0.637500X-0.100000X-0.637500X0*%
%ADD75RoundRect,0.150000X-0.825000X-0.150000X0.825000X-0.150000X0.825000X0.150000X-0.825000X0.150000X0*%
%ADD76RoundRect,0.135000X-0.185000X0.135000X-0.185000X-0.135000X0.185000X-0.135000X0.185000X0.135000X0*%
%ADD77RoundRect,0.237500X0.237500X-0.250000X0.237500X0.250000X-0.237500X0.250000X-0.237500X-0.250000X0*%
G04 APERTURE END LIST*
D10*
%TO.C,U13*%
X49115000Y31750000D02*
X48665000Y31750000D01*
X48665000Y32050000D01*
X49115000Y32050000D01*
X49115000Y31750000D01*
G36*
X49115000Y31750000D02*
G01*
X48665000Y31750000D01*
X48665000Y32050000D01*
X49115000Y32050000D01*
X49115000Y31750000D01*
G37*
X49115000Y31350000D02*
X48665000Y31350000D01*
X48665000Y31650000D01*
X49115000Y31650000D01*
X49115000Y31350000D01*
G36*
X49115000Y31350000D02*
G01*
X48665000Y31350000D01*
X48665000Y31650000D01*
X49115000Y31650000D01*
X49115000Y31350000D01*
G37*
X49115000Y30950000D02*
X48665000Y30950000D01*
X48665000Y31250000D01*
X49115000Y31250000D01*
X49115000Y30950000D01*
G36*
X49115000Y30950000D02*
G01*
X48665000Y30950000D01*
X48665000Y31250000D01*
X49115000Y31250000D01*
X49115000Y30950000D01*
G37*
X49115000Y30550000D02*
X48665000Y30550000D01*
X48665000Y30850000D01*
X49115000Y30850000D01*
X49115000Y30550000D01*
G36*
X49115000Y30550000D02*
G01*
X48665000Y30550000D01*
X48665000Y30850000D01*
X49115000Y30850000D01*
X49115000Y30550000D01*
G37*
X49115000Y30150000D02*
X48665000Y30150000D01*
X48665000Y30450000D01*
X49115000Y30450000D01*
X49115000Y30150000D01*
G36*
X49115000Y30150000D02*
G01*
X48665000Y30150000D01*
X48665000Y30450000D01*
X49115000Y30450000D01*
X49115000Y30150000D01*
G37*
X49115000Y29750000D02*
X48665000Y29750000D01*
X48665000Y30050000D01*
X49115000Y30050000D01*
X49115000Y29750000D01*
G36*
X49115000Y29750000D02*
G01*
X48665000Y29750000D01*
X48665000Y30050000D01*
X49115000Y30050000D01*
X49115000Y29750000D01*
G37*
X49475000Y32260000D02*
X49175000Y32260000D01*
X49175000Y32710000D01*
X49475000Y32710000D01*
X49475000Y32260000D01*
G36*
X49475000Y32260000D02*
G01*
X49175000Y32260000D01*
X49175000Y32710000D01*
X49475000Y32710000D01*
X49475000Y32260000D01*
G37*
X49475000Y29090000D02*
X49175000Y29090000D01*
X49175000Y29540000D01*
X49475000Y29540000D01*
X49475000Y29090000D01*
G36*
X49475000Y29090000D02*
G01*
X49175000Y29090000D01*
X49175000Y29540000D01*
X49475000Y29540000D01*
X49475000Y29090000D01*
G37*
X49765000Y30750000D02*
X49315000Y30750000D01*
X49315000Y31050000D01*
X49765000Y31050000D01*
X49765000Y30750000D01*
G36*
X49765000Y30750000D02*
G01*
X49315000Y30750000D01*
X49315000Y31050000D01*
X49765000Y31050000D01*
X49765000Y30750000D01*
G37*
X49875000Y32260000D02*
X49575000Y32260000D01*
X49575000Y32710000D01*
X49875000Y32710000D01*
X49875000Y32260000D01*
G36*
X49875000Y32260000D02*
G01*
X49575000Y32260000D01*
X49575000Y32710000D01*
X49875000Y32710000D01*
X49875000Y32260000D01*
G37*
X49875000Y29090000D02*
X49575000Y29090000D01*
X49575000Y29540000D01*
X49875000Y29540000D01*
X49875000Y29090000D01*
G36*
X49875000Y29090000D02*
G01*
X49575000Y29090000D01*
X49575000Y29540000D01*
X49875000Y29540000D01*
X49875000Y29090000D01*
G37*
X50275000Y32260000D02*
X49975000Y32260000D01*
X49975000Y32710000D01*
X50275000Y32710000D01*
X50275000Y32260000D01*
G36*
X50275000Y32260000D02*
G01*
X49975000Y32260000D01*
X49975000Y32710000D01*
X50275000Y32710000D01*
X50275000Y32260000D01*
G37*
X50275000Y29090000D02*
X49975000Y29090000D01*
X49975000Y29540000D01*
X50275000Y29540000D01*
X50275000Y29090000D01*
G36*
X50275000Y29090000D02*
G01*
X49975000Y29090000D01*
X49975000Y29540000D01*
X50275000Y29540000D01*
X50275000Y29090000D01*
G37*
X50475000Y31460000D02*
X50175000Y31460000D01*
X50175000Y31910000D01*
X50475000Y31910000D01*
X50475000Y31460000D01*
G36*
X50475000Y31460000D02*
G01*
X50175000Y31460000D01*
X50175000Y31910000D01*
X50475000Y31910000D01*
X50475000Y31460000D01*
G37*
X50475000Y29890000D02*
X50175000Y29890000D01*
X50175000Y30340000D01*
X50475000Y30340000D01*
X50475000Y29890000D01*
G36*
X50475000Y29890000D02*
G01*
X50175000Y29890000D01*
X50175000Y30340000D01*
X50475000Y30340000D01*
X50475000Y29890000D01*
G37*
X50675000Y32260000D02*
X50375000Y32260000D01*
X50375000Y32710000D01*
X50675000Y32710000D01*
X50675000Y32260000D01*
G36*
X50675000Y32260000D02*
G01*
X50375000Y32260000D01*
X50375000Y32710000D01*
X50675000Y32710000D01*
X50675000Y32260000D01*
G37*
X50675000Y29090000D02*
X50375000Y29090000D01*
X50375000Y29540000D01*
X50675000Y29540000D01*
X50675000Y29090000D01*
G36*
X50675000Y29090000D02*
G01*
X50375000Y29090000D01*
X50375000Y29540000D01*
X50675000Y29540000D01*
X50675000Y29090000D01*
G37*
X50875000Y31460000D02*
X50575000Y31460000D01*
X50575000Y31910000D01*
X50875000Y31910000D01*
X50875000Y31460000D01*
G36*
X50875000Y31460000D02*
G01*
X50575000Y31460000D01*
X50575000Y31910000D01*
X50875000Y31910000D01*
X50875000Y31460000D01*
G37*
X50875000Y29890000D02*
X50575000Y29890000D01*
X50575000Y30340000D01*
X50875000Y30340000D01*
X50875000Y29890000D01*
G36*
X50875000Y29890000D02*
G01*
X50575000Y29890000D01*
X50575000Y30340000D01*
X50875000Y30340000D01*
X50875000Y29890000D01*
G37*
X51075000Y32260000D02*
X50775000Y32260000D01*
X50775000Y32710000D01*
X51075000Y32710000D01*
X51075000Y32260000D01*
G36*
X51075000Y32260000D02*
G01*
X50775000Y32260000D01*
X50775000Y32710000D01*
X51075000Y32710000D01*
X51075000Y32260000D01*
G37*
X51075000Y29090000D02*
X50775000Y29090000D01*
X50775000Y29540000D01*
X51075000Y29540000D01*
X51075000Y29090000D01*
G36*
X51075000Y29090000D02*
G01*
X50775000Y29090000D01*
X50775000Y29540000D01*
X51075000Y29540000D01*
X51075000Y29090000D01*
G37*
X51275000Y31460000D02*
X50975000Y31460000D01*
X50975000Y31910000D01*
X51275000Y31910000D01*
X51275000Y31460000D01*
G36*
X51275000Y31460000D02*
G01*
X50975000Y31460000D01*
X50975000Y31910000D01*
X51275000Y31910000D01*
X51275000Y31460000D01*
G37*
X51275000Y29890000D02*
X50975000Y29890000D01*
X50975000Y30340000D01*
X51275000Y30340000D01*
X51275000Y29890000D01*
G36*
X51275000Y29890000D02*
G01*
X50975000Y29890000D01*
X50975000Y30340000D01*
X51275000Y30340000D01*
X51275000Y29890000D01*
G37*
X51475000Y32260000D02*
X51175000Y32260000D01*
X51175000Y32710000D01*
X51475000Y32710000D01*
X51475000Y32260000D01*
G36*
X51475000Y32260000D02*
G01*
X51175000Y32260000D01*
X51175000Y32710000D01*
X51475000Y32710000D01*
X51475000Y32260000D01*
G37*
X51475000Y29090000D02*
X51175000Y29090000D01*
X51175000Y29540000D01*
X51475000Y29540000D01*
X51475000Y29090000D01*
G36*
X51475000Y29090000D02*
G01*
X51175000Y29090000D01*
X51175000Y29540000D01*
X51475000Y29540000D01*
X51475000Y29090000D01*
G37*
X51875000Y32260000D02*
X51575000Y32260000D01*
X51575000Y32710000D01*
X51875000Y32710000D01*
X51875000Y32260000D01*
G36*
X51875000Y32260000D02*
G01*
X51575000Y32260000D01*
X51575000Y32710000D01*
X51875000Y32710000D01*
X51875000Y32260000D01*
G37*
X51875000Y29090000D02*
X51575000Y29090000D01*
X51575000Y29540000D01*
X51875000Y29540000D01*
X51875000Y29090000D01*
G36*
X51875000Y29090000D02*
G01*
X51575000Y29090000D01*
X51575000Y29540000D01*
X51875000Y29540000D01*
X51875000Y29090000D01*
G37*
X52135000Y30750000D02*
X51685000Y30750000D01*
X51685000Y31050000D01*
X52135000Y31050000D01*
X52135000Y30750000D01*
G36*
X52135000Y30750000D02*
G01*
X51685000Y30750000D01*
X51685000Y31050000D01*
X52135000Y31050000D01*
X52135000Y30750000D01*
G37*
X52275000Y32260000D02*
X51975000Y32260000D01*
X51975000Y32710000D01*
X52275000Y32710000D01*
X52275000Y32260000D01*
G36*
X52275000Y32260000D02*
G01*
X51975000Y32260000D01*
X51975000Y32710000D01*
X52275000Y32710000D01*
X52275000Y32260000D01*
G37*
X52275000Y29090000D02*
X51975000Y29090000D01*
X51975000Y29540000D01*
X52275000Y29540000D01*
X52275000Y29090000D01*
G36*
X52275000Y29090000D02*
G01*
X51975000Y29090000D01*
X51975000Y29540000D01*
X52275000Y29540000D01*
X52275000Y29090000D01*
G37*
X52785000Y31750000D02*
X52335000Y31750000D01*
X52335000Y32050000D01*
X52785000Y32050000D01*
X52785000Y31750000D01*
G36*
X52785000Y31750000D02*
G01*
X52335000Y31750000D01*
X52335000Y32050000D01*
X52785000Y32050000D01*
X52785000Y31750000D01*
G37*
X52785000Y31350000D02*
X52335000Y31350000D01*
X52335000Y31650000D01*
X52785000Y31650000D01*
X52785000Y31350000D01*
G36*
X52785000Y31350000D02*
G01*
X52335000Y31350000D01*
X52335000Y31650000D01*
X52785000Y31650000D01*
X52785000Y31350000D01*
G37*
X52785000Y30950000D02*
X52335000Y30950000D01*
X52335000Y31250000D01*
X52785000Y31250000D01*
X52785000Y30950000D01*
G36*
X52785000Y30950000D02*
G01*
X52335000Y30950000D01*
X52335000Y31250000D01*
X52785000Y31250000D01*
X52785000Y30950000D01*
G37*
X52785000Y30550000D02*
X52335000Y30550000D01*
X52335000Y30850000D01*
X52785000Y30850000D01*
X52785000Y30550000D01*
G36*
X52785000Y30550000D02*
G01*
X52335000Y30550000D01*
X52335000Y30850000D01*
X52785000Y30850000D01*
X52785000Y30550000D01*
G37*
X52785000Y30150000D02*
X52335000Y30150000D01*
X52335000Y30450000D01*
X52785000Y30450000D01*
X52785000Y30150000D01*
G36*
X52785000Y30150000D02*
G01*
X52335000Y30150000D01*
X52335000Y30450000D01*
X52785000Y30450000D01*
X52785000Y30150000D01*
G37*
X52785000Y29750000D02*
X52335000Y29750000D01*
X52335000Y30050000D01*
X52785000Y30050000D01*
X52785000Y29750000D01*
G36*
X52785000Y29750000D02*
G01*
X52335000Y29750000D01*
X52335000Y30050000D01*
X52785000Y30050000D01*
X52785000Y29750000D01*
G37*
X49765000Y31375000D02*
X49765000Y31150000D01*
X49315000Y31150000D01*
X49315000Y31450000D01*
X49690000Y31450000D01*
X49765000Y31375000D01*
G36*
X49765000Y31375000D02*
G01*
X49765000Y31150000D01*
X49315000Y31150000D01*
X49315000Y31450000D01*
X49690000Y31450000D01*
X49765000Y31375000D01*
G37*
X49765000Y30425000D02*
X49690000Y30350000D01*
X49315000Y30350000D01*
X49315000Y30650000D01*
X49765000Y30650000D01*
X49765000Y30425000D01*
G36*
X49765000Y30425000D02*
G01*
X49690000Y30350000D01*
X49315000Y30350000D01*
X49315000Y30650000D01*
X49765000Y30650000D01*
X49765000Y30425000D01*
G37*
X50075000Y31460000D02*
X49850000Y31460000D01*
X49775000Y31535000D01*
X49775000Y31910000D01*
X50075000Y31910000D01*
X50075000Y31460000D01*
G36*
X50075000Y31460000D02*
G01*
X49850000Y31460000D01*
X49775000Y31535000D01*
X49775000Y31910000D01*
X50075000Y31910000D01*
X50075000Y31460000D01*
G37*
X50075000Y29890000D02*
X49775000Y29890000D01*
X49775000Y30265000D01*
X49850000Y30340000D01*
X50075000Y30340000D01*
X50075000Y29890000D01*
G36*
X50075000Y29890000D02*
G01*
X49775000Y29890000D01*
X49775000Y30265000D01*
X49850000Y30340000D01*
X50075000Y30340000D01*
X50075000Y29890000D01*
G37*
X51675000Y31535000D02*
X51600000Y31460000D01*
X51375000Y31460000D01*
X51375000Y31910000D01*
X51675000Y31910000D01*
X51675000Y31535000D01*
G36*
X51675000Y31535000D02*
G01*
X51600000Y31460000D01*
X51375000Y31460000D01*
X51375000Y31910000D01*
X51675000Y31910000D01*
X51675000Y31535000D01*
G37*
X51675000Y30265000D02*
X51675000Y29890000D01*
X51375000Y29890000D01*
X51375000Y30340000D01*
X51600000Y30340000D01*
X51675000Y30265000D01*
G36*
X51675000Y30265000D02*
G01*
X51675000Y29890000D01*
X51375000Y29890000D01*
X51375000Y30340000D01*
X51600000Y30340000D01*
X51675000Y30265000D01*
G37*
X52135000Y31150000D02*
X51685000Y31150000D01*
X51685000Y31375000D01*
X51760000Y31450000D01*
X52135000Y31450000D01*
X52135000Y31150000D01*
G36*
X52135000Y31150000D02*
G01*
X51685000Y31150000D01*
X51685000Y31375000D01*
X51760000Y31450000D01*
X52135000Y31450000D01*
X52135000Y31150000D01*
G37*
X52135000Y30350000D02*
X51760000Y30350000D01*
X51685000Y30425000D01*
X51685000Y30650000D01*
X52135000Y30650000D01*
X52135000Y30350000D01*
G36*
X52135000Y30350000D02*
G01*
X51760000Y30350000D01*
X51685000Y30425000D01*
X51685000Y30650000D01*
X52135000Y30650000D01*
X52135000Y30350000D01*
G37*
%TD*%
D11*
%TO.C,J14*%
X92200242Y22387945D03*
D12*
X88450242Y23727945D03*
D13*
X90950242Y23727945D03*
X93450242Y23727945D03*
X95950242Y23727945D03*
%TD*%
D14*
%TO.C,J8*%
X89601700Y29255000D03*
D15*
X89601700Y36755000D03*
D16*
X87451700Y30605000D03*
X91751700Y30605000D03*
X87451700Y35405000D03*
X91751700Y35405000D03*
%TD*%
D17*
%TO.C,H3*%
X3601700Y12005000D03*
%TD*%
%TO.C,H4*%
X94601700Y12005000D03*
%TD*%
%TO.C,H2*%
X3601700Y54005000D03*
%TD*%
%TO.C,H1*%
X94601700Y54005000D03*
%TD*%
D11*
%TO.C,J3*%
X96103507Y28802931D03*
D18*
X94763507Y27552931D03*
D19*
X94763507Y30052931D03*
%TD*%
D11*
%TO.C,J2*%
X92495000Y42835000D03*
D20*
X96245000Y41495000D03*
D13*
X93745000Y41495000D03*
X91245000Y41495000D03*
X88745000Y41495000D03*
%TD*%
D21*
%TO.C,R10*%
X93906700Y22005000D03*
X95101700Y22005000D03*
%TD*%
D22*
%TO.C,R53*%
X55166200Y17157500D03*
X55166200Y18352500D03*
%TD*%
D23*
%TO.C,C1*%
X96826700Y45005000D03*
X98376700Y45005000D03*
%TD*%
D24*
%TO.C,U1*%
X18014200Y34092500D03*
X18014200Y33592500D03*
X18014200Y33092500D03*
X18014200Y32592500D03*
X18014200Y32092500D03*
X18014200Y31592500D03*
X18014200Y31092500D03*
X18014200Y30592500D03*
X18014200Y30092500D03*
X18014200Y29592500D03*
X18014200Y29092500D03*
X18014200Y28592500D03*
D25*
X16601700Y27180000D03*
X16101700Y27180000D03*
X15601700Y27180000D03*
X15101700Y27180000D03*
X14601700Y27180000D03*
X14101700Y27180000D03*
X13601700Y27180000D03*
X13101700Y27180000D03*
X12601700Y27180000D03*
X12101700Y27180000D03*
X11601700Y27180000D03*
X11101700Y27180000D03*
D24*
X9689200Y28592500D03*
X9689200Y29092500D03*
X9689200Y29592500D03*
X9689200Y30092500D03*
X9689200Y30592500D03*
X9689200Y31092500D03*
X9689200Y31592500D03*
X9689200Y32092500D03*
X9689200Y32592500D03*
X9689200Y33092500D03*
X9689200Y33592500D03*
X9689200Y34092500D03*
D25*
X11101700Y35505000D03*
X11601700Y35505000D03*
X12101700Y35505000D03*
X12601700Y35505000D03*
X13101700Y35505000D03*
X13601700Y35505000D03*
X14101700Y35505000D03*
X14601700Y35505000D03*
X15101700Y35505000D03*
X15601700Y35505000D03*
X16101700Y35505000D03*
X16601700Y35505000D03*
%TD*%
D26*
%TO.C,C52*%
X43101700Y46755000D03*
X44826700Y46755000D03*
%TD*%
D27*
%TO.C,C4*%
X28665213Y46365567D03*
X28665213Y43240567D03*
%TD*%
D28*
%TO.C,C71*%
X53795500Y32005000D03*
X54930500Y32005000D03*
%TD*%
D26*
%TO.C,C41*%
X41700368Y38394182D03*
X43425368Y38394182D03*
%TD*%
D29*
%TO.C,SW_RESET2*%
X19047400Y18480600D03*
D30*
X19047400Y22480600D03*
%TD*%
D21*
%TO.C,R62*%
X28004638Y35716348D03*
X29199638Y35716348D03*
%TD*%
D11*
%TO.C,J9*%
X33941700Y46005000D03*
D31*
X32601700Y47255000D03*
D19*
X32601700Y44755000D03*
%TD*%
D28*
%TO.C,C17*%
X19784200Y31505000D03*
X20919200Y31505000D03*
%TD*%
D32*
%TO.C,R3*%
X89708300Y38768600D03*
X87883300Y38768600D03*
%TD*%
D33*
%TO.C,C18*%
X17849077Y36107073D03*
X17849077Y37832073D03*
%TD*%
D28*
%TO.C,C36*%
X28034638Y32711864D03*
X29169638Y32711864D03*
%TD*%
D34*
%TO.C,C45*%
X41601700Y24867500D03*
X41601700Y23142500D03*
%TD*%
D35*
%TO.C,R58*%
X53460500Y46432400D03*
X52265500Y46432400D03*
%TD*%
D23*
%TO.C,C3*%
X35900000Y7679000D03*
X37450000Y7679000D03*
%TD*%
D36*
%TO.C,J11*%
X23213000Y17425000D03*
X27113000Y17425000D03*
X23213000Y18695000D03*
X27113000Y18695000D03*
X23213000Y19965000D03*
X27113000Y19965000D03*
X23213000Y21235000D03*
X27113000Y21235000D03*
X23213000Y22505000D03*
X27113000Y22505000D03*
%TD*%
D37*
%TO.C,R13*%
X83969800Y41708100D03*
X83969800Y40513100D03*
%TD*%
D38*
%TO.C,C22*%
X25101700Y32120000D03*
X25101700Y33255000D03*
%TD*%
D39*
%TO.C,U5*%
X32102138Y35461864D03*
X32102138Y34961864D03*
X32102138Y34461864D03*
X32102138Y33961864D03*
X30622138Y33961864D03*
X30622138Y34461864D03*
X30622138Y34961864D03*
X30622138Y35461864D03*
%TD*%
D40*
%TO.C,Q4*%
X13121781Y45238585D03*
X13121781Y44588585D03*
X13121781Y43938585D03*
X11221781Y43938585D03*
X11221781Y44588585D03*
X11221781Y45238585D03*
%TD*%
D38*
%TO.C,C59*%
X76175000Y33317500D03*
X76175000Y34452500D03*
%TD*%
D41*
%TO.C,RN1*%
X6001700Y18505000D03*
X6801700Y18505000D03*
X7601700Y18505000D03*
X8401700Y18505000D03*
X8401700Y16805000D03*
X7601700Y16805000D03*
X6801700Y16805000D03*
X6001700Y16805000D03*
%TD*%
D42*
%TO.C,Q3*%
X14030865Y20029845D03*
X14030865Y20679845D03*
X14030865Y21329845D03*
X15930865Y21329845D03*
X15930865Y20679845D03*
X15930865Y20029845D03*
%TD*%
D28*
%TO.C,C72*%
X53795500Y30755000D03*
X54930500Y30755000D03*
%TD*%
D43*
%TO.C,C74*%
X49945000Y28082500D03*
X49945000Y26947500D03*
%TD*%
D41*
%TO.C,RN5*%
X13362976Y40673576D03*
X12562976Y40673576D03*
X11762976Y40673576D03*
X10962976Y40673576D03*
X10962976Y42373576D03*
X11762976Y42373576D03*
X12562976Y42373576D03*
X13362976Y42373576D03*
%TD*%
D44*
%TO.C,C20*%
X11651462Y25324412D03*
X9926462Y25324412D03*
%TD*%
D11*
%TO.C,J4*%
X8327000Y3939000D03*
D20*
X2077000Y2599000D03*
D13*
X4577000Y2599000D03*
X7077000Y2599000D03*
X9577000Y2599000D03*
X12077000Y2599000D03*
X14577000Y2599000D03*
%TD*%
D34*
%TO.C,C15*%
X21198566Y26713507D03*
X21198566Y24988507D03*
%TD*%
D26*
%TO.C,C31*%
X34739638Y35711864D03*
X36464638Y35711864D03*
%TD*%
D45*
%TO.C,C6*%
X29452800Y48379957D03*
X27377800Y48379957D03*
%TD*%
D26*
%TO.C,C32*%
X34751195Y34164956D03*
X36476195Y34164956D03*
%TD*%
D41*
%TO.C,RN2*%
X13201700Y24557292D03*
X14001700Y24557292D03*
X14801700Y24557292D03*
X15601700Y24557292D03*
X15601700Y22857292D03*
X14801700Y22857292D03*
X14001700Y22857292D03*
X13201700Y22857292D03*
%TD*%
D43*
%TO.C,C38*%
X29520446Y37910204D03*
X29520446Y36775204D03*
%TD*%
D21*
%TO.C,R12*%
X93156700Y25755000D03*
X94351700Y25755000D03*
%TD*%
D46*
%TO.C,C10*%
X45851700Y59755000D03*
X44301700Y59755000D03*
%TD*%
D21*
%TO.C,R71*%
X92253139Y34033952D03*
X93448139Y34033952D03*
%TD*%
D34*
%TO.C,C63*%
X43601700Y19005000D03*
X43601700Y17280000D03*
%TD*%
D30*
%TO.C,SW_RESET1*%
X77365800Y45645400D03*
D29*
X77365800Y41645400D03*
%TD*%
D11*
%TO.C,J5*%
X8287000Y61595000D03*
D12*
X14537000Y62935000D03*
D13*
X12037000Y62935000D03*
X9537000Y62935000D03*
X7037000Y62935000D03*
X4537000Y62935000D03*
X2037000Y62935000D03*
%TD*%
D37*
%TO.C,R60*%
X32226553Y37792849D03*
X32226553Y36597849D03*
%TD*%
D26*
%TO.C,C21*%
X19449490Y35293945D03*
X21174490Y35293945D03*
%TD*%
D23*
%TO.C,C9*%
X47551700Y59755000D03*
X49101700Y59755000D03*
%TD*%
D42*
%TO.C,Q2*%
X10101700Y20005000D03*
X10101700Y20655000D03*
X10101700Y21305000D03*
X12001700Y21305000D03*
X12001700Y20655000D03*
X12001700Y20005000D03*
%TD*%
D33*
%TO.C,C53*%
X76738574Y28205255D03*
X76738574Y29930255D03*
%TD*%
D47*
%TO.C,U12*%
X39601700Y19255000D03*
X39601700Y20205000D03*
X39601700Y21155000D03*
X41876700Y21155000D03*
X41876700Y19255000D03*
%TD*%
D48*
%TO.C,J15*%
X66901000Y44798200D03*
X65631000Y47798200D03*
X64361000Y44798200D03*
X63091000Y47798200D03*
%TD*%
D43*
%TO.C,C33*%
X33324849Y34920489D03*
X33324849Y33785489D03*
%TD*%
D34*
%TO.C,C29*%
X53851700Y24642500D03*
X53851700Y22917500D03*
%TD*%
D44*
%TO.C,C16*%
X9836376Y26835410D03*
X8111376Y26835410D03*
%TD*%
D28*
%TO.C,C58*%
X80317500Y30135000D03*
X81452500Y30135000D03*
%TD*%
D41*
%TO.C,RN6*%
X13401700Y46755000D03*
X12601700Y46755000D03*
X11801700Y46755000D03*
X11001700Y46755000D03*
X11001700Y48455000D03*
X11801700Y48455000D03*
X12601700Y48455000D03*
X13401700Y48455000D03*
%TD*%
D49*
%TO.C,L1*%
X30663000Y27919701D03*
X39613000Y27919701D03*
%TD*%
D35*
%TO.C,R57*%
X53460500Y48369800D03*
X52265500Y48369800D03*
%TD*%
D47*
%TO.C,U6*%
X38826700Y46855000D03*
X38826700Y47805000D03*
X38826700Y48755000D03*
X41101700Y48755000D03*
X41101700Y46855000D03*
%TD*%
D41*
%TO.C,RN8*%
X3939000Y40699800D03*
X3139000Y40699800D03*
X2339000Y40699800D03*
X1539000Y40699800D03*
X1539000Y42399800D03*
X2339000Y42399800D03*
X3139000Y42399800D03*
X3939000Y42399800D03*
%TD*%
D43*
%TO.C,C73*%
X48865000Y28092500D03*
X48865000Y26957500D03*
%TD*%
D11*
%TO.C,J10*%
X25345000Y3939000D03*
D20*
X19095000Y2599000D03*
D13*
X21595000Y2599000D03*
X24095000Y2599000D03*
X26595000Y2599000D03*
X29095000Y2599000D03*
X31595000Y2599000D03*
%TD*%
D34*
%TO.C,C46*%
X40113000Y37367500D03*
X40113000Y35642500D03*
%TD*%
D50*
%TO.C,Q13*%
X79765000Y37485000D03*
X79115000Y37485000D03*
X78465000Y37485000D03*
X78465000Y39385000D03*
X79115000Y39385000D03*
X79765000Y39385000D03*
%TD*%
D32*
%TO.C,R4*%
X89708300Y26755000D03*
X87883300Y26755000D03*
%TD*%
D11*
%TO.C,J13*%
X42441000Y3939000D03*
D20*
X36191000Y2599000D03*
D13*
X38691000Y2599000D03*
X41191000Y2599000D03*
X43691000Y2599000D03*
X46191000Y2599000D03*
X48691000Y2599000D03*
%TD*%
D51*
%TO.C,J1*%
X19991000Y62035000D03*
D52*
X24991000Y62035000D03*
%TD*%
D26*
%TO.C,C75*%
X23569700Y42755000D03*
X25294700Y42755000D03*
%TD*%
D42*
%TO.C,Q1*%
X6200000Y20005000D03*
X6200000Y20655000D03*
X6200000Y21305000D03*
X8100000Y21305000D03*
X8100000Y20655000D03*
X8100000Y20005000D03*
%TD*%
D53*
%TO.C,U15*%
X78351700Y17661200D03*
X78351700Y18931200D03*
X84851700Y18931200D03*
X84851700Y17661200D03*
%TD*%
D54*
%TO.C,Q7*%
X23726700Y45805000D03*
X23726700Y47705000D03*
X25601700Y46755000D03*
%TD*%
D55*
%TO.C,Y1*%
X23825000Y32585000D03*
X22425000Y32585000D03*
X22425000Y33685000D03*
X23825000Y33685000D03*
%TD*%
D56*
%TO.C,R65*%
X30863000Y39245000D03*
X30863000Y40265000D03*
%TD*%
D37*
%TO.C,R5*%
X83969800Y45208100D03*
X83969800Y44013100D03*
%TD*%
D22*
%TO.C,R6*%
X51407000Y26917500D03*
X51407000Y28112500D03*
%TD*%
D37*
%TO.C,R64*%
X29520446Y40208903D03*
X29520446Y39013903D03*
%TD*%
D57*
%TO.C,C40*%
X37201700Y40005000D03*
X33601700Y40005000D03*
%TD*%
D34*
%TO.C,C23*%
X19601700Y26730000D03*
X19601700Y25005000D03*
%TD*%
%TO.C,C35*%
X38601700Y38117500D03*
X38601700Y36392500D03*
%TD*%
D11*
%TO.C,J12*%
X38851700Y61595000D03*
D12*
X47601700Y62935000D03*
D13*
X45101700Y62935000D03*
X42601700Y62935000D03*
X40101700Y62935000D03*
X37601700Y62935000D03*
X35101700Y62935000D03*
X32601700Y62935000D03*
X30101700Y62935000D03*
%TD*%
D26*
%TO.C,R68*%
X96876700Y27005000D03*
X98601700Y27005000D03*
%TD*%
D35*
%TO.C,R8*%
X50635000Y48345000D03*
X49440000Y48345000D03*
%TD*%
D33*
%TO.C,C39*%
X85443000Y40293700D03*
X85443000Y42018700D03*
%TD*%
D42*
%TO.C,Q5*%
X6201700Y43947800D03*
X6201700Y44597800D03*
X6201700Y45247800D03*
X8101700Y45247800D03*
X8101700Y44597800D03*
X8101700Y43947800D03*
%TD*%
D22*
%TO.C,R16*%
X14613000Y37060000D03*
X14613000Y38255000D03*
%TD*%
D58*
%TO.C,R14*%
X17601700Y47667500D03*
X17601700Y45842500D03*
%TD*%
D59*
%TO.C,FB1*%
X23314600Y24928200D03*
X23314600Y26678200D03*
%TD*%
D38*
%TO.C,C12*%
X38101700Y20687500D03*
X38101700Y21822500D03*
%TD*%
D60*
%TO.C,U8*%
X85560000Y34985000D03*
X85560000Y34035000D03*
X85560000Y33085000D03*
X83285000Y33085000D03*
X83285000Y34035000D03*
X83285000Y34985000D03*
%TD*%
D22*
%TO.C,R59*%
X53394700Y17157500D03*
X53394700Y18352500D03*
%TD*%
D38*
%TO.C,C13*%
X54219982Y36989210D03*
X54219982Y38124210D03*
%TD*%
D46*
%TO.C,C2*%
X95351700Y45005000D03*
X93801700Y45005000D03*
%TD*%
D32*
%TO.C,R11*%
X25351700Y44255000D03*
X23526700Y44255000D03*
%TD*%
D34*
%TO.C,C34*%
X19101700Y47617500D03*
X19101700Y45892500D03*
%TD*%
D61*
%TO.C,C44*%
X38789200Y44255000D03*
X41914200Y44255000D03*
%TD*%
D46*
%TO.C,C50*%
X17601700Y7679000D03*
X16051700Y7679000D03*
%TD*%
D61*
%TO.C,C42*%
X39789200Y40755000D03*
X42914200Y40755000D03*
%TD*%
D22*
%TO.C,R56*%
X53540600Y25889600D03*
X53540600Y27084600D03*
%TD*%
D43*
%TO.C,C54*%
X76851700Y26822500D03*
X76851700Y25687500D03*
%TD*%
D62*
%TO.C,D4*%
X58163400Y45728200D03*
X56413400Y45728200D03*
%TD*%
D53*
%TO.C,U14*%
X78045000Y21610000D03*
X78045000Y22880000D03*
X84545000Y22880000D03*
X84545000Y21610000D03*
%TD*%
D21*
%TO.C,R72*%
X78057500Y30145000D03*
X79252500Y30145000D03*
%TD*%
%TO.C,R2*%
X33113000Y17255000D03*
X34308000Y17255000D03*
%TD*%
D41*
%TO.C,RN4*%
X13815000Y18509730D03*
X14615000Y18509730D03*
X15415000Y18509730D03*
X16215000Y18509730D03*
X16215000Y16809730D03*
X15415000Y16809730D03*
X14615000Y16809730D03*
X13815000Y16809730D03*
%TD*%
D35*
%TO.C,R1*%
X34308000Y18505000D03*
X33113000Y18505000D03*
%TD*%
D43*
%TO.C,C55*%
X98601700Y33255000D03*
X98601700Y32120000D03*
%TD*%
D62*
%TO.C,D3*%
X58163400Y48318200D03*
X56413400Y48318200D03*
%TD*%
D21*
%TO.C,R70*%
X92254200Y33005000D03*
X93449200Y33005000D03*
%TD*%
D56*
%TO.C,R66*%
X30867530Y37266913D03*
X30867530Y38286913D03*
%TD*%
D28*
%TO.C,C19*%
X22950300Y34958600D03*
X24085300Y34958600D03*
%TD*%
%TO.C,C56*%
X82611332Y30755000D03*
X83746332Y30755000D03*
%TD*%
D63*
%TO.C,U9*%
X81314200Y34792500D03*
X81314200Y34292500D03*
X81314200Y33792500D03*
X81314200Y33292500D03*
X81314200Y32792500D03*
X81314200Y32292500D03*
D64*
X80601700Y31580000D03*
X80101700Y31580000D03*
X79601700Y31580000D03*
X79101700Y31580000D03*
X78601700Y31580000D03*
X78101700Y31580000D03*
D63*
X77389200Y32292500D03*
X77389200Y32792500D03*
X77389200Y33292500D03*
X77389200Y33792500D03*
X77389200Y34292500D03*
X77389200Y34792500D03*
D64*
X78101700Y35505000D03*
X78601700Y35505000D03*
X79101700Y35505000D03*
X79601700Y35505000D03*
X80101700Y35505000D03*
X80601700Y35505000D03*
D65*
X79351700Y33542500D03*
%TD*%
D38*
%TO.C,C28*%
X53540600Y28253000D03*
X53540600Y29388000D03*
%TD*%
D44*
%TO.C,C24*%
X9113685Y35333706D03*
X7388685Y35333706D03*
%TD*%
%TO.C,R69*%
X98714200Y30505000D03*
X96989200Y30505000D03*
%TD*%
D66*
%TO.C,U2*%
X81101700Y48255000D03*
X81101700Y47755000D03*
D67*
X81064200Y47255000D03*
D66*
X81101700Y46755000D03*
X81101700Y46255000D03*
X80326700Y46255000D03*
X80326700Y46755000D03*
D68*
X80301700Y47255000D03*
D66*
X80326700Y47755000D03*
X80326700Y48255000D03*
%TD*%
D69*
%TO.C,D5*%
X21351700Y47655000D03*
X21351700Y44355000D03*
%TD*%
D38*
%TO.C,C68*%
X47455000Y30417500D03*
X47455000Y31552500D03*
%TD*%
D23*
%TO.C,C60*%
X17612000Y6155000D03*
X19162000Y6155000D03*
%TD*%
D38*
%TO.C,C62*%
X43351700Y21437500D03*
X43351700Y22572500D03*
%TD*%
D43*
%TO.C,C67*%
X43660000Y27572500D03*
X43660000Y26437500D03*
%TD*%
D21*
%TO.C,R61*%
X28004638Y34709514D03*
X29199638Y34709514D03*
%TD*%
D70*
%TO.C,U3*%
X56832601Y23813770D03*
X56832601Y25083770D03*
X56832601Y26353770D03*
X56832601Y27623770D03*
X56832601Y28893770D03*
X56832601Y30163770D03*
X56832601Y31433770D03*
X56832601Y32703770D03*
X56832601Y33973770D03*
X56832601Y35243770D03*
X56832601Y36513770D03*
X56832601Y37783770D03*
X56832601Y39053770D03*
X56832601Y40323770D03*
D71*
X58597601Y41573770D03*
X59867601Y41573770D03*
X61137601Y41573770D03*
X62407601Y41573770D03*
X63677601Y41573770D03*
X64947601Y41573770D03*
X66217601Y41573770D03*
X67487601Y41573770D03*
X68757601Y41573770D03*
X70027601Y41573770D03*
X71297601Y41573770D03*
X72567601Y41573770D03*
D70*
X74332601Y40323770D03*
X74332601Y39053770D03*
X74332601Y37783770D03*
X74332601Y36513770D03*
X74332601Y35243770D03*
X74332601Y33973770D03*
X74332601Y32703770D03*
X74332601Y31433770D03*
X74332601Y30163770D03*
X74332601Y28893770D03*
X74332601Y27623770D03*
X74332601Y26353770D03*
X74332601Y25083770D03*
X74332601Y23813770D03*
D72*
X62722601Y30663770D03*
D73*
X62722601Y29913770D03*
D72*
X62722601Y29163770D03*
D73*
X62722601Y28413770D03*
D72*
X62722601Y27663770D03*
D73*
X63472601Y30663770D03*
X63472601Y29163770D03*
X63472601Y27663770D03*
D72*
X64222601Y30663770D03*
D73*
X64222601Y29913770D03*
D72*
X64222601Y29163770D03*
D73*
X64222601Y28413770D03*
D72*
X64222601Y27663770D03*
D73*
X64972601Y30663770D03*
X64972601Y29163770D03*
X64972601Y27663770D03*
D72*
X65722601Y30663770D03*
D73*
X65722601Y29913770D03*
D72*
X65722601Y29163770D03*
D73*
X65722601Y28413770D03*
D72*
X65722601Y27663770D03*
%TD*%
D33*
%TO.C,C25*%
X23351700Y28392500D03*
X23351700Y30117500D03*
%TD*%
D74*
%TO.C,U10*%
X52924348Y35826923D03*
X52274348Y35826923D03*
X51624348Y35826923D03*
X50974348Y35826923D03*
X50324348Y35826923D03*
X49674348Y35826923D03*
X49024348Y35826923D03*
X48374348Y35826923D03*
X48374348Y41551923D03*
X49024348Y41551923D03*
X49674348Y41551923D03*
X50324348Y41551923D03*
X50974348Y41551923D03*
X51624348Y41551923D03*
X52274348Y41551923D03*
X52924348Y41551923D03*
%TD*%
D75*
%TO.C,U7*%
X78710000Y24940000D03*
X78710000Y26210000D03*
X78710000Y27480000D03*
X78710000Y28750000D03*
X83660000Y28750000D03*
X83660000Y27480000D03*
X83660000Y26210000D03*
X83660000Y24940000D03*
%TD*%
D41*
%TO.C,RN7*%
X8351700Y46755000D03*
X7551700Y46755000D03*
X6751700Y46755000D03*
X5951700Y46755000D03*
X5951700Y48455000D03*
X6751700Y48455000D03*
X7551700Y48455000D03*
X8351700Y48455000D03*
%TD*%
D21*
%TO.C,R63*%
X28004638Y33711864D03*
X29199638Y33711864D03*
%TD*%
D40*
%TO.C,Q6*%
X3589000Y45238585D03*
X3589000Y44588585D03*
X3589000Y43938585D03*
X1689000Y43938585D03*
X1689000Y44588585D03*
X1689000Y45238585D03*
%TD*%
D41*
%TO.C,RN3*%
X9851700Y18505000D03*
X10651700Y18505000D03*
X11451700Y18505000D03*
X12251700Y18505000D03*
X12251700Y16805000D03*
X11451700Y16805000D03*
X10651700Y16805000D03*
X9851700Y16805000D03*
%TD*%
D28*
%TO.C,C57*%
X82601700Y31755000D03*
X83736700Y31755000D03*
%TD*%
%TO.C,C51*%
X42716700Y48755000D03*
X43851700Y48755000D03*
%TD*%
D76*
%TO.C,R67*%
X28206841Y38428582D03*
X28206841Y37408582D03*
%TD*%
D66*
%TO.C,U4*%
X81083674Y44976317D03*
X81083674Y44476317D03*
D67*
X81046174Y43976317D03*
D66*
X81083674Y43476317D03*
X81083674Y42976317D03*
X80308674Y42976317D03*
X80308674Y43476317D03*
D68*
X80283674Y43976317D03*
D66*
X80308674Y44476317D03*
X80308674Y44976317D03*
%TD*%
D43*
%TO.C,C30*%
X55211863Y24944533D03*
X55211863Y23809533D03*
%TD*%
D28*
%TO.C,C14*%
X52295500Y44505000D03*
X53430500Y44505000D03*
%TD*%
D35*
%TO.C,R9*%
X50565000Y46635000D03*
X49370000Y46635000D03*
%TD*%
D41*
%TO.C,RN9*%
X3839000Y46755000D03*
X3039000Y46755000D03*
X2239000Y46755000D03*
X1439000Y46755000D03*
X1439000Y48455000D03*
X2239000Y48455000D03*
X3039000Y48455000D03*
X3839000Y48455000D03*
%TD*%
D35*
%TO.C,R7*%
X50545000Y44555000D03*
X49350000Y44555000D03*
%TD*%
D77*
%TO.C,R15*%
X16101700Y45842500D03*
X16101700Y47667500D03*
%TD*%
D44*
%TO.C,C47*%
X39975500Y34005000D03*
X38250500Y34005000D03*
%TD*%
D26*
%TO.C,C26*%
X19966675Y30204677D03*
X21691675Y30204677D03*
%TD*%
D46*
%TO.C,C5*%
X34626700Y5755000D03*
X33076700Y5755000D03*
%TD*%
D43*
%TO.C,C64*%
X47575000Y27292500D03*
X47575000Y26157500D03*
%TD*%
M02*
