%TF.GenerationSoftware,KiCad,Pcbnew,8.0.2*%
%TF.CreationDate,2024-07-28T21:03:14+03:00*%
%TF.ProjectId,hiro_samurai,6869726f-5f73-4616-9d75-7261692e6b69,rev?*%
%TF.SameCoordinates,Original*%
%TF.FileFunction,Copper,L1,Top*%
%TF.FilePolarity,Positive*%
%FSLAX46Y46*%
G04 Gerber Fmt 4.6, Leading zero omitted, Abs format (unit mm)*
G04 Created by KiCad (PCBNEW 8.0.2) date 2024-07-28 21:03:14*
%MOMM*%
%LPD*%
G01*
G04 APERTURE LIST*
G04 Aperture macros list*
%AMRoundRect*
0 Rectangle with rounded corners*
0 $1 Rounding radius*
0 $2 $3 $4 $5 $6 $7 $8 $9 X,Y pos of 4 corners*
0 Add a 4 corners polygon primitive as box body*
4,1,4,$2,$3,$4,$5,$6,$7,$8,$9,$2,$3,0*
0 Add four circle primitives for the rounded corners*
1,1,$1+$1,$2,$3*
1,1,$1+$1,$4,$5*
1,1,$1+$1,$6,$7*
1,1,$1+$1,$8,$9*
0 Add four rect primitives between the rounded corners*
20,1,$1+$1,$2,$3,$4,$5,0*
20,1,$1+$1,$4,$5,$6,$7,0*
20,1,$1+$1,$6,$7,$8,$9,0*
20,1,$1+$1,$8,$9,$2,$3,0*%
%AMFreePoly0*
4,1,22,0.945671,0.830970,1.026777,0.776777,1.080970,0.695671,1.100000,0.600000,1.100000,-0.600000,1.080970,-0.695671,1.026777,-0.776777,0.945671,-0.830970,0.850000,-0.850000,-0.450000,-0.850000,-0.545671,-0.830970,-0.626777,-0.776777,-1.026777,-0.376777,-1.080970,-0.295671,-1.100000,-0.200000,-1.100000,0.600000,-1.080970,0.695671,-1.026777,0.776777,-0.945671,0.830970,-0.850000,0.850000,
0.850000,0.850000,0.945671,0.830970,0.945671,0.830970,$1*%
%AMFreePoly1*
4,1,22,0.945671,0.830970,1.026777,0.776777,1.080970,0.695671,1.100000,0.600000,1.100000,-0.600000,1.080970,-0.695671,1.026777,-0.776777,0.945671,-0.830970,0.850000,-0.850000,-0.850000,-0.850000,-0.945671,-0.830970,-1.026777,-0.776777,-1.080970,-0.695671,-1.100000,-0.600000,-1.100000,0.200000,-1.080970,0.295671,-1.026777,0.376777,-0.626777,0.776777,-0.545671,0.830970,-0.450000,0.850000,
0.850000,0.850000,0.945671,0.830970,0.945671,0.830970,$1*%
G04 Aperture macros list end*
%ADD10C,0.250000*%
%TA.AperFunction,NonConductor*%
%ADD11C,0.250000*%
%TD*%
%TA.AperFunction,ComponentPad*%
%ADD12RoundRect,0.250000X0.600000X-0.850000X0.600000X0.850000X-0.600000X0.850000X-0.600000X-0.850000X0*%
%TD*%
%TA.AperFunction,ComponentPad*%
%ADD13O,1.700000X2.200000*%
%TD*%
%TA.AperFunction,SMDPad,CuDef*%
%ADD14R,2.400000X0.740000*%
%TD*%
%TA.AperFunction,SMDPad,CuDef*%
%ADD15RoundRect,0.250000X-0.250000X-0.750000X0.250000X-0.750000X0.250000X0.750000X-0.250000X0.750000X0*%
%TD*%
%TA.AperFunction,SMDPad,CuDef*%
%ADD16R,0.850000X0.300000*%
%TD*%
%TA.AperFunction,ComponentPad*%
%ADD17C,1.100000*%
%TD*%
%TA.AperFunction,SMDPad,CuDef*%
%ADD18C,1.000000*%
%TD*%
%TA.AperFunction,SMDPad,CuDef*%
%ADD19RoundRect,0.237500X-0.287500X-0.237500X0.287500X-0.237500X0.287500X0.237500X-0.287500X0.237500X0*%
%TD*%
%TA.AperFunction,ComponentPad*%
%ADD20FreePoly0,180.000000*%
%TD*%
%TA.AperFunction,ComponentPad*%
%ADD21O,2.200000X1.700000*%
%TD*%
%TA.AperFunction,ComponentPad*%
%ADD22RoundRect,0.250000X-0.600000X0.850000X-0.600000X-0.850000X0.600000X-0.850000X0.600000X0.850000X0*%
%TD*%
%TA.AperFunction,ComponentPad*%
%ADD23FreePoly1,180.000000*%
%TD*%
%TA.AperFunction,ComponentPad*%
%ADD24R,3.800000X3.800000*%
%TD*%
%TA.AperFunction,ComponentPad*%
%ADD25C,3.800000*%
%TD*%
%TA.AperFunction,ComponentPad*%
%ADD26C,0.600000*%
%TD*%
%TA.AperFunction,ViaPad*%
%ADD27C,0.610000*%
%TD*%
%TA.AperFunction,ViaPad*%
%ADD28C,0.600000*%
%TD*%
%TA.AperFunction,ViaPad*%
%ADD29C,0.457200*%
%TD*%
%TA.AperFunction,ViaPad*%
%ADD30C,0.406400*%
%TD*%
%TA.AperFunction,ViaPad*%
%ADD31C,0.250000*%
%TD*%
%TA.AperFunction,Conductor*%
%ADD32C,0.152400*%
%TD*%
%TA.AperFunction,Conductor*%
%ADD33C,0.508000*%
%TD*%
%TA.AperFunction,Conductor*%
%ADD34C,0.203200*%
%TD*%
%TA.AperFunction,Conductor*%
%ADD35C,0.254000*%
%TD*%
%TA.AperFunction,Conductor*%
%ADD36C,0.304800*%
%TD*%
%TA.AperFunction,Conductor*%
%ADD37C,0.762000*%
%TD*%
%TA.AperFunction,Conductor*%
%ADD38C,0.127000*%
%TD*%
%TA.AperFunction,Conductor*%
%ADD39C,0.101600*%
%TD*%
%TA.AperFunction,Conductor*%
%ADD40C,0.200000*%
%TD*%
%TA.AperFunction,Conductor*%
%ADD41C,0.150000*%
%TD*%
G04 APERTURE END LIST*
D10*
D11*
X2739619Y28677569D02*
X1739619Y28677569D01*
X1739619Y28677569D02*
X1739619Y29058521D01*
X1739619Y29058521D02*
X1787238Y29153759D01*
X1787238Y29153759D02*
X1834857Y29201378D01*
X1834857Y29201378D02*
X1930095Y29248997D01*
X1930095Y29248997D02*
X2072952Y29248997D01*
X2072952Y29248997D02*
X2168190Y29201378D01*
X2168190Y29201378D02*
X2215809Y29153759D01*
X2215809Y29153759D02*
X2263428Y29058521D01*
X2263428Y29058521D02*
X2263428Y28677569D01*
X2692000Y29629950D02*
X2739619Y29725188D01*
X2739619Y29725188D02*
X2739619Y29915664D01*
X2739619Y29915664D02*
X2692000Y30010902D01*
X2692000Y30010902D02*
X2596761Y30058521D01*
X2596761Y30058521D02*
X2549142Y30058521D01*
X2549142Y30058521D02*
X2453904Y30010902D01*
X2453904Y30010902D02*
X2406285Y29915664D01*
X2406285Y29915664D02*
X2406285Y29772807D01*
X2406285Y29772807D02*
X2358666Y29677569D01*
X2358666Y29677569D02*
X2263428Y29629950D01*
X2263428Y29629950D02*
X2215809Y29629950D01*
X2215809Y29629950D02*
X2120571Y29677569D01*
X2120571Y29677569D02*
X2072952Y29772807D01*
X2072952Y29772807D02*
X2072952Y29915664D01*
X2072952Y29915664D02*
X2120571Y30010902D01*
X2739619Y31772807D02*
X2739619Y31201379D01*
X2739619Y31487093D02*
X1739619Y31487093D01*
X1739619Y31487093D02*
X1882476Y31391855D01*
X1882476Y31391855D02*
X1977714Y31296617D01*
X1977714Y31296617D02*
X2025333Y31201379D01*
X2739619Y32725188D02*
X2739619Y32153760D01*
X2739619Y32439474D02*
X1739619Y32439474D01*
X1739619Y32439474D02*
X1882476Y32344236D01*
X1882476Y32344236D02*
X1977714Y32248998D01*
X1977714Y32248998D02*
X2025333Y32153760D01*
X2739619Y33677569D02*
X2739619Y33106141D01*
X2739619Y33391855D02*
X1739619Y33391855D01*
X1739619Y33391855D02*
X1882476Y33296617D01*
X1882476Y33296617D02*
X1977714Y33201379D01*
X1977714Y33201379D02*
X2025333Y33106141D01*
X2644380Y34106141D02*
X2692000Y34153760D01*
X2692000Y34153760D02*
X2739619Y34106141D01*
X2739619Y34106141D02*
X2692000Y34058522D01*
X2692000Y34058522D02*
X2644380Y34106141D01*
X2644380Y34106141D02*
X2739619Y34106141D01*
X2120571Y34106141D02*
X2168190Y34153760D01*
X2168190Y34153760D02*
X2215809Y34106141D01*
X2215809Y34106141D02*
X2168190Y34058522D01*
X2168190Y34058522D02*
X2120571Y34106141D01*
X2120571Y34106141D02*
X2215809Y34106141D01*
X1834857Y34534712D02*
X1787238Y34582331D01*
X1787238Y34582331D02*
X1739619Y34677569D01*
X1739619Y34677569D02*
X1739619Y34915664D01*
X1739619Y34915664D02*
X1787238Y35010902D01*
X1787238Y35010902D02*
X1834857Y35058521D01*
X1834857Y35058521D02*
X1930095Y35106140D01*
X1930095Y35106140D02*
X2025333Y35106140D01*
X2025333Y35106140D02*
X2168190Y35058521D01*
X2168190Y35058521D02*
X2739619Y34487093D01*
X2739619Y34487093D02*
X2739619Y35106140D01*
D12*
%TO.P,J14,1,Pin_1*%
%TO.N,GND_MOTOR*%
X88450242Y23727945D03*
D13*
%TO.P,J14,2,Pin_2*%
%TO.N,OPTO2*%
X90950242Y23727945D03*
%TO.P,J14,3,Pin_3*%
%TO.N,Net-(J14-Pin_3)*%
X93450242Y23727945D03*
%TO.P,J14,4,Pin_4*%
%TO.N,V_MOTOR*%
X95950242Y23727945D03*
%TD*%
D14*
%TO.P,J16,1,Pin_1*%
%TO.N,+3V3*%
X94313400Y38540000D03*
%TO.P,J16,2,Pin_2*%
%TO.N,ESP_EN*%
X98213400Y38540000D03*
%TO.P,J16,3,Pin_3*%
%TO.N,ESP_JTAG_TCK*%
X94313400Y37270000D03*
%TO.P,J16,4,Pin_4*%
%TO.N,ESP_JTAG_TMS*%
X98213400Y37270000D03*
%TO.P,J16,5,Pin_5*%
%TO.N,ESP_JTAG_TDO*%
X94313400Y36000000D03*
%TO.P,J16,6,Pin_6*%
%TO.N,ESP_JTAG_TDI*%
X98213400Y36000000D03*
%TO.P,J16,7,Pin_7*%
%TO.N,STM_NRESET*%
X94313400Y34730000D03*
%TO.P,J16,8,Pin_8*%
%TO.N,STM_SWDCLK*%
X98213400Y34730000D03*
%TO.P,J16,9,Pin_9*%
%TO.N,STM_SWDIO*%
X94313400Y33460000D03*
%TO.P,J16,10,Pin_10*%
%TO.N,GND*%
X98213400Y33460000D03*
%TD*%
D15*
%TO.P,J7,1,Pin_1*%
%TO.N,PWM2_OUT*%
X20876200Y29116600D03*
%TD*%
D16*
%TO.P,J8,A1,GND*%
%TO.N,GND*%
X88766700Y30255000D03*
%TO.P,J8,A2*%
%TO.N,N/C*%
X88766700Y30755000D03*
%TO.P,J8,A3*%
X88766700Y31255000D03*
%TO.P,J8,A4,VBUS*%
%TO.N,VUSB*%
X88766700Y31755000D03*
%TO.P,J8,A5,CC1*%
%TO.N,Net-(J8-CC1)*%
X88766700Y32255000D03*
%TO.P,J8,A6,D+*%
%TO.N,USB_CONN_D+*%
X88766700Y32755000D03*
%TO.P,J8,A7,D-*%
%TO.N,USB_CONN_D-*%
X88766700Y33255000D03*
%TO.P,J8,A8,SBU1*%
%TO.N,unconnected-(J8-SBU1-PadA8)*%
X88766700Y33755000D03*
%TO.P,J8,A9,VBUS*%
%TO.N,VUSB*%
X88766700Y34255000D03*
%TO.P,J8,A10*%
%TO.N,N/C*%
X88766700Y34755000D03*
%TO.P,J8,A11*%
X88766700Y35255000D03*
%TO.P,J8,A12,GND*%
%TO.N,GND*%
X88766700Y35755000D03*
%TO.P,J8,B1,GND*%
X90436700Y35755000D03*
%TO.P,J8,B2*%
%TO.N,N/C*%
X90436700Y35255000D03*
%TO.P,J8,B3*%
X90436700Y34755000D03*
%TO.P,J8,B4,VBUS*%
%TO.N,VUSB*%
X90436700Y34255000D03*
%TO.P,J8,B5,CC2*%
%TO.N,Net-(J8-CC2)*%
X90436700Y33755000D03*
%TO.P,J8,B6,D+*%
%TO.N,USB_CONN_D+*%
X90436700Y33255000D03*
%TO.P,J8,B7,D-*%
%TO.N,USB_CONN_D-*%
X90436700Y32755000D03*
%TO.P,J8,B8,SBU2*%
%TO.N,unconnected-(J8-SBU2-PadB8)*%
X90436700Y32255000D03*
%TO.P,J8,B9,VBUS*%
%TO.N,VUSB*%
X90436700Y31755000D03*
%TO.P,J8,B10*%
%TO.N,N/C*%
X90436700Y31255000D03*
%TO.P,J8,B11*%
X90436700Y30755000D03*
%TO.P,J8,B12,GND*%
%TO.N,GND*%
X90436700Y30255000D03*
D17*
%TO.P,J8,S1,SHIELD*%
X87451700Y30605000D03*
X91751700Y30605000D03*
X87451700Y35405000D03*
X91751700Y35405000D03*
%TD*%
D18*
%TO.P,TP2,1,1*%
%TO.N,STM_RTS*%
X83411000Y12759000D03*
%TD*%
D19*
%TO.P,D2,1,K*%
%TO.N,Net-(D2-K)*%
X89726700Y26755000D03*
%TO.P,D2,2,A*%
%TO.N,+3V3*%
X91476700Y26755000D03*
%TD*%
%TO.P,D1,1,K*%
%TO.N,Net-(D1-K)*%
X89726700Y38755000D03*
%TO.P,D1,2,A*%
%TO.N,VBAT*%
X91476700Y38755000D03*
%TD*%
D20*
%TO.P,J3,1,Pin_1*%
%TO.N,CAN_H*%
X94763507Y27552931D03*
D21*
%TO.P,J3,2,Pin_2*%
%TO.N,CAN_L*%
X94763507Y30052931D03*
%TD*%
D22*
%TO.P,J2,1,Pin_1*%
%TO.N,+3V3*%
X96245000Y41495000D03*
D13*
%TO.P,J2,2,Pin_2*%
%TO.N,GND*%
X93745000Y41495000D03*
%TO.P,J2,3,Pin_3*%
%TO.N,SIG_RUN*%
X91245000Y41495000D03*
%TO.P,J2,4,Pin_4*%
%TO.N,SIG_KILL*%
X88745000Y41495000D03*
%TD*%
D18*
%TO.P,TP1,1,1*%
%TO.N,STM_DTR*%
X78331000Y11235000D03*
%TD*%
D15*
%TO.P,J6,1,Pin_1*%
%TO.N,PWM1_OUT*%
X22298600Y29116600D03*
%TD*%
D23*
%TO.P,J9,1,Pin_1*%
%TO.N,VBAT*%
X32601700Y47255000D03*
D21*
%TO.P,J9,2,Pin_2*%
%TO.N,GND*%
X32601700Y44755000D03*
%TD*%
D22*
%TO.P,J4,1,Pin_1*%
%TO.N,SEN1*%
X2077000Y2599000D03*
D13*
%TO.P,J4,2,Pin_2*%
%TO.N,SEN2*%
X4577000Y2599000D03*
%TO.P,J4,3,Pin_3*%
%TO.N,SEN3*%
X7077000Y2599000D03*
%TO.P,J4,4,Pin_4*%
%TO.N,SEN4*%
X9577000Y2599000D03*
%TO.P,J4,5,Pin_5*%
%TO.N,SEN5*%
X12077000Y2599000D03*
%TO.P,J4,6,Pin_6*%
%TO.N,SEN6*%
X14577000Y2599000D03*
%TD*%
D12*
%TO.P,J5,1,Pin_1*%
%TO.N,SEN7*%
X14537000Y62935000D03*
D13*
%TO.P,J5,2,Pin_2*%
%TO.N,SEN8*%
X12037000Y62935000D03*
%TO.P,J5,3,Pin_3*%
%TO.N,SEN9*%
X9537000Y62935000D03*
%TO.P,J5,4,Pin_4*%
%TO.N,SEN10*%
X7037000Y62935000D03*
%TO.P,J5,5,Pin_5*%
%TO.N,SEN11*%
X4537000Y62935000D03*
%TO.P,J5,6,Pin_6*%
%TO.N,SEN12*%
X2037000Y62935000D03*
%TD*%
D22*
%TO.P,J10,1,Pin_1*%
%TO.N,+3V3*%
X19095000Y2599000D03*
D13*
%TO.P,J10,2,Pin_2*%
%TO.N,COL1*%
X21595000Y2599000D03*
%TO.P,J10,3,Pin_3*%
%TO.N,COL2*%
X24095000Y2599000D03*
%TO.P,J10,4,Pin_4*%
%TO.N,COL3*%
X26595000Y2599000D03*
%TO.P,J10,5,Pin_5*%
%TO.N,COL4*%
X29095000Y2599000D03*
%TO.P,J10,6,Pin_6*%
%TO.N,GND*%
X31595000Y2599000D03*
%TD*%
D22*
%TO.P,J13,1,Pin_1*%
%TO.N,+3V3*%
X36191000Y2599000D03*
D13*
%TO.P,J13,2,Pin_2*%
%TO.N,LIFT1*%
X38691000Y2599000D03*
%TO.P,J13,3,Pin_3*%
%TO.N,LIFT2*%
X41191000Y2599000D03*
%TO.P,J13,4,Pin_4*%
%TO.N,LIFT3*%
X43691000Y2599000D03*
%TO.P,J13,5,Pin_5*%
%TO.N,LIFT4*%
X46191000Y2599000D03*
%TO.P,J13,6,Pin_6*%
%TO.N,GND*%
X48691000Y2599000D03*
%TD*%
D24*
%TO.P,J1,1,Pin_1*%
%TO.N,GND*%
X19991000Y62035000D03*
D25*
%TO.P,J1,2,Pin_2*%
%TO.N,V_IN*%
X24991000Y62035000D03*
%TD*%
D12*
%TO.P,J12,1,Pin_1*%
%TO.N,+3V3*%
X47601700Y62935000D03*
D13*
%TO.P,J12,2,Pin_2*%
%TO.N,Net-(J12-Pin_2)*%
X45101700Y62935000D03*
%TO.P,J12,3,Pin_3*%
%TO.N,Net-(J12-Pin_3)*%
X42601700Y62935000D03*
%TO.P,J12,4,Pin_4*%
%TO.N,Net-(J12-Pin_4)*%
X40101700Y62935000D03*
%TO.P,J12,5,Pin_5*%
%TO.N,PMW_CS1*%
X37601700Y62935000D03*
%TO.P,J12,6,Pin_6*%
%TO.N,PMW_CS2*%
X35101700Y62935000D03*
%TO.P,J12,7,Pin_7*%
%TO.N,PMW_RESET*%
X32601700Y62935000D03*
%TO.P,J12,8,Pin_8*%
%TO.N,GND*%
X30101700Y62935000D03*
%TD*%
D26*
%TO.P,U3,41,GND*%
%TO.N,GND*%
X62722601Y29913770D03*
X62722601Y28413770D03*
X63472601Y30663770D03*
X63472601Y29163770D03*
X63472601Y27663770D03*
X64222601Y29913770D03*
X64222601Y28413770D03*
X64972601Y30663770D03*
X64972601Y29163770D03*
X64972601Y27663770D03*
X65722601Y29913770D03*
X65722601Y28413770D03*
%TD*%
D27*
%TO.N,GND*%
X47565000Y26155000D03*
D28*
X7610599Y19363000D03*
D27*
X33076700Y5755000D03*
X46682600Y12505000D03*
D29*
X13895000Y18365000D03*
D27*
X56995000Y41715000D03*
X76934000Y56447000D03*
X28206841Y38428582D03*
X68171000Y48827000D03*
X90624600Y56497800D03*
X49375000Y17331000D03*
X44875000Y46795000D03*
D30*
X92465000Y34895000D03*
D27*
X20419000Y38667000D03*
X22097351Y35462673D03*
X34033400Y9203000D03*
X61525000Y24450000D03*
X55175000Y23965000D03*
D29*
X10015000Y20005000D03*
D27*
X35151000Y45271000D03*
X80363000Y21903000D03*
X56017100Y53805400D03*
X43425375Y38394189D03*
X24015000Y35055000D03*
X1115000Y32977400D03*
X8936115Y9001885D03*
X65034100Y53805400D03*
X53350635Y44425135D03*
X43351700Y22572500D03*
X31678200Y51875000D03*
X91900000Y20425000D03*
D29*
X63115000Y47605000D03*
D27*
X70711000Y48319000D03*
X40035000Y35685000D03*
D29*
X14030865Y20029845D03*
D31*
X50125000Y32916800D03*
D27*
X97635000Y20450000D03*
X64615000Y34603000D03*
D29*
X98601690Y33255005D03*
D27*
X34643000Y26983000D03*
X87795000Y38725000D03*
X6703000Y40699000D03*
X78705000Y26165000D03*
D30*
X89615000Y30235000D03*
D29*
X83815000Y30755000D03*
D27*
X50899000Y9203000D03*
X44335000Y59755000D03*
D31*
X49465000Y31305000D03*
D27*
X98651000Y50859000D03*
X61567000Y36635000D03*
X41975000Y44275000D03*
X23149600Y55431000D03*
X97650000Y16823000D03*
X36535000Y34185000D03*
X29825000Y20875000D03*
X18895000Y43239000D03*
D29*
X15415000Y18295000D03*
D27*
X82903000Y37143000D03*
D31*
X52575000Y30375000D03*
D30*
X81665000Y47245000D03*
D27*
X50391000Y19871000D03*
X12951400Y9203000D03*
D31*
X1623000Y44001000D03*
D27*
X70203000Y24443000D03*
X85951000Y56447000D03*
X48865000Y27117500D03*
D30*
X6105133Y18991051D03*
D29*
X7131153Y20801675D03*
D27*
X18387000Y59495000D03*
D29*
X41585000Y23115000D03*
X38275000Y47875000D03*
D27*
X54963000Y47303000D03*
D30*
X11785000Y46625000D03*
D27*
X41247000Y51875000D03*
D30*
X12001704Y21304992D03*
D27*
X49105000Y59685000D03*
D30*
X92555000Y45525000D03*
D27*
X33315000Y33735000D03*
X21943000Y40191000D03*
X91925000Y16875000D03*
X1115000Y29319800D03*
X83068100Y53805400D03*
D30*
X98286945Y44890345D03*
D27*
X1115000Y25662200D03*
X63408500Y56447000D03*
X67917000Y56447000D03*
X87765000Y26865000D03*
X3147000Y59495000D03*
X29858600Y12500000D03*
X33627000Y59495000D03*
X16051700Y7679006D03*
D31*
X18014200Y30592500D03*
D27*
X29817000Y9203000D03*
X36825000Y42223000D03*
X26893800Y51875000D03*
X16885000Y63835000D03*
X6195000Y35315000D03*
D29*
X81695000Y43976317D03*
X81248900Y30315000D03*
D27*
X81887000Y17331000D03*
X17849077Y39175000D03*
X22109400Y51875000D03*
X38045000Y33935000D03*
D31*
X52735000Y31015000D03*
D27*
X69542600Y53805400D03*
X9243000Y42223000D03*
X1115000Y36635000D03*
X28293000Y62949400D03*
X34075000Y12500000D03*
D28*
X78351700Y18931200D03*
D27*
X89507000Y13775000D03*
X43585000Y17305000D03*
X13377022Y45895704D03*
X74345000Y23795000D03*
X46682600Y9203000D03*
X60525600Y53805400D03*
D29*
X22845000Y22535000D03*
D27*
X77315000Y14283000D03*
D29*
X38235000Y21875000D03*
D27*
X37915900Y6663000D03*
X8385490Y59583415D03*
X46825000Y39375000D03*
X36462600Y51875000D03*
X74051100Y53805400D03*
X33601700Y40005000D03*
D30*
X53405000Y18375000D03*
D27*
X54455000Y42223000D03*
D30*
X8735000Y33587000D03*
D27*
X25415000Y42685000D03*
X17325000Y51875000D03*
X54910500Y32145000D03*
X87576600Y53805400D03*
X54930499Y30755001D03*
X54391500Y56447000D03*
X53953615Y29726170D03*
X81887000Y9711000D03*
X27295000Y48455000D03*
X19149000Y9203000D03*
D29*
X39605000Y20195000D03*
D27*
X9890741Y24455741D03*
X19911000Y20379000D03*
X58900000Y56447000D03*
D30*
X55195000Y18395000D03*
D27*
X48305000Y41865000D03*
D31*
X6804600Y45575800D03*
D27*
X43660002Y26437500D03*
D31*
X2131000Y46795000D03*
D27*
X19601700Y25005000D03*
D29*
X21035000Y25065000D03*
D30*
X32215000Y33885000D03*
D27*
X24483000Y30359800D03*
X16065000Y47905000D03*
X87275000Y20600000D03*
X66475000Y24475000D03*
X39215000Y24443000D03*
X36465000Y35845000D03*
D29*
X54219982Y37857366D03*
D27*
X32395000Y37775000D03*
X74775000Y48827000D03*
X17963800Y55431000D03*
X50899000Y12505000D03*
D29*
X83736700Y31755000D03*
D27*
X81887000Y40191000D03*
D28*
X76522994Y30384232D03*
D27*
X34643000Y29777000D03*
X23162200Y58174200D03*
X86735024Y37545000D03*
X72425500Y56447000D03*
X42655000Y40895000D03*
X19065000Y45845000D03*
X82395000Y19871000D03*
X78559600Y53805400D03*
X49883000Y56447000D03*
D29*
X16278800Y21634967D03*
X47455000Y31681600D03*
X85560000Y34035000D03*
D27*
X16101000Y11489000D03*
X61059000Y27999000D03*
X27795000Y43475000D03*
X28335400Y55431000D03*
X38249800Y9203000D03*
D31*
X6250000Y43100000D03*
D27*
X61567000Y46795000D03*
D29*
X24035000Y19915000D03*
D31*
X81314200Y34292500D03*
D27*
X81442500Y56447000D03*
X6703000Y32571000D03*
X11351000Y55431000D03*
X33521200Y55431000D03*
X57155000Y23798770D03*
X7378478Y27070247D03*
D29*
X22635000Y18685000D03*
D27*
X38575000Y36315000D03*
D31*
X4417000Y46795000D03*
D27*
X53851700Y22917500D03*
D28*
X78044996Y22880000D03*
D29*
X43885000Y48845000D03*
D27*
X28004630Y36000201D03*
D29*
X9880300Y18505000D03*
X76175000Y34452502D03*
D27*
X1115000Y22004600D03*
X26007000Y24443000D03*
X1115000Y18347000D03*
D30*
X14635000Y38255000D03*
D27*
X43279000Y32063000D03*
X47851000Y43747000D03*
X28547000Y59495000D03*
D30*
X10925000Y43935000D03*
D31*
X8601304Y45379687D03*
D27*
X19131908Y6048660D03*
D29*
X85710192Y41975000D03*
D27*
X38707000Y55431000D03*
D31*
%TO.N,~{STM_NRST}*%
X77515000Y48725000D03*
X77572785Y50943000D03*
X18066283Y28088000D03*
X45848772Y35382523D03*
X18675000Y27215000D03*
X19135000Y28005000D03*
X21325000Y33385000D03*
X46835000Y45271000D03*
X18996212Y31096405D03*
X53235000Y51125000D03*
%TO.N,Net-(C22-Pad1)*%
X22612983Y32342600D03*
X25232700Y32342600D03*
D29*
%TO.N,+3.3VA*%
X19476764Y30071126D03*
D30*
X24444950Y28267310D03*
D31*
%TO.N,ESP_EN*%
X96875000Y38513859D03*
X86849017Y38674215D03*
X80915000Y38835000D03*
%TO.N,VBAT*%
X54605000Y50495000D03*
D30*
X85315000Y40215000D03*
X44200000Y47750000D03*
D28*
X34084200Y35776200D03*
X22298588Y48865012D03*
D30*
X85100592Y42959408D03*
D28*
X26953338Y35060195D03*
D31*
X51565000Y50485000D03*
D29*
X91176245Y39760386D03*
D30*
X41700368Y41775000D03*
X85571600Y45325000D03*
X85055999Y47210186D03*
D28*
X28665213Y46365567D03*
%TO.N,+5V*%
X54885000Y21395000D03*
X70711000Y22919000D03*
D31*
%TO.N,CP2105_VIO*%
X81605000Y29165000D03*
X81785000Y30845000D03*
%TO.N,VUSB*%
X87119400Y31707400D03*
D29*
%TO.N,Net-(D1-K)*%
X89706544Y38711048D03*
%TO.N,Net-(D2-K)*%
X89701389Y26710079D03*
D27*
%TO.N,SEN2*%
X7575175Y17528543D03*
X9082937Y14759334D03*
%TO.N,SEN4*%
X11536123Y17407814D03*
X11783000Y14791000D03*
%TO.N,COL2*%
X7968000Y30798000D03*
D31*
%TO.N,COL1*%
X20325000Y12125000D03*
D27*
X7119530Y30312320D03*
D31*
X20475000Y10075000D03*
D27*
%TO.N,SEN6*%
X14831000Y14791000D03*
X15339000Y17331000D03*
D31*
X16200601Y20694137D03*
X17347725Y19557948D03*
D27*
%TO.N,SEN1*%
X5926482Y17143600D03*
X8147931Y14730800D03*
%TO.N,SEN5*%
X13702377Y17305833D03*
X13815000Y14791000D03*
D31*
%TO.N,SEN3*%
X9775000Y17585000D03*
D30*
X10867100Y20650594D03*
D27*
X9945970Y14800242D03*
D31*
%TO.N,USB_CONN_D+*%
X87729000Y32825000D03*
%TO.N,Net-(J8-CC2)*%
X92253077Y34033952D03*
%TO.N,USB_CONN_D-*%
X89557800Y33637800D03*
X89659400Y32418600D03*
X87170200Y33105000D03*
%TO.N,Net-(J8-CC1)*%
X87983000Y32164600D03*
D29*
%TO.N,+1V8*%
X23115000Y17385000D03*
D30*
X39881000Y17681000D03*
X48102855Y25526200D03*
D31*
X51895000Y31325000D03*
X52425000Y29805000D03*
D29*
X43660000Y27645000D03*
X34945000Y16305000D03*
D30*
X44575000Y20125000D03*
D31*
X49695000Y28915000D03*
D30*
X38025000Y18895000D03*
D31*
X45925000Y28295000D03*
%TO.N,Net-(J12-Pin_3)*%
X49016537Y51875000D03*
X49016537Y50097018D03*
%TO.N,ADC_V_IN*%
X16101000Y44610600D03*
X14044400Y32455000D03*
D30*
%TO.N,ESP_U1TXD*%
X58192480Y35244096D03*
D29*
X59594366Y36018000D03*
X38075000Y16375000D03*
D28*
X48359000Y19067000D03*
D29*
X36075000Y18505000D03*
X58825000Y29625000D03*
%TO.N,ESP_U1RXD*%
X60023280Y36585312D03*
D30*
X35415000Y16995000D03*
X46106000Y16094000D03*
D31*
X37575000Y14875000D03*
D29*
X56995000Y36475000D03*
D30*
X60277249Y30906931D03*
D31*
%TO.N,SEN9*%
X8912800Y45861601D03*
X6957000Y44966200D03*
%TO.N,SEN10*%
X7494513Y49877229D03*
X9901400Y49737179D03*
%TO.N,SEN11_3V3*%
X8575000Y28118200D03*
X11919618Y28530382D03*
%TO.N,SEN4_3V3*%
X15114703Y28875000D03*
X15114703Y25413715D03*
D29*
%TO.N,Net-(R53-Pad1)*%
X19425592Y18615592D03*
X36825000Y14791000D03*
X55245000Y17195000D03*
X43444073Y15545927D03*
D31*
%TO.N,STM_SWDCLK*%
X81895994Y47743586D03*
D29*
X98115000Y34745000D03*
D30*
X98085000Y39365000D03*
D31*
%TO.N,STM_SWDIO*%
X86105000Y46795000D03*
X86105000Y43114000D03*
X86435000Y40015002D03*
X86389481Y36016752D03*
X86105000Y45403200D03*
D30*
%TO.N,Net-(R59-Pad1)*%
X68175000Y43745000D03*
X52365000Y17385000D03*
X66545000Y26625000D03*
X67205000Y39335000D03*
D31*
%TO.N,CAN_H*%
X83659974Y26210000D03*
%TO.N,CAN_L*%
X83660018Y27479991D03*
D30*
%TO.N,PWM1_OUT*%
X19725000Y29326477D03*
%TO.N,LIFT3*%
X32825000Y24875000D03*
D31*
%TO.N,COL4*%
X16355000Y25459000D03*
D30*
%TO.N,LIFT2*%
X19694579Y33408921D03*
X26563766Y34314151D03*
X27023000Y30471600D03*
D31*
%TO.N,LIFT4*%
X38325000Y10375000D03*
D30*
X15634735Y25721599D03*
D31*
%TO.N,STM_USART1_TX*%
X77018704Y31481201D03*
X12852400Y30812248D03*
%TO.N,BHI_SWDIO*%
X36325000Y23375000D03*
X53015000Y31475000D03*
%TO.N,STM_ESP_INT*%
X12087800Y30640600D03*
X67935000Y37015000D03*
%TO.N,COL3*%
X11843354Y30095378D03*
%TO.N,STM_USART1_RX*%
X76487881Y31174600D03*
X13575000Y30834540D03*
%TO.N,STM_USART2_TX*%
X17785000Y28525000D03*
X18204998Y27094998D03*
X18215000Y24495000D03*
D30*
X33085000Y17235000D03*
D31*
%TO.N,LIFT1*%
X16545300Y30188208D03*
D30*
%TO.N,PWM2_OUT*%
X19455000Y28725000D03*
D31*
%TO.N,HSE_OSC_OUT*%
X23805000Y32695000D03*
X20235000Y32515000D03*
%TO.N,CAN_SILENT*%
X81355000Y24940000D03*
X71597442Y39935400D03*
%TO.N,FDCAN1_RX*%
X70945933Y39150911D03*
X79389800Y28871000D03*
%TO.N,ESP_JTAG_TCK_PROT*%
X79499400Y44966200D03*
X72743000Y34095000D03*
X76585021Y39761779D03*
X75447793Y38431271D03*
%TO.N,ESP_JTAG_TDO_PROT*%
X77565000Y39625000D03*
X73181467Y40092370D03*
X73251000Y33079000D03*
X71215002Y36735000D03*
X79466717Y44476317D03*
D29*
X75614947Y37874311D03*
D31*
%TO.N,FDCAN1_TX*%
X71266315Y39539979D03*
X80261400Y25255800D03*
%TO.N,ESP_JTAG_TDI_PROT*%
X79123468Y43713159D03*
D29*
X77272895Y38742708D03*
%TO.N,BHI_SWDCLK*%
X35903800Y24007200D03*
X46745400Y29508212D03*
D31*
%TO.N,BHI_RSTQ*%
X49055000Y29855000D03*
X47389938Y33455000D03*
X37655000Y30385000D03*
%TO.N,ESP_JTAG_TMS_PROT*%
X69065000Y43035000D03*
X72285800Y34044200D03*
%TO.N,BHI_CS*%
X54445000Y32713378D03*
X50295000Y35335000D03*
X49565000Y30445000D03*
X54822183Y34944098D03*
D28*
%TO.N,Net-(J14-Pin_3)*%
X86075000Y21625000D03*
D31*
%TO.N,ESP_UART_DEBUG_TX*%
X76335000Y32035000D03*
X69895000Y40015000D03*
X70695000Y43275000D03*
X78605000Y35805000D03*
X76035000Y43145000D03*
X70475000Y38745000D03*
D28*
%TO.N,Net-(R5-Pad2)*%
X67254181Y30425419D03*
X76684800Y21903000D03*
X68871114Y43645409D03*
X82021668Y45673236D03*
D29*
X83207468Y45525000D03*
D31*
X68258857Y40276671D03*
%TO.N,Net-(J12-Pin_4)*%
X48483646Y51754896D03*
X48511701Y50015481D03*
D29*
%TO.N,ESP_UART_DEBUG_RX*%
X74365000Y29113800D03*
D31*
X75815000Y35315000D03*
X73239836Y36609836D03*
X77345000Y37745000D03*
D30*
X73065000Y29175000D03*
D31*
X79075000Y36345000D03*
%TO.N,ESP_JTAG_TDI*%
X82645000Y42755000D03*
%TO.N,ESP_JTAG_TMS*%
X82141000Y44509000D03*
%TO.N,ESP_JTAG_TDO*%
X81807637Y43223225D03*
D29*
X92555000Y36635000D03*
X86310511Y38970200D03*
%TO.N,ESP_JTAG_TCK*%
X94609899Y37440162D03*
D31*
%TO.N,STM_RTS*%
X78615000Y31585000D03*
D30*
%TO.N,STM_DTR*%
X71727000Y27491000D03*
D31*
X72175000Y32215000D03*
X75825164Y32575164D03*
%TO.N,ESP_DTR*%
X80065000Y35715000D03*
X79065000Y37435000D03*
D30*
%TO.N,Net-(Q1B-C2)*%
X8501161Y19210713D03*
X7048362Y21598362D03*
X10259000Y22125000D03*
D31*
%TO.N,Net-(Q3B-C2)*%
X12562976Y42373558D03*
X13680934Y21196961D03*
D30*
X16033434Y18946303D03*
D29*
%TO.N,Net-(R13-Pad2)*%
X85812728Y35825606D03*
D28*
X78351700Y17661200D03*
D31*
%TO.N,Net-(Q4B-C2)*%
X13575700Y43619255D03*
X10953828Y41715000D03*
X10815800Y46719427D03*
%TO.N,Net-(Q6B-C2)*%
X1439000Y46755000D03*
X353000Y46033000D03*
D30*
%TO.N,Net-(Q1A-C1)*%
X11275000Y22919000D03*
X6883670Y19083969D03*
X7980129Y19963220D03*
D31*
%TO.N,STM_SWDCLK_PROT*%
X79558194Y47690171D03*
X10664182Y36195854D03*
%TO.N,STM_SWDIO_PROT*%
X79015000Y48005000D03*
X10005000Y36076200D03*
%TO.N,STM_NRESET*%
X81883923Y48262631D03*
X99039376Y39675624D03*
D29*
X95995936Y34685166D03*
D31*
%TO.N,Net-(Q2A-C1)*%
X14779083Y22651990D03*
X12106411Y20047973D03*
X12267258Y19500412D03*
X13087722Y21655995D03*
X13018612Y20764477D03*
X10643732Y17750143D03*
%TO.N,Net-(Q3A-C1)*%
X16775000Y38525000D03*
X17045000Y34575000D03*
D30*
X17181240Y26531715D03*
X16060931Y29865181D03*
D31*
%TO.N,Net-(Q6A-C1)*%
X833600Y45271000D03*
X2639000Y43239000D03*
X3039000Y46755000D03*
%TO.N,SIG_KILL*%
X70115000Y43415000D03*
D29*
X56885000Y37775000D03*
D31*
X67710500Y36620388D03*
X69425000Y39025000D03*
D29*
%TO.N,SIG_RUN*%
X84935000Y45702800D03*
X69470025Y46018874D03*
X59260492Y35106200D03*
X64395000Y37295000D03*
X67677764Y44135302D03*
X66575000Y40055000D03*
D31*
%TO.N,PMW_MISO*%
X57147400Y42883400D03*
X51178686Y47603964D03*
%TO.N,PMW_CS1*%
X68445000Y32670200D03*
X45642685Y51709095D03*
%TO.N,PMW_RESET*%
X55315001Y35005001D03*
X44678182Y51322509D03*
%TO.N,PMW_CS2*%
X60950736Y32584245D03*
X45152927Y51491730D03*
%TO.N,PMW_MOSI*%
X69695000Y32235000D03*
X47837650Y49901229D03*
%TO.N,PMW_SCLK*%
X61596582Y33303092D03*
X46912812Y42759668D03*
D30*
%TO.N,RGB_LED*%
X56668042Y49813842D03*
D31*
X15535000Y32535000D03*
%TO.N,BHI_SCLK_3V3*%
X51102200Y39937000D03*
X64982385Y39457653D03*
%TO.N,BHI_MOSI_3V3*%
X53642200Y40800600D03*
X63853000Y40597400D03*
%TO.N,BHI_CS_3V3*%
X50515179Y40061179D03*
X62329000Y39225800D03*
%TO.N,BHI_RSTQ_3V3*%
X49295827Y39993029D03*
X66617276Y37902727D03*
D30*
%TO.N,Net-(D4-K)*%
X56748249Y43584671D03*
X58245000Y45655000D03*
D31*
%TO.N,BHI_HIRQ_3V3*%
X61770200Y38768600D03*
X49844972Y40087635D03*
%TO.N,Net-(D3-K)*%
X61086727Y41622723D03*
X60170000Y44890000D03*
%TO.N,BHI_MISO_3V3*%
X51864200Y40089400D03*
X65582076Y39501714D03*
%TO.N,BHI_MISO*%
X53405000Y32735000D03*
X53344430Y34694516D03*
X50325000Y31125000D03*
X54366983Y34656218D03*
%TO.N,BHI_MOSI*%
X48151398Y30623541D03*
X47685000Y32605000D03*
%TO.N,BHI_SCLK*%
X46328456Y28562682D03*
X49885000Y29965000D03*
X49345000Y36955000D03*
X47325000Y35125000D03*
%TO.N,BHI_HIRQ*%
X48465000Y30275000D03*
X47433032Y32982664D03*
%TO.N,+3V3*%
X15445120Y33925120D03*
X5941000Y49405000D03*
X1439000Y49405000D03*
D27*
X66152777Y44797466D03*
X25865700Y30375000D03*
D31*
X12291000Y47728800D03*
X7871400Y47658600D03*
D27*
X46729778Y38125000D03*
X91820733Y25532667D03*
D28*
X30883800Y41207000D03*
D27*
X19993283Y27396963D03*
X42771000Y24846000D03*
D31*
X13815000Y44255000D03*
D27*
X46327000Y24951000D03*
X44200000Y37000000D03*
D31*
X11136185Y29125000D03*
D27*
X82446425Y29188058D03*
D31*
X10735000Y33925000D03*
X3147000Y49405000D03*
%TO.N,Net-(J12-Pin_2)*%
X47237031Y49944362D03*
X47135628Y52248111D03*
X45101700Y55125000D03*
%TD*%
D32*
%TO.N,GND*%
X89615000Y30235000D02*
X89635000Y30255000D01*
X91751700Y30605000D02*
X91401700Y30255000D01*
X88766700Y30255000D02*
X87801700Y30255000D01*
D33*
X92465000Y34865000D02*
X92405000Y34925000D01*
D32*
X89595000Y30255000D02*
X89615000Y30235000D01*
X88915000Y30255000D02*
X88955000Y30215000D01*
X87451700Y35405000D02*
X87801700Y35755000D01*
D33*
X92465000Y34895000D02*
X92465000Y34865000D01*
D32*
X87801700Y35755000D02*
X88766700Y35755000D01*
X88766700Y30255000D02*
X88915000Y30255000D01*
X88766700Y35755000D02*
X90436700Y35755000D01*
X88995000Y30255000D02*
X89595000Y30255000D01*
D33*
X86735024Y37665024D02*
X86735024Y37545000D01*
D34*
X98213400Y33472600D02*
X98384095Y33472600D01*
D33*
X92435000Y34895000D02*
X92465000Y34895000D01*
X91751700Y35405000D02*
X91925000Y35405000D01*
X91925000Y35405000D02*
X92435000Y34895000D01*
D32*
X87801700Y30255000D02*
X87451700Y30605000D01*
X91401700Y30255000D02*
X90436700Y30255000D01*
D33*
X87795000Y38725000D02*
X86735024Y37665024D01*
D32*
X88955000Y30215000D02*
X88995000Y30255000D01*
D34*
X98384095Y33472600D02*
X98601690Y33255005D01*
D32*
X89635000Y30255000D02*
X90436700Y30255000D01*
%TO.N,~{STM_NRST}*%
X30595000Y33505000D02*
X31485000Y34395000D01*
X34337622Y35100200D02*
X45566449Y35100200D01*
X46835000Y46779365D02*
X46835000Y45271000D01*
X33632422Y34395000D02*
X34337622Y35100200D01*
X45566449Y35100200D02*
X45848772Y35382523D01*
X51180635Y51125000D02*
X46835000Y46779365D01*
X18695154Y28806872D02*
X18695154Y30795347D01*
X21445000Y33505000D02*
X30595000Y33505000D01*
X19135000Y28367026D02*
X18695154Y28806872D01*
X19135000Y28005000D02*
X19135000Y28367026D01*
X53235000Y51125000D02*
X51180635Y51125000D01*
X18675000Y27215000D02*
X18066283Y27823717D01*
X18066283Y27823717D02*
X18066283Y28088000D01*
X77515000Y50885215D02*
X77572785Y50943000D01*
X77515000Y48725000D02*
X77515000Y50885215D01*
X21325000Y33385000D02*
X21445000Y33505000D01*
X18695154Y30795347D02*
X18996212Y31096405D01*
X31485000Y34395000D02*
X33632422Y34395000D01*
%TO.N,Net-(C22-Pad1)*%
X22675783Y32279800D02*
X25169900Y32279800D01*
X22612983Y32342600D02*
X22675783Y32279800D01*
X25169900Y32279800D02*
X25232700Y32342600D01*
D34*
%TO.N,+3.3VA*%
X24444950Y28757258D02*
X22625008Y30577200D01*
X20202740Y30872200D02*
X19476764Y30146224D01*
X22625008Y30577200D02*
X21844660Y30577200D01*
X19476764Y30146224D02*
X19476764Y30071126D01*
X24444950Y28267310D02*
X24444950Y28757258D01*
X21549660Y30872200D02*
X20202740Y30872200D01*
X21844660Y30577200D02*
X21549660Y30872200D01*
D32*
%TO.N,ESP_EN*%
X96913741Y38552600D02*
X96875000Y38513859D01*
X98213400Y38552600D02*
X96913741Y38552600D01*
X86586202Y38411400D02*
X86849017Y38674215D01*
X81338600Y38411400D02*
X86586202Y38411400D01*
X80915000Y38835000D02*
X81338600Y38411400D01*
D35*
%TO.N,VBAT*%
X85571600Y46694585D02*
X85055999Y47210186D01*
D34*
X91476700Y38755000D02*
X91476700Y39459931D01*
D36*
X43575000Y47125000D02*
X43575000Y43649632D01*
D35*
X54605000Y50495000D02*
X54595000Y50485000D01*
D36*
X44200000Y47750000D02*
X43575000Y47125000D01*
D37*
X25834433Y46365567D02*
X23334988Y48865012D01*
X23334988Y48865012D02*
X22298588Y48865012D01*
D36*
X51565000Y50485000D02*
X54575000Y50485000D01*
D35*
X85315000Y40215000D02*
X85100592Y40429408D01*
X85571600Y45325000D02*
X85571600Y46694585D01*
D37*
X28665213Y46365567D02*
X25834433Y46365567D01*
D34*
X91476700Y39459931D02*
X91176245Y39760386D01*
D35*
X54575000Y50485000D02*
X54605000Y50495000D01*
D36*
X43575000Y43649632D02*
X41700368Y41775000D01*
D37*
X34084200Y35776200D02*
X33368195Y35060195D01*
D35*
X85100592Y40429408D02*
X85100592Y42959408D01*
D37*
X33368195Y35060195D02*
X26953338Y35060195D01*
D35*
X54595000Y50485000D02*
X54585000Y50485000D01*
D33*
%TO.N,+5V*%
X55435737Y21945737D02*
X54885000Y21395000D01*
X56068621Y22919000D02*
X55435737Y22286116D01*
X55435737Y22286116D02*
X55435737Y21945737D01*
X70711000Y22919000D02*
X56068621Y22919000D01*
D38*
%TO.N,CP2105_VIO*%
X81795000Y30835000D02*
X81785000Y30845000D01*
X81605000Y29165000D02*
X81795000Y29355000D01*
X81795000Y29355000D02*
X81795000Y30835000D01*
D32*
%TO.N,VUSB*%
X87713368Y34255000D02*
X86763800Y33305432D01*
X88766700Y34255000D02*
X90436700Y34255000D01*
X88719100Y31707400D02*
X88766700Y31755000D01*
X86763800Y32063000D02*
X87119400Y31707400D01*
X87119400Y31707400D02*
X88719100Y31707400D01*
X88766700Y34255000D02*
X87713368Y34255000D01*
X86763800Y33305432D02*
X86763800Y32063000D01*
X88766700Y31755000D02*
X90436700Y31755000D01*
D35*
%TO.N,SEN2*%
X9082937Y16020781D02*
X9082937Y14759334D01*
X7575175Y17528543D02*
X9082937Y16020781D01*
%TO.N,SEN4*%
X11783000Y14791000D02*
X11783000Y17160937D01*
X11783000Y17160937D02*
X11536123Y17407814D01*
D34*
%TO.N,COL2*%
X6145000Y30945000D02*
X7821000Y30945000D01*
X24095000Y7355000D02*
X17824924Y13625076D01*
X7821000Y30945000D02*
X7968000Y30798000D01*
X24095000Y2599000D02*
X24095000Y7355000D01*
X4417000Y16823000D02*
X4417000Y29217000D01*
X17824924Y13625076D02*
X7614924Y13625076D01*
X7614924Y13625076D02*
X4417000Y16823000D01*
X4417000Y29217000D02*
X6145000Y30945000D01*
%TO.N,COL1*%
X6075000Y29267790D02*
X6075000Y23145000D01*
X21595000Y8955000D02*
X20475000Y10075000D01*
X18325800Y14124200D02*
X20325000Y12125000D01*
X4820200Y17095685D02*
X7791685Y14124200D01*
X4820200Y21890200D02*
X4820200Y17095685D01*
X7119530Y30312320D02*
X6075000Y29267790D01*
X6075000Y23145000D02*
X4820200Y21890200D01*
X21595000Y2599000D02*
X21595000Y8955000D01*
X7791685Y14124200D02*
X18325800Y14124200D01*
D32*
%TO.N,SEN6*%
X17336790Y19557948D02*
X17347725Y19557948D01*
X16200601Y20694137D02*
X17336790Y19557948D01*
D35*
X14831000Y16823000D02*
X15339000Y17331000D01*
X14831000Y14791000D02*
X14831000Y16823000D01*
%TO.N,SEN1*%
X8147931Y14730800D02*
X8147931Y14922151D01*
X8147931Y14922151D02*
X5926482Y17143600D01*
%TO.N,SEN5*%
X13815000Y17193210D02*
X13702377Y17305833D01*
X13815000Y14791000D02*
X13815000Y17193210D01*
D32*
%TO.N,SEN3*%
X9775000Y17557070D02*
X10867100Y18649170D01*
D35*
X9751000Y14995212D02*
X9945970Y14800242D01*
D32*
X9775000Y17585000D02*
X9775000Y17557070D01*
X10867100Y18649170D02*
X10867100Y20650594D01*
D35*
X9751000Y17533070D02*
X9751000Y14995212D01*
D32*
%TO.N,USB_CONN_D+*%
X88766700Y32755000D02*
X89344100Y32755000D01*
X88766700Y32755000D02*
X87799000Y32755000D01*
X87799000Y32755000D02*
X87729000Y32825000D01*
X89344100Y32755000D02*
X89844100Y33255000D01*
X89844100Y33255000D02*
X90436700Y33255000D01*
D38*
%TO.N,Net-(J8-CC2)*%
X91974125Y33755000D02*
X92253077Y34033952D01*
X90436700Y33755000D02*
X91974125Y33755000D01*
D32*
%TO.N,USB_CONN_D-*%
X88766700Y33255000D02*
X89345732Y33255000D01*
X88766700Y33255000D02*
X87320200Y33255000D01*
X89557800Y33467068D02*
X89557800Y33637800D01*
X89842468Y32755000D02*
X89582734Y32495266D01*
X89345732Y33255000D02*
X89557800Y33467068D01*
X90436700Y32755000D02*
X89842468Y32755000D01*
X89659400Y32418600D02*
X89582734Y32495266D01*
X87320200Y33255000D02*
X87170200Y33105000D01*
D38*
%TO.N,Net-(J8-CC1)*%
X87983000Y32164600D02*
X88073400Y32255000D01*
X88073400Y32255000D02*
X88766700Y32255000D01*
D34*
%TO.N,+1V8*%
X39881000Y17681000D02*
X39881000Y17779000D01*
D32*
X51535000Y28915000D02*
X52425000Y29805000D01*
D34*
X38765000Y18895000D02*
X38025000Y18895000D01*
D32*
X49695000Y28915000D02*
X51535000Y28915000D01*
X52275000Y29955000D02*
X52425000Y29805000D01*
D34*
X39881000Y17779000D02*
X38765000Y18895000D01*
D35*
X45275000Y27645000D02*
X43660000Y27645000D01*
D36*
X44575000Y20125000D02*
X44575000Y20875000D01*
D34*
X24195005Y16304995D02*
X34944995Y16304995D01*
X23115000Y17385000D02*
X24195005Y16304995D01*
D35*
X45925000Y28295000D02*
X45275000Y27645000D01*
D32*
X52275000Y30945000D02*
X52275000Y29955000D01*
D36*
X48102855Y24402855D02*
X48102855Y25526200D01*
D34*
X34944995Y16304995D02*
X34945000Y16305000D01*
D32*
X51895000Y31325000D02*
X52275000Y30945000D01*
D36*
X44575000Y20875000D02*
X48102855Y24402855D01*
D34*
%TO.N,Net-(J12-Pin_3)*%
X49016537Y51875000D02*
X49016537Y50097018D01*
D32*
%TO.N,ADC_V_IN*%
X16101000Y44610600D02*
X16101000Y34007960D01*
X14548040Y32455000D02*
X14044400Y32455000D01*
X16101000Y34007960D02*
X14548040Y32455000D01*
D34*
%TO.N,ESP_U1TXD*%
X58966384Y36018000D02*
X58192480Y35244096D01*
X38075000Y16375000D02*
X38075000Y16505000D01*
X58113000Y29625000D02*
X48359000Y19871000D01*
X38075000Y16505000D02*
X36075000Y18505000D01*
X48359000Y19871000D02*
X48359000Y19067000D01*
X59594366Y36018000D02*
X58966384Y36018000D01*
X58825000Y29625000D02*
X58113000Y29625000D01*
%TO.N,ESP_U1RXD*%
X57105312Y36585312D02*
X60023280Y36585312D01*
X46965000Y20990710D02*
X56881221Y30906931D01*
X35455000Y16995000D02*
X35415000Y16995000D01*
X46965000Y16953000D02*
X46965000Y20990710D01*
X56881221Y30906931D02*
X60277249Y30906931D01*
X37575000Y14875000D02*
X35455000Y16995000D01*
X56995000Y36475000D02*
X57105312Y36585312D01*
X46106000Y16094000D02*
X46965000Y16953000D01*
%TO.N,SEN9*%
X6957000Y44966200D02*
X7852401Y45861601D01*
X7852401Y45861601D02*
X8912800Y45861601D01*
%TO.N,SEN10*%
X9761350Y49877229D02*
X7494513Y49877229D01*
X9901400Y49737179D02*
X9761350Y49877229D01*
%TO.N,SEN11_3V3*%
X11919618Y28530382D02*
X10480382Y28530382D01*
X10480382Y28530382D02*
X10068200Y28118200D01*
X10068200Y28118200D02*
X8575000Y28118200D01*
%TO.N,SEN4_3V3*%
X15114703Y28875000D02*
X15114703Y25413715D01*
%TO.N,Net-(R53-Pad1)*%
X53595909Y15545909D02*
X43444091Y15545909D01*
X23250184Y14791000D02*
X19425592Y18615592D01*
X36825000Y14791000D02*
X23250184Y14791000D01*
X55245000Y17195000D02*
X53595909Y15545909D01*
X43444091Y15545909D02*
X43444073Y15545927D01*
D32*
%TO.N,STM_SWDCLK*%
X98085000Y39365000D02*
X98905000Y40185000D01*
X96188046Y47743586D02*
X81895994Y47743586D01*
X98905000Y40185000D02*
X98905000Y45026632D01*
X98905000Y45026632D02*
X96188046Y47743586D01*
%TO.N,STM_SWDIO*%
X94313400Y33472600D02*
X94313400Y31998276D01*
X86389481Y35090519D02*
X86389481Y36016752D01*
X86675000Y33941368D02*
X86675000Y34805000D01*
X90610124Y28295000D02*
X86555000Y28295000D01*
X86555000Y28295000D02*
X86075000Y28775000D01*
X86675000Y34805000D02*
X86389481Y35090519D01*
X86435000Y40015002D02*
X86435000Y42784000D01*
X86075000Y33341368D02*
X86675000Y33941368D01*
X86075000Y28775000D02*
X86075000Y33341368D01*
X86435000Y42784000D02*
X86105000Y43114000D01*
X86105000Y45403200D02*
X86105000Y46795000D01*
X94313400Y31998276D02*
X90610124Y28295000D01*
D34*
%TO.N,Net-(R59-Pad1)*%
X67205000Y42775000D02*
X68175000Y43745000D01*
X52365000Y20001117D02*
X58748883Y26385000D01*
X67205000Y39335000D02*
X67205000Y42775000D01*
X52365000Y17385000D02*
X52365000Y20001117D01*
X66305000Y26385000D02*
X66545000Y26625000D01*
X58748883Y26385000D02*
X66305000Y26385000D01*
D32*
%TO.N,CAN_H*%
X94763507Y27552931D02*
X85002905Y27552931D01*
X85002905Y27552931D02*
X83659974Y26210000D01*
%TO.N,CAN_L*%
X84122627Y27942600D02*
X83660018Y27479991D01*
X94763507Y30052931D02*
X92653176Y27942600D01*
X92653176Y27942600D02*
X84122627Y27942600D01*
D35*
%TO.N,PWM1_OUT*%
X20049200Y30112528D02*
X20380272Y30443600D01*
X22298600Y29517128D02*
X22298600Y29116600D01*
X20049200Y29781457D02*
X20049200Y30112528D01*
X19725000Y29457257D02*
X20049200Y29781457D01*
X21372128Y30443600D02*
X22298600Y29517128D01*
X20380272Y30443600D02*
X21372128Y30443600D01*
X19725000Y29326477D02*
X19725000Y29457257D01*
D32*
%TO.N,LIFT3*%
X32825000Y24875000D02*
X33364974Y24875000D01*
X33364974Y24875000D02*
X42075000Y16164974D01*
D34*
X42075000Y13575000D02*
X42075000Y16164974D01*
X43691000Y11959000D02*
X42075000Y13575000D01*
X43691000Y2599000D02*
X43691000Y11959000D01*
%TO.N,COL4*%
X29095000Y2599000D02*
X29095000Y7581000D01*
X29095000Y7581000D02*
X17778325Y18897675D01*
X17778325Y24035675D02*
X16355000Y25459000D01*
X17778325Y18897675D02*
X17778325Y24035675D01*
%TO.N,LIFT2*%
X41191000Y2599000D02*
X41191000Y15039000D01*
D32*
X20750658Y34465000D02*
X19694579Y33408921D01*
D34*
X41191000Y15039000D02*
X40231000Y15999000D01*
D32*
X27023000Y30471600D02*
X27023000Y29207000D01*
X27023000Y29207000D02*
X40231000Y15999000D01*
X26563766Y34314151D02*
X26412917Y34465000D01*
X26412917Y34465000D02*
X20750658Y34465000D01*
D34*
%TO.N,LIFT4*%
X27689768Y25889600D02*
X38297600Y15281768D01*
X15634735Y25721599D02*
X15802736Y25889600D01*
X38297600Y15281768D02*
X38297600Y10402400D01*
X15802736Y25889600D02*
X27689768Y25889600D01*
X38297600Y10402400D02*
X38325000Y10375000D01*
D32*
%TO.N,STM_USART1_TX*%
X39415000Y31927400D02*
X41752600Y34265000D01*
X17359031Y31927400D02*
X39415000Y31927400D01*
X76870105Y31629800D02*
X77018704Y31481201D01*
X76166449Y31629800D02*
X76870105Y31629800D01*
X41752600Y34265000D02*
X52656632Y34265000D01*
X55189031Y33822600D02*
X57254805Y31756826D01*
X53099032Y33822600D02*
X55189031Y33822600D01*
X12852400Y30812248D02*
X12852400Y30906832D01*
X12852400Y30906832D02*
X13301368Y31355800D01*
X16787431Y31355800D02*
X17359031Y31927400D01*
X57254805Y31756826D02*
X76039424Y31756826D01*
X76039424Y31756826D02*
X76166449Y31629800D01*
X13301368Y31355800D02*
X16787431Y31355800D01*
X52656632Y34265000D02*
X53099032Y33822600D01*
D38*
%TO.N,BHI_SWDIO*%
X36385452Y23375000D02*
X38842226Y25831774D01*
X50486300Y26536300D02*
X53385115Y29435115D01*
X36325000Y23375000D02*
X36385452Y23375000D01*
X48097800Y26736200D02*
X48297700Y26536300D01*
X53385115Y29435115D02*
X53385115Y31104885D01*
X45781774Y25831774D02*
X46686200Y26736200D01*
X53385115Y31104885D02*
X53015000Y31475000D01*
X46686200Y26736200D02*
X48097800Y26736200D01*
X48297700Y26536300D02*
X50486300Y26536300D01*
X38842226Y25831774D02*
X45781774Y25831774D01*
D32*
%TO.N,STM_ESP_INT*%
X15643800Y31758200D02*
X13205400Y31758200D01*
X53245000Y34175000D02*
X52802600Y34617400D01*
X22960302Y33137400D02*
X22947503Y33150200D01*
X40079031Y33137400D02*
X22960302Y33137400D01*
X55335000Y34175000D02*
X53245000Y34175000D01*
X22265663Y33137400D02*
X22199032Y33137400D01*
X57357907Y32152093D02*
X55335000Y34175000D01*
X22278463Y33150200D02*
X22265663Y33137400D01*
X52802600Y34617400D02*
X41559031Y34617400D01*
X69100000Y35850000D02*
X69100000Y32752160D01*
X22199032Y33137400D02*
X21989032Y32927400D01*
X67935000Y37015000D02*
X69100000Y35850000D01*
X13205400Y31758200D02*
X12087800Y30640600D01*
X16813000Y32927400D02*
X15643800Y31758200D01*
X68499933Y32152093D02*
X57357907Y32152093D01*
X69100000Y32752160D02*
X68499933Y32152093D01*
X41559031Y34617400D02*
X40079031Y33137400D01*
X21989032Y32927400D02*
X16813000Y32927400D01*
X22947503Y33150200D02*
X22278463Y33150200D01*
%TO.N,COL3*%
X15720000Y21395002D02*
X15720000Y23126104D01*
D34*
X26595000Y2599000D02*
X26595000Y9234994D01*
D32*
X15720001Y21395001D02*
X15720000Y21395002D01*
X12825000Y29113732D02*
X11843354Y30095378D01*
D34*
X15720001Y20109993D02*
X15720001Y21395001D01*
D32*
X15720000Y23126104D02*
X12825000Y26021104D01*
X12825000Y26021104D02*
X12825000Y29113732D01*
D34*
X26595000Y9234994D02*
X15720001Y20109993D01*
D32*
%TO.N,STM_USART1_RX*%
X16764540Y30834540D02*
X17505000Y31575000D01*
X55039800Y33470200D02*
X57105574Y31404426D01*
X76123281Y31174600D02*
X76487881Y31174600D01*
X42082600Y33912600D02*
X52510662Y33912600D01*
X52510662Y33912600D02*
X52953062Y33470200D01*
X75893455Y31404426D02*
X76123281Y31174600D01*
X52953062Y33470200D02*
X55039800Y33470200D01*
X13575000Y30834540D02*
X16764540Y30834540D01*
X39745000Y31575000D02*
X42082600Y33912600D01*
X17505000Y31575000D02*
X39745000Y31575000D01*
X57105574Y31404426D02*
X75893455Y31404426D01*
D34*
%TO.N,STM_USART2_TX*%
X18204998Y27094998D02*
X17635683Y27664313D01*
X17745000Y28525000D02*
X17785000Y28525000D01*
X17635683Y27664313D02*
X17635683Y28415683D01*
X17635683Y28415683D02*
X17745000Y28525000D01*
X18215000Y24245000D02*
X18215000Y24495000D01*
X25225000Y17235000D02*
X18215000Y24245000D01*
X33085000Y17235000D02*
X25225000Y17235000D01*
D32*
%TO.N,LIFT1*%
X18319130Y28684528D02*
X18717400Y28286258D01*
D34*
X38691000Y2599000D02*
X38691000Y4107000D01*
D32*
X18717400Y28286258D02*
X18717400Y27840272D01*
X16545300Y30188208D02*
X16941792Y30188208D01*
X18319130Y28810870D02*
X18319130Y28684528D01*
X19795909Y26761763D02*
X28688237Y26761763D01*
D34*
X38691000Y4107000D02*
X38825000Y4241000D01*
D32*
X28688237Y26761763D02*
X38825000Y16625000D01*
X38825000Y16625000D02*
X38825000Y4241000D01*
X18717400Y27840272D02*
X19795909Y26761763D01*
X16941792Y30188208D02*
X18319130Y28810870D01*
D35*
%TO.N,PWM2_OUT*%
X20504400Y28744800D02*
X19474800Y28744800D01*
X20876200Y29116600D02*
X20504400Y28744800D01*
X19474800Y28744800D02*
X19455000Y28725000D01*
D32*
%TO.N,HSE_OSC_OUT*%
X22157783Y32531151D02*
X22424432Y32797800D01*
X23614816Y32695000D02*
X23805000Y32695000D01*
X23604908Y32685092D02*
X23614816Y32695000D01*
X22914242Y32685092D02*
X23604908Y32685092D01*
X22424432Y32797800D02*
X22801534Y32797800D01*
X20251151Y32531151D02*
X22157783Y32531151D01*
X20235000Y32515000D02*
X20251151Y32531151D01*
X22801534Y32797800D02*
X22914242Y32685092D01*
%TO.N,CAN_SILENT*%
X71597442Y39935400D02*
X72726267Y39935400D01*
X72968568Y39739800D02*
X80690100Y32018268D01*
X80690100Y32018268D02*
X80690100Y25604900D01*
X72921867Y39739800D02*
X72968568Y39739800D01*
X72726267Y39935400D02*
X72921867Y39739800D01*
X80690100Y25604900D02*
X81355000Y24940000D01*
%TO.N,FDCAN1_RX*%
X71041844Y39055000D02*
X70945933Y39150911D01*
X79270900Y32439508D02*
X72655408Y39055000D01*
X72655408Y39055000D02*
X71041844Y39055000D01*
X79270900Y28989900D02*
X79270900Y32439508D01*
X79389800Y28871000D02*
X79270900Y28989900D01*
D34*
%TO.N,ESP_JTAG_TCK_PROT*%
X72747472Y40416000D02*
X72934431Y40602959D01*
X72743000Y34457000D02*
X69995000Y37205000D01*
X71226000Y40416000D02*
X72747472Y40416000D01*
X76585021Y42203582D02*
X76585021Y39761779D01*
X79347639Y44966200D02*
X76585021Y42203582D01*
X75447793Y38487741D02*
X75447793Y38431271D01*
X72934431Y40602959D02*
X73332575Y40602959D01*
X69995000Y37205000D02*
X69995000Y39185000D01*
X69995000Y39185000D02*
X71226000Y40416000D01*
X72743000Y34095000D02*
X72743000Y34457000D01*
X73332575Y40602959D02*
X75447793Y38487741D01*
X79499400Y44966200D02*
X79347639Y44966200D01*
%TO.N,ESP_JTAG_TDO_PROT*%
X79558716Y43418716D02*
X79558716Y44384318D01*
X74967193Y38306644D02*
X73181467Y40092370D01*
X73251000Y33079000D02*
X73251000Y34699002D01*
X75368347Y37874311D02*
X74967193Y38275465D01*
X75614947Y37874311D02*
X75368347Y37874311D01*
X79558716Y44384318D02*
X79466717Y44476317D01*
X73251000Y34699002D02*
X71215002Y36735000D01*
X74967193Y38275465D02*
X74967193Y38306644D01*
X77565000Y39625000D02*
X77565000Y41425000D01*
X77565000Y41425000D02*
X79558716Y43418716D01*
D32*
%TO.N,FDCAN1_TX*%
X72925230Y39284770D02*
X72924007Y39284770D01*
X80261400Y31948600D02*
X72925230Y39284770D01*
X71398894Y39407400D02*
X71266315Y39539979D01*
X72924007Y39284770D02*
X72801377Y39407400D01*
X72801377Y39407400D02*
X71398894Y39407400D01*
X80261400Y25255800D02*
X80261400Y31948600D01*
D34*
%TO.N,ESP_JTAG_TDI_PROT*%
X77084400Y39114814D02*
X77084400Y41674091D01*
X77272895Y38742708D02*
X77272895Y38926319D01*
X77084400Y41674091D02*
X79123468Y43713159D01*
X77272895Y38926319D02*
X77084400Y39114814D01*
D39*
%TO.N,BHI_SWDCLK*%
X41404812Y29508212D02*
X46745400Y29508212D01*
X35903800Y24007200D02*
X41404812Y29508212D01*
D32*
%TO.N,BHI_RSTQ*%
X47389938Y33455000D02*
X42245000Y33455000D01*
X42245000Y33455000D02*
X39175000Y30385000D01*
X39175000Y30385000D02*
X37655000Y30385000D01*
X47515000Y30385000D02*
X37655000Y30385000D01*
X49055000Y29855000D02*
X48045000Y29855000D01*
X48045000Y29855000D02*
X47515000Y30385000D01*
%TO.N,ESP_JTAG_TMS_PROT*%
X72285800Y34044200D02*
X72285800Y34379910D01*
X72285800Y34379910D02*
X68933000Y37732710D01*
X68933000Y37732710D02*
X68933000Y42903000D01*
X68933000Y42903000D02*
X69065000Y43035000D01*
D39*
%TO.N,BHI_CS*%
X50495200Y35134800D02*
X54631481Y35134800D01*
D32*
X49645000Y30445000D02*
X49919800Y30719800D01*
X54061422Y32329800D02*
X54445000Y32713378D01*
D39*
X54631481Y35134800D02*
X54822183Y34944098D01*
D32*
X49565000Y30445000D02*
X49645000Y30445000D01*
D39*
X50295000Y35335000D02*
X50495200Y35134800D01*
D32*
X52102840Y32329800D02*
X54061422Y32329800D01*
X49919800Y30719800D02*
X50492840Y30719800D01*
X50492840Y30719800D02*
X52102840Y32329800D01*
D34*
%TO.N,Net-(J14-Pin_3)*%
X92616775Y21382345D02*
X93450242Y22215812D01*
X93450242Y22215812D02*
X93450242Y23727945D01*
X91467000Y21382345D02*
X92616775Y21382345D01*
X91224345Y21625000D02*
X91467000Y21382345D01*
X86075000Y21625000D02*
X91224345Y21625000D01*
%TO.N,ESP_UART_DEBUG_TX*%
X76600643Y39028360D02*
X76742695Y38886308D01*
X70475000Y38745000D02*
X70475000Y38695000D01*
X76600643Y39066485D02*
X76600643Y39028360D01*
X76742695Y38886308D02*
X76742695Y38512148D01*
X77135000Y37185000D02*
X77967200Y37185000D01*
X69895000Y42435000D02*
X70695000Y43235000D01*
X77967200Y37185000D02*
X78605000Y36547200D01*
X76335000Y32835000D02*
X76335000Y32035000D01*
X70425000Y38745000D02*
X70515000Y38655000D01*
X69895000Y40015000D02*
X69895000Y42435000D01*
X76855000Y38399843D02*
X76855000Y37465000D01*
X76742695Y38512148D02*
X76855000Y38399843D01*
X76855000Y37465000D02*
X77135000Y37185000D01*
X76035000Y43145000D02*
X76035000Y39632128D01*
X70475000Y38695000D02*
X76335000Y32835000D01*
X70695000Y43235000D02*
X70695000Y43275000D01*
X70475000Y38745000D02*
X70425000Y38745000D01*
X78605000Y36547200D02*
X78605000Y35805000D01*
X76035000Y39632128D02*
X76600643Y39066485D01*
%TO.N,Net-(R5-Pad2)*%
X76684800Y23323463D02*
X76684800Y21903000D01*
X67254181Y30425419D02*
X69582844Y30425419D01*
X68871114Y43645409D02*
X68258857Y43033152D01*
X68258857Y43033152D02*
X68258857Y40276671D01*
X82021668Y45673236D02*
X83059232Y45673236D01*
X69582844Y30425419D02*
X76684800Y23323463D01*
X83059232Y45673236D02*
X83207468Y45525000D01*
%TO.N,Net-(J12-Pin_4)*%
X48511701Y51726841D02*
X48483646Y51754896D01*
X48511701Y50015481D02*
X48511701Y51726841D01*
D32*
%TO.N,ESP_UART_DEBUG_RX*%
X79075000Y36345000D02*
X79075000Y36611490D01*
X77370202Y37719798D02*
X77345000Y37745000D01*
D38*
X75815000Y35415000D02*
X74620164Y36609836D01*
X74620164Y36609836D02*
X73239836Y36609836D01*
D32*
X79075000Y36611490D02*
X77966692Y37719798D01*
X77966692Y37719798D02*
X77370202Y37719798D01*
D38*
X74303800Y29175000D02*
X74365000Y29113800D01*
X75815000Y35315000D02*
X75815000Y35415000D01*
X73065000Y29175000D02*
X74303800Y29175000D01*
D34*
%TO.N,ESP_JTAG_TDI*%
X95991200Y37291600D02*
X97270200Y36012600D01*
X97270200Y36012600D02*
X98213400Y36012600D01*
X84145000Y44255000D02*
X95942008Y44255000D01*
X97228175Y40128176D02*
X95991200Y38891201D01*
X97564070Y40128176D02*
X97228175Y40128176D01*
X95942008Y44255000D02*
X97905000Y42292008D01*
X82645000Y42755000D02*
X84145000Y44255000D01*
X97905000Y42292008D02*
X97905000Y40469106D01*
X95991200Y38891201D02*
X95991200Y37291600D01*
X97905000Y40469106D02*
X97564070Y40128176D01*
%TO.N,ESP_JTAG_TMS*%
X82141000Y44509000D02*
X82398200Y44766200D01*
X96394400Y38724190D02*
X96394400Y38259000D01*
X96003111Y44766200D02*
X98438353Y42330958D01*
X82398200Y44766200D02*
X96003111Y44766200D01*
X97395186Y39724976D02*
X96394400Y38724190D01*
X98438353Y40432249D02*
X97731080Y39724976D01*
X97383400Y37270000D02*
X98213400Y37270000D01*
X96394400Y38259000D02*
X97383400Y37270000D01*
X98438353Y42330958D02*
X98438353Y40432249D01*
X97731080Y39724976D02*
X97395186Y39724976D01*
%TO.N,ESP_JTAG_TDO*%
X93177400Y36012600D02*
X94313400Y36012600D01*
X81807637Y41794363D02*
X81807637Y43223225D01*
X92555000Y36635000D02*
X93177400Y36012600D01*
X84631800Y38970200D02*
X81807637Y41794363D01*
X86310511Y38970200D02*
X84631800Y38970200D01*
%TO.N,ESP_JTAG_TCK*%
X94313400Y37282600D02*
X94452337Y37282600D01*
X94452337Y37282600D02*
X94609899Y37440162D01*
D32*
%TO.N,STM_RTS*%
X77315000Y16823000D02*
X81379000Y12759000D01*
X78615000Y31585000D02*
X77315000Y30285000D01*
X81379000Y12759000D02*
X83411000Y12759000D01*
X77315000Y30285000D02*
X77315000Y16823000D01*
%TO.N,STM_DTR*%
X75825164Y32575164D02*
X72535164Y32575164D01*
X72535164Y32575164D02*
X72175000Y32215000D01*
X78331000Y11235000D02*
X75791000Y13775000D01*
X75791000Y23427000D02*
X71727000Y27491000D01*
X75791000Y13775000D02*
X75791000Y23427000D01*
%TO.N,ESP_DTR*%
X80065000Y36435000D02*
X79065000Y37435000D01*
X80065000Y35715000D02*
X80065000Y36435000D01*
%TO.N,Net-(Q1B-C2)*%
X9385000Y22125000D02*
X8501161Y21241161D01*
X10259000Y22125000D02*
X9385000Y22125000D01*
X8501161Y20145563D02*
X8501161Y19210713D01*
X7048362Y21598362D02*
X8501161Y20145563D01*
X8501161Y21241161D02*
X8501161Y19210713D01*
D34*
%TO.N,Net-(Q3B-C2)*%
X8588720Y29653320D02*
X7825000Y28889600D01*
X7825000Y27557955D02*
X12567335Y22815620D01*
X8735000Y32571000D02*
X8227000Y33079000D01*
X12567335Y21417335D02*
X12787709Y21196961D01*
X16033434Y19176566D02*
X14013039Y21196961D01*
X8227000Y38037582D02*
X12562976Y42373558D01*
D32*
X16033434Y18946303D02*
X16033434Y19132276D01*
D40*
X8588720Y29653320D02*
X8735000Y29799600D01*
D34*
X12787709Y21196961D02*
X13680934Y21196961D01*
D40*
X8735000Y29799600D02*
X8735000Y32571000D01*
D34*
X8227000Y33079000D02*
X8227000Y38037582D01*
X7825000Y28889600D02*
X7825000Y27557955D01*
X16033434Y19132276D02*
X16033434Y19176566D01*
X14013039Y21196961D02*
X13680934Y21196961D01*
X12567335Y22815620D02*
X12567335Y21417335D01*
%TO.N,Net-(R13-Pad2)*%
X78351700Y17661200D02*
X81937000Y21246500D01*
X81937000Y21246500D02*
X81937000Y28177361D01*
X82903000Y28507000D02*
X84935000Y30539000D01*
X84935000Y34947878D02*
X85812728Y35825606D01*
X84935000Y30539000D02*
X84935000Y34947878D01*
X81937000Y28177361D02*
X82266639Y28507000D01*
X82266639Y28507000D02*
X82903000Y28507000D01*
D32*
%TO.N,Net-(Q4B-C2)*%
X12830745Y43619255D02*
X12875945Y43619255D01*
D41*
X10953828Y41753828D02*
X12819255Y43619255D01*
D32*
X10815800Y46719427D02*
X10815800Y45634200D01*
D41*
X10953828Y41715000D02*
X10953828Y41753828D01*
D32*
X12875945Y43619255D02*
X13575700Y43619255D01*
X10815800Y45634200D02*
X12830745Y43619255D01*
D41*
X12819255Y43619255D02*
X12875945Y43619255D01*
D34*
%TO.N,Net-(Q6B-C2)*%
X717000Y46033000D02*
X1439000Y46755000D01*
X353000Y46033000D02*
X717000Y46033000D01*
D32*
%TO.N,Net-(Q1A-C1)*%
X7395949Y19963220D02*
X6883670Y19450941D01*
X11231000Y22875000D02*
X11275000Y22919000D01*
X6883670Y19450941D02*
X6883670Y19083969D01*
X6325000Y20625000D02*
X6325000Y21625000D01*
X7980129Y19963220D02*
X7395949Y19963220D01*
X6883670Y20066330D02*
X6325000Y20625000D01*
X6883670Y19083969D02*
X6883670Y20066330D01*
X6325000Y21625000D02*
X7575000Y22875000D01*
X7575000Y22875000D02*
X11231000Y22875000D01*
%TO.N,STM_SWDCLK_PROT*%
X78325000Y51125000D02*
X78325000Y47625000D01*
X14745000Y47545000D02*
X20825000Y53625000D01*
X78083000Y51367000D02*
X78325000Y51125000D01*
X10664182Y36195854D02*
X14745000Y40276672D01*
X79243023Y47375000D02*
X79558194Y47690171D01*
X78575000Y47375000D02*
X79243023Y47375000D01*
X78325000Y47625000D02*
X78575000Y47375000D01*
X53213000Y53625000D02*
X55471000Y51367000D01*
X20825000Y53625000D02*
X53213000Y53625000D01*
X55471000Y51367000D02*
X78083000Y51367000D01*
X14745000Y40276672D02*
X14745000Y47545000D01*
%TO.N,STM_SWDIO_PROT*%
X14310300Y40432300D02*
X14310300Y47860300D01*
X78331000Y51875000D02*
X79018036Y51187964D01*
X20575000Y54125000D02*
X53221000Y54125000D01*
X79018036Y51187964D02*
X79018036Y48109800D01*
X53221000Y54125000D02*
X55471000Y51875000D01*
X10005000Y36127000D02*
X14310300Y40432300D01*
X55471000Y51875000D02*
X78331000Y51875000D01*
D38*
X10005000Y36127000D02*
X10005000Y36076200D01*
D32*
X14310300Y47860300D02*
X20575000Y54125000D01*
%TO.N,STM_NRESET*%
X99336800Y45093200D02*
X96111000Y48319000D01*
X96111000Y48319000D02*
X81940292Y48319000D01*
X99039376Y39675624D02*
X99336800Y39973048D01*
X95995936Y34685166D02*
X95938502Y34742600D01*
X81940292Y48319000D02*
X81883923Y48262631D01*
X95938502Y34742600D02*
X94313400Y34742600D01*
X99336800Y39973048D02*
X99336800Y45093200D01*
%TO.N,Net-(Q2A-C1)*%
X14779083Y22651990D02*
X14083717Y22651990D01*
X12267258Y19373669D02*
X12267258Y19500412D01*
X10643732Y17750143D02*
X12267258Y19373669D01*
X12315541Y19500412D02*
X12255187Y19440058D01*
X12267258Y19500412D02*
X12315541Y19500412D01*
X13014135Y20760000D02*
X13018612Y20764477D01*
X12106411Y20047973D02*
X12818438Y20760000D01*
X12818438Y20760000D02*
X13014135Y20760000D01*
X14083717Y22651990D02*
X13087722Y21655995D01*
D34*
%TO.N,Net-(Q3A-C1)*%
X16775000Y38525000D02*
X16775000Y34845000D01*
X16060931Y29865181D02*
X17181240Y28744872D01*
D32*
X16775000Y38545000D02*
X16785000Y38535000D01*
X16775000Y38525000D02*
X16775000Y38545000D01*
D34*
X16775000Y34845000D02*
X17045000Y34575000D01*
X17181240Y28744872D02*
X17181240Y26531715D01*
%TO.N,Net-(Q6A-C1)*%
X3039000Y46755000D02*
X3039000Y46505000D01*
X1805000Y45271000D02*
X833600Y45271000D01*
X861000Y43239000D02*
X833600Y43266400D01*
X833600Y43266400D02*
X833600Y45271000D01*
X3039000Y46505000D02*
X1805000Y45271000D01*
X2639000Y43239000D02*
X861000Y43239000D01*
%TO.N,SIG_KILL*%
X69425000Y42725000D02*
X70115000Y43415000D01*
X69425000Y39025000D02*
X69425000Y42725000D01*
X57035000Y37925000D02*
X56885000Y37775000D01*
X67710500Y36620388D02*
X66969940Y36620388D01*
X65665328Y37925000D02*
X57035000Y37925000D01*
X66969940Y36620388D02*
X65665328Y37925000D01*
%TO.N,SIG_RUN*%
X66575000Y40055000D02*
X66575000Y43032538D01*
X66575000Y43032538D02*
X67677764Y44135302D01*
X69576151Y46125000D02*
X81258116Y46125000D01*
X81716011Y46582895D02*
X84054905Y46582895D01*
X64395000Y37295000D02*
X62206200Y35106200D01*
X84054905Y46582895D02*
X84935000Y45702800D01*
X81258116Y46125000D02*
X81716011Y46582895D01*
X69470025Y46018874D02*
X69576151Y46125000D01*
X62206200Y35106200D02*
X59260492Y35106200D01*
%TO.N,PMW_MISO*%
X51178686Y47603964D02*
X55899250Y42883400D01*
X55899250Y42883400D02*
X57147400Y42883400D01*
D32*
%TO.N,PMW_CS1*%
X55511769Y36166600D02*
X52040136Y36166600D01*
X46379800Y41826936D02*
X46379800Y50971980D01*
X68445000Y32670200D02*
X61466741Y32670200D01*
X57443369Y34235000D02*
X55511769Y36166600D01*
X52040136Y36166600D02*
X46379800Y41826936D01*
X61466741Y32670200D02*
X59901941Y34235000D01*
X46379800Y50971980D02*
X45642685Y51709095D01*
X59901941Y34235000D02*
X57443369Y34235000D01*
%TO.N,PMW_RESET*%
X55315001Y35095031D02*
X54948232Y35461800D01*
X45605000Y50395691D02*
X44678182Y51322509D01*
X55315001Y35005001D02*
X55315001Y35095031D01*
X45605000Y41605000D02*
X45605000Y50395691D01*
X54948232Y35461800D02*
X51748200Y35461800D01*
X51748200Y35461800D02*
X45605000Y41605000D01*
%TO.N,PMW_CS2*%
X51894168Y35814200D02*
X45957400Y41750968D01*
X55365800Y35814200D02*
X51894168Y35814200D01*
X60950736Y32584245D02*
X58595755Y32584245D01*
X45957400Y50687257D02*
X45152927Y51491730D01*
X58595755Y32584245D02*
X55365800Y35814200D01*
X45957400Y41750968D02*
X45957400Y50687257D01*
%TO.N,PMW_MOSI*%
X47837650Y49901229D02*
X47837650Y52364450D01*
X48348200Y52875000D02*
X52852542Y52875000D01*
X69695000Y36032542D02*
X69695000Y32235000D01*
X52852542Y52875000D02*
X69695000Y36032542D01*
X47837650Y52364450D02*
X48348200Y52875000D01*
%TO.N,PMW_SCLK*%
X57777226Y34587400D02*
X60312274Y34587400D01*
X60312274Y34587400D02*
X61596582Y33303092D01*
X46912812Y41792292D02*
X52186104Y36519000D01*
X55845626Y36519000D02*
X57777226Y34587400D01*
X46912812Y42759668D02*
X46912812Y41792292D01*
X52186104Y36519000D02*
X55845626Y36519000D01*
%TO.N,RGB_LED*%
X18392321Y33942321D02*
X26425000Y41975000D01*
X33887858Y41975000D02*
X45140258Y53227400D01*
X56467367Y49813842D02*
X56668042Y49813842D01*
X16942321Y33942321D02*
X18392321Y33942321D01*
X45140258Y53227400D02*
X53053809Y53227400D01*
X26425000Y41975000D02*
X33887858Y41975000D01*
X53053809Y53227400D02*
X56467367Y49813842D01*
X15535000Y32535000D02*
X16942321Y33942321D01*
%TO.N,BHI_SCLK_3V3*%
X64805838Y39634200D02*
X64982385Y39457653D01*
X51102200Y39937000D02*
X51405000Y39634200D01*
X51405000Y39634200D02*
X64805838Y39634200D01*
%TO.N,BHI_MOSI_3V3*%
X53642200Y40800600D02*
X53997800Y40445000D01*
X63700600Y40445000D02*
X63853000Y40597400D01*
X53997800Y40445000D02*
X63700600Y40445000D01*
%TO.N,BHI_CS_3V3*%
X50515179Y39915796D02*
X50515179Y40061179D01*
X62329000Y39225800D02*
X51205175Y39225800D01*
X51205175Y39225800D02*
X50515179Y39915796D01*
%TO.N,BHI_RSTQ_3V3*%
X50936056Y38352800D02*
X49295827Y39993029D01*
X66167203Y38352800D02*
X54438444Y38352800D01*
X54438444Y38352800D02*
X54429078Y38362166D01*
X54010886Y38362166D02*
X54001520Y38352800D01*
X66617276Y37902727D02*
X66167203Y38352800D01*
X54001520Y38352800D02*
X50936056Y38352800D01*
X54429078Y38362166D02*
X54010886Y38362166D01*
D34*
%TO.N,Net-(D4-K)*%
X58245000Y45655000D02*
X58245000Y45081422D01*
X58245000Y45081422D02*
X56748249Y43584671D01*
D32*
%TO.N,BHI_HIRQ_3V3*%
X51164007Y38768600D02*
X49844972Y40087635D01*
X61770200Y38768600D02*
X51164007Y38768600D01*
%TO.N,Net-(D3-K)*%
X60170000Y44890000D02*
X60170000Y42518717D01*
X60170000Y42518717D02*
X61065994Y41622723D01*
X61065994Y41622723D02*
X61086727Y41622723D01*
X61086727Y41622723D02*
X61086727Y41601990D01*
X61086727Y41601990D02*
X61052172Y41636545D01*
%TO.N,BHI_MISO_3V3*%
X64994390Y40089400D02*
X65582076Y39501714D01*
X51864200Y40089400D02*
X64994390Y40089400D01*
%TO.N,BHI_MISO*%
X50754752Y32816200D02*
X50450200Y32511648D01*
X53344430Y34694516D02*
X54328685Y34694516D01*
X50450200Y31250200D02*
X50325000Y31125000D01*
X50450200Y32511648D02*
X50450200Y31250200D01*
X54328685Y34694516D02*
X54366983Y34656218D01*
X53323800Y32816200D02*
X53405000Y32735000D01*
X50754752Y32816200D02*
X53323800Y32816200D01*
%TO.N,BHI_MOSI*%
X48065000Y32225000D02*
X48065000Y30709939D01*
X48065000Y30709939D02*
X48151398Y30623541D01*
X47685000Y32605000D02*
X48065000Y32225000D01*
D39*
%TO.N,BHI_SCLK*%
X49345000Y36955000D02*
X48179800Y36955000D01*
X47505000Y36280200D02*
X47505000Y35305000D01*
X48482682Y28562682D02*
X46328456Y28562682D01*
X49885000Y29965000D02*
X48482682Y28562682D01*
X48179800Y36955000D02*
X47505000Y36280200D01*
X47505000Y35305000D02*
X47325000Y35125000D01*
D38*
%TO.N,BHI_HIRQ*%
X47433032Y32982664D02*
X47470309Y32945387D01*
X47470309Y32945387D02*
X47522421Y32997500D01*
X48593898Y32251181D02*
X48593898Y30403898D01*
X47847579Y32997500D02*
X48593898Y32251181D01*
X47522421Y32997500D02*
X47847579Y32997500D01*
X48593898Y30403898D02*
X48465000Y30275000D01*
D33*
%TO.N,+3V3*%
X37258002Y39941998D02*
X35993000Y41207000D01*
X46327000Y24951000D02*
X42876000Y24951000D01*
X20087320Y27491000D02*
X19993283Y27396963D01*
X85587412Y36642000D02*
X88150158Y36642000D01*
X75729400Y39134862D02*
X69828062Y45036200D01*
X35993000Y41207000D02*
X30883800Y41207000D01*
D34*
X1439000Y49405000D02*
X3147000Y49405000D01*
D33*
X92547400Y37763000D02*
X93337000Y38552600D01*
X69828062Y45036200D02*
X66391511Y45036200D01*
X44200000Y37000000D02*
X45325000Y38125000D01*
D32*
X11763600Y47658600D02*
X11833800Y47728800D01*
D33*
X82395000Y33449588D02*
X85587412Y36642000D01*
X75729400Y39044862D02*
X75729400Y39134862D01*
X44200000Y37000000D02*
X44575000Y37375000D01*
X91476700Y25876700D02*
X91820733Y25532667D01*
X93337000Y38552600D02*
X94313400Y38552600D01*
D40*
X11136185Y29125000D02*
X11136185Y33496917D01*
D33*
X89271158Y37763000D02*
X92547400Y37763000D01*
D40*
X15445115Y33925115D02*
X15445120Y33925120D01*
X11136185Y33496917D02*
X10707987Y33925115D01*
D37*
X94313400Y38552600D02*
X94313400Y39363400D01*
D33*
X66391511Y45036200D02*
X66152777Y44797466D01*
X25865700Y30375000D02*
X25865700Y28630729D01*
D40*
X10735000Y33925000D02*
X10735115Y33925115D01*
D34*
X3147000Y49405000D02*
X5941000Y49405000D01*
X7871400Y49182600D02*
X7871400Y47658600D01*
D32*
X11833800Y47728800D02*
X12291000Y47728800D01*
D33*
X82395000Y29239483D02*
X82446425Y29188058D01*
X44575000Y37375000D02*
X44575000Y39125000D01*
D40*
X10734885Y33925115D02*
X10735000Y33925000D01*
D33*
X76299400Y38158678D02*
X76187095Y38270983D01*
X82395000Y31768171D02*
X81691829Y31768171D01*
X76187095Y38587167D02*
X75729400Y39044862D01*
D32*
X7871400Y47658600D02*
X11763600Y47658600D01*
D33*
X44575000Y39125000D02*
X43758002Y39941998D01*
X24725971Y27491000D02*
X20087320Y27491000D01*
D40*
X10735115Y33925115D02*
X15445115Y33925115D01*
D33*
X94313400Y39363400D02*
X95093400Y39363400D01*
X76187095Y38270983D02*
X76187095Y38587167D01*
X95093400Y39363400D02*
X96245000Y40515000D01*
D37*
X96010154Y41060154D02*
X96010154Y41748674D01*
D33*
X45325000Y38125000D02*
X46729778Y38125000D01*
X43758002Y39941998D02*
X37258002Y39941998D01*
D40*
X12291000Y47728800D02*
X12291000Y45779000D01*
D33*
X82395000Y31768171D02*
X82395000Y33449588D01*
X91476700Y26755000D02*
X91476700Y25876700D01*
X76299400Y37160600D02*
X76299400Y38158678D01*
D34*
X5941000Y49405000D02*
X7649000Y49405000D01*
D40*
X10707987Y33925115D02*
X10734885Y33925115D01*
D33*
X25865700Y28630729D02*
X24725971Y27491000D01*
X81691829Y31768171D02*
X76299400Y37160600D01*
D40*
X12291000Y45779000D02*
X13815000Y44255000D01*
D33*
X82395000Y31768171D02*
X82395000Y29239483D01*
X88150158Y36642000D02*
X89271158Y37763000D01*
X96245000Y40515000D02*
X96245000Y41495000D01*
D34*
X7649000Y49405000D02*
X7871400Y49182600D01*
D33*
X42876000Y24951000D02*
X42771000Y24846000D01*
D32*
%TO.N,Net-(J12-Pin_2)*%
X47237031Y52146708D02*
X47135628Y52248111D01*
X45101700Y55125000D02*
X45101700Y62935000D01*
X47237031Y49944362D02*
X47237031Y52146708D01*
%TD*%
M02*
